<svg width="479" height="408" viewBox="0 0 479 408" fill="none" xmlns="http://www.w3.org/2000/svg">
<g opacity="0.25">
<mask id="mask0_3_344" style="mask-type:alpha" maskUnits="userSpaceOnUse" x="0" y="0" width="479" height="408">
<rect x="478.151" y="0.5" width="406.678" height="477.179" transform="rotate(90 478.151 0.5)" fill="url(#paint0_linear_3_344)" stroke="#6246E5"/>
</mask>
<g mask="url(#mask0_3_344)">
<path d="M129.974 521.712C60.9622 521.712 4.91267 458.181 4.91267 379.674C4.91267 301.167 60.9622 237.636 129.974 237.636C198.986 237.636 255.035 301.167 255.035 379.674C255.035 458.181 198.986 521.712 129.974 521.712Z" stroke="#E5E5E5"/>
<path d="M143.191 527.337C65.967 527.337 3.26031 456.249 3.26031 368.42C3.26031 280.59 65.967 209.502 143.191 209.502C220.414 209.502 283.121 280.59 283.121 368.42C283.121 456.249 220.414 527.337 143.191 527.337Z" stroke="#E5E5E5"/>
<path d="M153.93 532.966C69.4068 532.966 0.78275 455.16 0.782754 359.044C0.782758 262.929 69.4069 185.123 153.93 185.123C238.453 185.123 307.077 262.929 307.077 359.044C307.077 455.16 238.453 532.966 153.93 532.966Z" stroke="#E5E5E5"/>
<path d="M169.625 536.716C78.7143 536.716 4.91249 453.032 4.9125 349.666C4.9125 246.3 78.7144 162.616 169.625 162.616C260.535 162.616 334.337 246.3 334.337 349.666C334.337 453.032 260.535 536.716 169.625 536.716Z" stroke="#E5E5E5"/>
<path d="M184.907 540.467C87.8377 540.467 9.04299 451.116 9.04299 340.757C9.043 230.399 87.8377 141.048 184.907 141.048C281.976 141.048 360.771 230.399 360.771 340.757C360.771 451.116 281.976 540.467 184.907 540.467Z" stroke="#E5E5E5"/>
<path d="M202.255 545.156C95.6049 545.156 9.04354 446.988 9.04355 325.754C9.04355 204.52 95.6049 106.351 202.255 106.351C308.905 106.351 395.466 204.52 395.466 325.754C395.466 446.988 308.905 545.156 202.255 545.156Z" stroke="#E5E5E5"/>
</g>
</g>
<defs>
<linearGradient id="paint0_linear_3_344" x1="767.792" y1="13.4159" x2="538.481" y2="506.03" gradientUnits="userSpaceOnUse">
<stop stop-color="#747DEF"/>
<stop offset="1" stop-color="#5E3BE1"/>
</linearGradient>
</defs>
</svg>
