<svg width="20" height="16" viewBox="0 0 20 16" fill="none" xmlns="http://www.w3.org/2000/svg">
<path d="M17.6272 0.5H2.62721C1.59596 0.5 0.761588 1.34375 0.761588 2.375L0.752213 13.625C0.752213 14.6562 1.59596 15.5 2.62721 15.5H17.6272C18.6585 15.5 19.5022 14.6562 19.5022 13.625V2.375C19.5022 1.34375 18.6585 0.5 17.6272 0.5ZM17.2522 4.48438L10.6241 8.62813C10.3241 8.81563 9.93034 8.81563 9.63034 8.62813L3.00221 4.48438C2.90821 4.4316 2.82589 4.36031 2.76023 4.2748C2.69458 4.18929 2.64696 4.09135 2.62025 3.98691C2.59355 3.88247 2.58831 3.77369 2.60486 3.66716C2.62141 3.56064 2.6594 3.45858 2.71654 3.36716C2.77368 3.27574 2.84877 3.19686 2.93727 3.13531C3.02577 3.07375 3.12584 3.03079 3.23143 3.00903C3.33701 2.98727 3.44592 2.98716 3.55155 3.0087C3.65717 3.03025 3.75733 3.073 3.84596 3.13437L10.1272 7.0625L16.4085 3.13437C16.4971 3.073 16.5973 3.03025 16.7029 3.0087C16.8085 2.98716 16.9174 2.98727 17.023 3.00903C17.1286 3.03079 17.2287 3.07375 17.3172 3.13531C17.4057 3.19686 17.4807 3.27574 17.5379 3.36716C17.595 3.45858 17.633 3.56064 17.6496 3.66716C17.6661 3.77369 17.6609 3.88247 17.6342 3.98691C17.6075 4.09135 17.5598 4.18929 17.4942 4.2748C17.4285 4.36031 17.3462 4.4316 17.2522 4.48438Z" fill="#9A9A9A"/>
</svg>
