<svg width="145" height="314" viewBox="0 0 145 314" fill="none" xmlns="http://www.w3.org/2000/svg">
<g clip-path="url(#clip0_3_295)">
<path d="M144.226 21.3473L143.91 24.6886L106.35 295.704C104.865 306.43 97.771 313.788 90.0183 313.347H89.7098H89.405H89.0964H88.7878H88.483H88.3421C93.9347 312.954 99.0092 308.534 101.63 301.835C101.786 301.433 101.935 301.026 102.072 300.607C102.167 300.329 102.255 300.047 102.339 299.751C102.726 298.431 103.015 297.078 103.204 295.704L141.178 21.7195C141.205 21.5441 141.228 21.3687 141.243 21.1976C141.34 20.4186 141.403 19.6347 141.43 18.8488C141.788 8.7052 136.298 1.01727 128.393 0.880366H127.925H127.456H126.987C126.835 0.880366 126.675 0.880366 126.519 0.880366H126.05H125.742H125.418L125.003 0.824754H124.98L124.58 0.790527C124.717 0.790527 124.846 0.790527 124.983 0.790527H125.452C125.608 0.790527 125.764 0.790527 125.921 0.790527H126.378H126.846C127.003 0.790527 127.155 0.790527 127.315 0.790527H127.784H128.252H128.721H129.189H129.658C129.814 0.790527 129.967 0.790527 130.123 0.790527H130.237C139.186 2.19806 145.251 10.5063 144.226 21.3473Z" fill="url(#paint0_linear_3_295)"/>
<path d="M141.178 21.6813L103.215 295.657C101.824 305.694 95.5156 312.792 88.3572 313.292H88.1896H87.881H87.5724C87.4734 313.292 87.3667 313.292 87.2677 313.292H86.9591H86.6505H86.3419H86.0333H85.7286H85.4276C84.6042 313.268 83.7855 313.145 82.9856 312.924L26.774 297.206L26.6673 297.176L10.861 293.065C3.55404 291.174 -1.08994 281.034 0.380592 270.39L33.9057 28.4708L34.6028 23.1102C35.4029 16.9539 37.9896 11.405 41.3879 7.76857C41.6621 7.47338 41.9441 7.19102 42.2298 6.91293C42.4203 6.73325 42.6108 6.55784 42.8089 6.39099C43.007 6.22414 43.1898 6.06585 43.3994 5.90755C44.0746 5.37683 44.7898 4.91304 45.5366 4.52142C45.7461 4.41446 45.9594 4.31179 46.169 4.22195C47.3051 3.70902 48.5113 3.41958 49.7348 3.36631L122.976 0.658203L125.402 0.743766H125.559C125.719 0.743766 125.875 0.743766 126.027 0.743766C126.18 0.743766 126.343 0.743766 126.496 0.743766C126.648 0.743766 126.812 0.743766 126.964 0.743766H127.433C127.589 0.743766 127.745 0.743766 127.902 0.743766H128.37C137.014 0.983345 142.767 10.1558 141.178 21.6813Z" fill="url(#paint1_linear_3_295)"/>
<path d="M128.987 5.14145C128.776 4.97211 128.558 4.81504 128.332 4.67084C128.542 4.79919 128.763 4.95749 128.987 5.14145ZM127.845 4.37565C128.001 4.46122 128.149 4.55106 128.302 4.64946C128.229 4.61095 128.161 4.56389 128.092 4.52539L127.845 4.37565ZM125.848 3.54996C126.281 3.66891 126.707 3.82188 127.121 4.00773L127.395 4.14035C126.823 3.8573 126.227 3.63944 125.616 3.49006L125.848 3.54996ZM125.403 3.43873L125.273 3.41306L125.044 3.37027C125.239 3.40022 125.425 3.44728 125.616 3.49006H125.582L125.403 3.43873ZM127.612 4.25158H127.578L127.395 4.15746C127.544 4.23447 127.696 4.3072 127.841 4.38849L127.612 4.25158ZM124.564 3.29326H124.309L124.77 3.34888L125.044 3.39167C124.907 3.36172 124.77 3.34033 124.633 3.32321L124.564 3.29326ZM11.0935 290.284L11.2039 290.335H11.1849L11.0935 290.284ZM10.983 290.228H11.002L10.8954 290.177L10.983 290.228ZM10.842 290.155L10.8954 290.181L10.7811 290.121L10.842 290.155ZM8.84956 288.726C8.81484 288.697 8.78177 288.666 8.75052 288.632L8.84956 288.726ZM8.12573 287.991L8.25525 288.132L8.11811 287.978L8.12573 287.991ZM4.93322 282.258L5.02085 282.519L5.07799 282.681L4.98656 282.407C4.96752 282.369 4.95227 282.309 4.93322 282.258ZM3.86652 277.41V277.5C3.86652 277.41 3.84366 277.312 3.83604 277.218C3.85128 277.282 3.86271 277.351 3.86652 277.41ZM3.77508 276.482C3.77508 276.482 3.77508 276.512 3.77508 276.525C3.77325 276.505 3.77325 276.485 3.77508 276.465V276.482ZM3.75222 276.14C3.75036 276.151 3.75036 276.163 3.75222 276.174C3.75222 276.063 3.75223 275.943 3.72937 275.828C3.73699 275.952 3.7446 276.033 3.75222 276.14ZM125.403 0.794795C125.124 0.752013 124.846 0.726347 124.564 0.704956C124.458 0.704956 124.343 0.704956 124.229 0.704956C124.115 0.704956 123.936 0.704956 123.791 0.704956C123.646 0.704956 123.616 0.704956 123.524 0.704956H122.991L49.7463 3.43017C48.5226 3.48147 47.3161 3.77098 46.1805 4.28581C45.971 4.37993 45.7576 4.47833 45.5481 4.58956C44.799 4.97881 44.0824 5.44271 43.4071 5.9757C43.209 6.12543 43.0261 6.29229 42.8204 6.45914C42.6147 6.62599 42.4394 6.79711 42.2413 6.9768C41.9556 7.24632 41.6737 7.52868 41.3994 7.83244C38.0011 11.4689 35.4144 17.0177 34.6143 23.1698L33.9172 28.5432L2.47218 270.484C1.08546 281.128 5.3561 291.255 12.0992 293.129L26.6674 297.176L26.7741 297.206L82.9628 312.825C83.8597 313.078 84.7811 313.205 85.7058 313.202C92.6165 313.181 98.853 305.929 100.205 295.499L135.811 21.4842C137.22 10.6175 132.607 1.85579 125.403 0.794795ZM135.624 18.4295V18.9258C135.624 19.0969 135.624 19.2638 135.597 19.4306C135.571 19.5975 135.574 19.7729 135.563 19.9397C135.536 20.2521 135.51 20.5644 135.471 20.8852C135.451 21.0849 135.428 21.286 135.403 21.4885L135.144 23.4693L100.095 293.424C99.8214 295.553 99.3094 297.634 98.571 299.619C98.5177 299.764 98.4644 299.91 98.4072 300.046C98.3501 300.183 98.293 300.337 98.232 300.474C98.171 300.611 98.1444 300.688 98.0986 300.791C97.9615 301.103 97.8205 301.411 97.672 301.711C97.611 301.848 97.5424 301.98 97.4777 302.109C97.4129 302.237 97.2872 302.472 97.1882 302.652C97.0891 302.832 97.0586 302.891 96.99 303.007C96.9215 303.122 96.8491 303.255 96.7729 303.379C96.5748 303.717 96.3615 304.051 96.1405 304.376C96.0719 304.474 96.0033 304.577 95.9309 304.676C95.8586 304.774 95.771 304.902 95.6871 305.009C95.6033 305.116 95.5271 305.227 95.4433 305.334C95.3595 305.441 95.2795 305.548 95.1919 305.651C95.1042 305.754 95.0242 305.861 94.9328 305.963C94.7652 306.169 94.5861 306.365 94.4071 306.554C94.1328 306.849 93.8547 307.131 93.5652 307.409L93.3061 307.645C93.108 307.816 92.9251 307.983 92.7042 308.145L92.4375 308.35C92.1441 308.573 91.8432 308.778 91.5384 308.967C91.4394 309.035 91.3365 309.095 91.2336 309.155C91.0279 309.275 90.8184 309.386 90.6127 309.493L90.3041 309.647C89.9688 309.805 89.6298 309.946 89.2869 310.075C89.1984 310.112 89.1081 310.143 89.0164 310.169C88.9097 310.207 88.8031 310.241 88.6926 310.271L88.365 310.361C88.1211 310.421 87.8773 310.477 87.6297 310.52L87.3706 310.562C87.0468 310.614 86.723 310.644 86.3915 310.661H86.0487H85.6677C85.4429 310.661 85.222 310.661 84.9934 310.618H84.8639H84.8029H84.7724H84.9439H84.9934C85.0963 310.618 85.1991 310.618 85.302 310.618C85.3348 310.624 85.3683 310.624 85.401 310.618H86.163C86.2035 310.622 86.2443 310.622 86.2849 310.618H86.4068H86.502H86.6773C86.7801 310.618 86.8754 310.618 86.9744 310.579L87.2068 310.541L87.3592 310.511H87.4506L87.5383 310.49H87.5916C87.6369 310.483 87.6815 310.471 87.7249 310.455H87.7783H87.8164C88.0716 310.391 88.323 310.318 88.5783 310.233C88.6046 310.228 88.6303 310.22 88.6545 310.207H88.7002C88.7573 310.207 88.8107 310.169 88.864 310.143H88.925L89.1955 310.036L89.7021 309.805H89.7326C89.9079 309.715 90.0793 309.63 90.2507 309.531C90.4222 309.433 90.5822 309.339 90.7422 309.24C90.7534 309.244 90.7652 309.244 90.7765 309.24C91.0432 309.069 91.306 308.89 91.5689 308.693C91.6042 308.671 91.6374 308.645 91.6679 308.616C91.6832 308.608 91.6974 308.598 91.7099 308.586L91.767 308.543L91.8241 308.492C91.946 308.398 92.0641 308.299 92.1822 308.201C92.3003 308.102 92.4222 307.991 92.5365 307.884C93.1278 307.34 93.6794 306.743 94.1861 306.1L94.2928 305.959L94.3995 305.818C94.6852 305.441 94.9557 305.048 95.2147 304.637C95.39 304.363 95.5538 304.081 95.7176 303.781C95.7786 303.679 95.8357 303.567 95.8967 303.46L95.9576 303.345L96.1671 302.917L96.2472 302.759C96.2738 302.699 96.3043 302.643 96.3348 302.579C96.3652 302.515 96.3881 302.468 96.411 302.417C96.4612 302.319 96.507 302.22 96.5481 302.117C96.5623 302.088 96.5751 302.058 96.5862 302.027L96.6777 301.813C96.731 301.702 96.7843 301.582 96.83 301.463C96.8307 301.448 96.8307 301.434 96.83 301.42C96.8796 301.3 96.9253 301.184 96.971 301.06L97.1196 300.675C97.1653 300.547 97.2148 300.414 97.2605 300.282C97.3062 300.149 97.3482 300.021 97.3939 299.888C97.4396 299.756 97.4358 299.756 97.4586 299.687C97.4815 299.619 97.5005 299.554 97.5234 299.482L97.6034 299.221C97.6301 299.122 97.6605 299.02 97.691 298.917C97.7215 298.814 97.7558 298.69 97.7825 298.57C97.7852 298.554 97.7852 298.536 97.7825 298.519C97.8282 298.348 97.8739 298.173 97.9158 297.997C97.9577 297.822 98.0187 297.544 98.0682 297.317C98.1139 297.09 98.1596 296.863 98.2015 296.632C98.2434 296.401 98.2701 296.256 98.3006 296.063C98.3006 296.012 98.3006 295.957 98.3272 295.901C98.3615 295.674 98.3996 295.439 98.4263 295.208L133.963 21.6724C134.028 21.1548 134.085 20.6328 134.119 20.1237C134.216 18.8697 134.216 17.6086 134.119 16.3546C134.123 16.3407 134.123 16.3258 134.119 16.3118C134.119 16.1749 134.092 16.038 134.077 15.884C134.062 15.73 134.077 15.7043 134.05 15.6145C134.02 15.3706 133.99 15.1311 133.955 14.8958L133.841 14.207C133.818 14.0914 133.795 13.9759 133.776 13.8647C133.757 13.7535 133.727 13.6337 133.704 13.5224C133.706 13.4911 133.706 13.4597 133.704 13.4283C133.704 13.347 133.666 13.27 133.647 13.1887C133.628 13.1286 133.613 13.0672 133.601 13.0048C133.601 12.962 133.601 12.9192 133.567 12.8764L133.479 12.547C133.391 12.2219 133.292 11.9053 133.19 11.593C133.155 11.4946 133.121 11.3962 133.09 11.2978L133.037 11.1566C133.018 11.0967 132.995 11.0368 132.972 10.9812C132.934 10.8828 132.9 10.7844 132.858 10.686C132.782 10.4935 132.702 10.301 132.618 10.1127C132.576 10.0143 132.53 9.91592 132.485 9.81752C132.439 9.71912 132.393 9.62928 132.348 9.53944C132.326 9.48818 132.302 9.4382 132.275 9.3897C132.229 9.29558 132.18 9.20574 132.13 9.11162L132.028 8.9191L131.928 8.75225L131.89 8.6838C131.848 8.61107 131.807 8.53834 131.761 8.46561C131.752 8.44754 131.742 8.43036 131.73 8.41427C131.654 8.2902 131.574 8.16186 131.49 8.03779L131.399 7.89661L131.338 7.80677C131.308 7.7607 131.277 7.71643 131.243 7.67414L131.102 7.47307L130.991 7.32761L130.808 7.09231L130.706 6.96824C130.668 6.91691 130.626 6.86556 130.584 6.8185L130.435 6.64738L130.294 6.48908L130.241 6.43347L130.088 6.27517L129.917 6.09549L129.845 6.02704L129.681 5.86874L129.643 5.8388C129.574 5.77463 129.502 5.70617 129.429 5.64627C129.296 5.53076 129.166 5.42381 129.029 5.31257H129.003C128.792 5.14324 128.573 4.98617 128.347 4.84198C128.275 4.80347 128.206 4.75641 128.138 4.71791L127.89 4.56817L127.662 4.44838H127.627L127.445 4.35426C126.872 4.07121 126.276 3.85335 125.665 3.70397H125.631L125.452 3.66119L125.323 3.63552L125.094 3.59274C124.957 3.56279 124.82 3.5414 124.683 3.52429H124.614H124.359H124.202H123.913C123.692 3.52429 123.471 3.52429 123.242 3.52429L49.4911 6.06126C49.2968 6.06126 49.1101 6.06126 48.912 6.10832L48.6339 6.14255C42.7861 6.99819 37.3306 14.5022 36.1725 23.4222L3.92366 270.856C3.72415 272.373 3.65399 273.907 3.71414 275.438C3.71414 275.438 3.71414 275.464 3.71414 275.472C3.71414 275.592 3.71414 275.712 3.71414 275.828C3.71414 275.943 3.71414 276.033 3.71414 276.14C3.71227 276.151 3.71227 276.163 3.71414 276.174C3.71414 276.273 3.71413 276.367 3.73318 276.465C3.73318 276.465 3.73318 276.495 3.73318 276.508C3.7313 276.529 3.7313 276.551 3.73318 276.572C3.73318 276.645 3.73318 276.713 3.75222 276.786C3.75389 276.807 3.75389 276.829 3.75222 276.85C3.75222 276.85 3.75222 276.85 3.75222 276.876C3.75222 276.983 3.77127 277.094 3.78651 277.201C3.80175 277.308 3.78652 277.333 3.80556 277.393V277.483C3.80556 277.59 3.83223 277.693 3.84366 277.796C3.84366 277.902 3.87033 278.005 3.88938 278.108C3.90843 278.211 3.93509 278.442 3.96556 278.604C3.96556 278.668 3.98462 278.728 3.99605 278.788V278.878C3.99605 278.955 4.02271 279.036 4.03795 279.113C4.04207 279.145 4.04844 279.177 4.057 279.207C4.07605 279.319 4.0989 279.43 4.12176 279.541C4.14462 279.652 4.14843 279.665 4.15986 279.729C4.17129 279.793 4.20939 279.943 4.23225 280.046L4.26653 280.187C4.26653 280.247 4.2932 280.307 4.30463 280.362C4.31606 280.418 4.30463 280.401 4.30463 280.422L4.32749 280.508C4.32749 280.576 4.36178 280.641 4.37702 280.705L4.4494 280.979C4.54845 281.346 4.65893 281.714 4.77703 282.065C4.77703 282.121 4.81131 282.172 4.82655 282.219L4.91418 282.48L4.97132 282.643C5.44798 283.985 6.0753 285.253 6.83806 286.416C6.88758 286.493 6.94092 286.566 6.99044 286.639C7.20759 286.951 7.42856 287.25 7.66095 287.533L7.69523 287.576L7.73714 287.623L7.82096 287.725L7.97714 287.905L8.01144 287.939L8.14097 288.08C8.26288 288.209 8.38098 288.333 8.52194 288.457L8.56384 288.5C8.59812 288.525 8.62479 288.555 8.65908 288.585L8.75052 288.675L8.88385 288.795C9.00576 288.906 9.13148 289.017 9.26481 289.12L9.3372 289.176C9.44133 289.261 9.548 289.342 9.65721 289.419L9.73341 289.479L10.0572 289.698L10.141 289.749L10.1868 289.779C10.3468 289.881 10.5106 289.976 10.6782 290.065L10.7392 290.1L10.7925 290.125L10.8801 290.172H10.8992C10.9563 290.207 11.0173 290.232 11.082 290.262L10.9906 290.224L10.8839 290.181C10.6972 290.091 10.503 290.001 10.343 289.899C9.23732 289.262 8.23529 288.42 7.37903 287.409L7.18855 287.186C7.03236 286.994 6.87615 286.797 6.72757 286.592L6.52566 286.309C6.17898 285.821 5.85963 285.31 5.56944 284.778C5.51167 284.682 5.45826 284.584 5.40943 284.482C5.24943 284.187 5.09705 283.888 4.95228 283.58L4.81512 283.272L4.65893 282.912L4.51036 282.553L4.4113 282.309L4.2932 282.001C4.06462 281.381 3.8589 280.739 3.67604 280.084C3.64175 279.969 3.61127 279.849 3.5808 279.729C3.48174 279.366 3.39412 278.993 3.31411 278.613C3.28364 278.48 3.25316 278.343 3.2303 278.185C3.02173 277.15 2.8741 276.101 2.78838 275.045C2.78838 274.899 2.76552 274.754 2.75409 274.617C2.70457 273.877 2.68172 273.132 2.68934 272.379C2.68934 272.23 2.68934 272.076 2.68934 271.926C2.71477 270.85 2.79617 269.778 2.93315 268.713L34.6143 24.8554L34.8467 23.0714C34.8696 22.886 34.8963 22.702 34.9267 22.5195C34.9267 22.3826 34.9648 22.2457 34.9877 22.0917C35.0372 21.7879 35.0906 21.4927 35.1477 21.1975C35.1782 21.0435 35.2087 20.8852 35.2429 20.7355C35.2429 20.6542 35.2772 20.5729 35.2925 20.4916C35.3077 20.4104 35.3306 20.2991 35.3572 20.2007C35.3839 20.1023 35.4296 19.8927 35.4677 19.7344C35.5312 19.4663 35.5998 19.201 35.6734 18.9387C35.7077 18.806 35.7458 18.6777 35.7839 18.5493C35.8944 18.1557 36.0125 17.775 36.142 17.3942C36.1801 17.2744 36.2258 17.1546 36.2639 17.0349L36.4201 16.607L36.5573 16.2434C36.5916 16.1407 36.6297 16.0466 36.6678 15.9482L36.8087 15.5974L36.9192 15.3321C36.9763 15.2038 37.0259 15.0754 37.0868 14.9428C37.1821 14.7246 37.2849 14.515 37.3878 14.2754L37.5516 13.9374C37.6126 13.8091 37.6773 13.6807 37.7421 13.5524C38.1859 12.6712 38.6769 11.8211 39.2126 11.0069C39.2888 10.8914 39.3612 10.7801 39.4412 10.6689L39.7041 10.2881C39.8526 10.0871 39.9974 9.88598 40.146 9.68918L40.6374 9.07312C40.8051 8.87204 40.9727 8.67524 41.1441 8.48272L41.4032 8.19609C41.5746 8.0164 41.7499 7.83244 41.9289 7.65275C42.108 7.47307 42.2832 7.31049 42.4661 7.14364C42.6489 6.9768 42.847 6.8185 43.0147 6.66449L43.2966 6.43774C43.388 6.36074 43.4832 6.29229 43.5747 6.21956L43.8604 6.00992L44.1499 5.80457C44.3366 5.67623 44.5309 5.55215 44.729 5.43236L45.0071 5.26551C45.0158 5.26225 45.0251 5.26225 45.0338 5.26551L45.3157 5.10295C45.4109 5.06017 45.5024 5.00883 45.5938 4.95749L45.9138 4.80775L46.211 4.67513L46.5157 4.55106C46.6186 4.50827 46.7177 4.46977 46.8205 4.43555C47.0262 4.35854 47.2282 4.29009 47.4339 4.23447L47.7348 4.15319C47.9558 4.099 48.1768 4.05193 48.3977 4.012C48.573 3.98206 48.7482 3.96066 48.9235 3.93499L49.2435 3.90505H49.5635L123.437 1.29107H124.115C124.347 1.29107 124.576 1.29107 124.804 1.33813C124.923 1.33813 125.037 1.3638 125.147 1.38091C125.258 1.39803 125.38 1.41086 125.494 1.43225L125.829 1.49642L126.164 1.57343L126.492 1.66327L126.789 1.74884L126.854 1.77022C126.945 1.80445 127.041 1.8344 127.132 1.8729C127.224 1.91141 127.387 1.96703 127.513 2.02264L127.768 2.13387C127.959 2.21944 128.149 2.30928 128.336 2.41195C128.462 2.47185 128.584 2.54458 128.717 2.61731C128.85 2.69004 128.892 2.72426 128.984 2.77988C129.075 2.8355 129.174 2.90395 129.273 2.96812L129.555 3.16492C130.232 3.65502 130.859 4.22904 131.422 4.8762C131.495 4.95179 131.565 5.03176 131.631 5.11578C131.885 5.41262 132.126 5.72391 132.351 6.04843C132.454 6.18961 132.553 6.33934 132.645 6.47625C133.047 7.0907 133.405 7.74019 133.715 8.41855C133.776 8.54262 133.833 8.66241 133.883 8.78648C133.997 9.04317 134.104 9.30414 134.207 9.56939C134.26 9.70629 134.31 9.83892 134.355 9.97582C134.443 10.2068 134.523 10.4464 134.595 10.6817C134.633 10.8015 134.671 10.9256 134.706 11.0454C134.771 11.2764 134.839 11.5074 134.896 11.747C134.927 11.8582 134.957 11.9737 134.98 12.0935C135.079 12.4871 135.163 12.8893 135.235 13.3C135.258 13.4084 135.277 13.5153 135.292 13.6208C135.361 14.0487 135.418 14.4465 135.468 14.8658C135.487 15.0284 135.502 15.1824 135.513 15.3364C135.602 16.2627 135.639 17.1943 135.624 18.1258C135.628 18.2199 135.628 18.3226 135.624 18.4295Z" fill="#C7C7C7"/>
<path d="M11.2687 290.365L10.9906 290.241C10.8077 290.155 10.6096 290.057 10.4458 289.958C9.33106 289.322 8.32101 288.477 7.45903 287.46L7.27236 287.242C7.11616 287.045 6.96377 286.852 6.81138 286.647L6.60947 286.365C6.26442 285.875 5.94391 285.363 5.64944 284.833L5.48943 284.542C5.33323 284.247 5.18466 283.943 5.03989 283.635C4.99036 283.537 4.94465 283.434 4.89893 283.327L4.74274 282.968L4.59416 282.604C4.55988 282.527 4.52559 282.446 4.49511 282.365C4.46463 282.283 4.41511 282.159 4.38082 282.052C4.1497 281.436 3.94271 280.799 3.75985 280.14C3.72556 280.025 3.69508 279.905 3.6646 279.789C3.56555 279.421 3.47793 279.049 3.39792 278.673C3.36745 278.536 3.33696 278.399 3.3103 278.245C3.10514 277.211 2.95881 276.164 2.87219 275.109C2.87219 274.959 2.84552 274.814 2.8379 274.681C2.78838 273.945 2.76552 273.197 2.77314 272.444C2.77314 272.294 2.77314 272.14 2.77314 271.99C2.80031 270.915 2.88171 269.842 3.01696 268.777L34.6982 24.9196C36.0011 14.8829 42.2299 6.48909 48.8244 5.79602C42.8889 6.47625 37.2811 14.0615 36.1039 23.1099L3.91985 270.856C2.78457 279.61 6.00755 287.978 11.2687 290.365Z" fill="url(#paint2_linear_3_295)"/>
<path d="M135.129 23.4694L100.08 293.424C99.8062 295.553 99.2942 297.634 98.5558 299.619C98.5025 299.764 98.4491 299.91 98.392 300.047C98.3348 300.184 98.2777 300.329 98.2167 300.474C98.1558 300.62 98.1291 300.688 98.0834 300.791C97.9463 301.103 97.8053 301.411 97.6605 301.711C97.592 301.843 97.5272 301.98 97.4624 302.109C97.3977 302.237 97.2719 302.472 97.1729 302.652C97.0738 302.832 97.0434 302.892 96.9748 303.007C96.9062 303.123 96.8338 303.255 96.7576 303.379C96.5557 303.717 96.3462 304.051 96.1252 304.372C96.0567 304.475 95.9881 304.577 95.9157 304.676C95.8433 304.774 95.7557 304.898 95.6719 305.009C95.5881 305.121 95.5081 305.232 95.4281 305.334C95.3481 305.437 95.2604 305.548 95.1766 305.651C95.0928 305.754 95.0052 305.861 94.9176 305.963C94.7474 306.169 94.5722 306.366 94.3918 306.554C94.1175 306.849 93.8394 307.127 93.5499 307.409L93.2908 307.64C93.0927 307.816 92.9099 307.983 92.6889 308.15L92.4222 308.351C92.1289 308.573 91.8279 308.778 91.5231 308.967C91.4241 309.031 91.3212 309.091 91.2184 309.151C91.0127 309.275 90.8069 309.386 90.5974 309.493C90.4945 309.544 90.3917 309.6 90.2888 309.643C89.9574 309.807 89.6178 309.95 89.2716 310.07C89.1802 310.109 89.0926 310.135 89.0011 310.165C88.9097 310.194 88.7878 310.237 88.6773 310.267L88.3497 310.357C88.1059 310.417 87.8621 310.473 87.6144 310.515L87.3554 310.558C87.0315 310.609 86.7039 310.639 86.3763 310.657H86.0334H85.6525C85.4277 310.657 85.2029 310.635 84.9781 310.614L84.6353 310.571C91.1117 311.328 97.1881 304.727 98.4415 295.062L133.978 21.5313C135.254 11.6915 130.892 3.78537 124.21 3.26343C131.654 3.74259 136.55 12.53 135.129 23.4694Z" fill="url(#paint3_linear_3_295)"/>
<path d="M100.061 293.415L99.8016 295.396C98.3158 306.836 90.746 314.379 83.039 312.239L12.1792 292.585C5.63802 290.771 1.47405 280.906 2.81505 270.57L3.04745 268.781C2.9122 269.846 2.83079 270.919 2.80362 271.994C2.80362 272.144 2.80362 272.298 2.80362 272.448C2.80362 273.201 2.80363 273.95 2.86839 274.685C2.86839 274.831 2.86839 274.976 2.90268 275.113C2.9893 276.168 3.13563 277.215 3.34079 278.249C3.36746 278.386 3.39794 278.523 3.42842 278.677C3.50842 279.053 3.59603 279.426 3.69509 279.794C3.72556 279.909 3.75604 280.029 3.79033 280.144C3.97319 280.803 4.18019 281.441 4.41131 282.057C4.44559 282.164 4.48749 282.266 4.52559 282.369C4.56369 282.472 4.59036 282.532 4.62465 282.609L4.77323 282.972L4.92941 283.332C4.97513 283.439 5.02086 283.541 5.07038 283.64C5.21515 283.948 5.36372 284.251 5.51992 284.547L5.67992 284.838C5.97439 285.368 6.29491 285.879 6.63996 286.369L6.84188 286.652C6.99426 286.857 7.14665 287.049 7.30284 287.246L7.48951 287.464C8.34493 288.478 9.34709 289.321 10.4534 289.959C10.6325 290.057 10.8154 290.155 10.9982 290.241C11.1849 290.327 11.3792 290.408 11.562 290.485L11.8554 290.596C12.0383 290.66 12.2364 290.72 12.4116 290.771L83.2981 310.289C83.5165 310.349 83.7337 310.4 83.9496 310.443L84.2962 310.507C84.4829 310.537 84.6772 310.562 84.8525 310.58H84.982C85.2067 310.605 85.4315 310.618 85.6563 310.622H86.0373H86.3801C86.7077 310.622 87.0354 310.575 87.3592 310.524L87.6183 310.481C87.8659 310.438 88.1097 310.383 88.3535 310.323L88.6812 310.233C88.7916 310.203 88.8983 310.169 89.005 310.13C89.1116 310.092 89.184 310.075 89.2755 310.036C89.6216 309.916 89.9612 309.773 90.2926 309.608C90.3955 309.566 90.4984 309.514 90.6012 309.459C90.8108 309.352 91.0165 309.24 91.2222 309.116C91.3251 309.061 91.4279 308.997 91.527 308.932C91.8317 308.74 92.1327 308.539 92.4261 308.316L92.6927 308.115C92.8946 307.948 93.0966 307.782 93.2947 307.606C93.3823 307.533 93.4661 307.456 93.5537 307.375C93.8433 307.106 94.1214 306.828 94.3957 306.52C94.5747 306.331 94.7538 306.134 94.9214 305.929C95.009 305.826 95.0966 305.724 95.1805 305.617C95.2643 305.51 95.3519 305.411 95.4319 305.3C95.5119 305.189 95.5995 305.086 95.6757 304.975C95.7519 304.864 95.8395 304.757 95.9195 304.641C95.9995 304.526 96.0605 304.44 96.1291 304.338C96.35 304.017 96.5595 303.683 96.7615 303.345C96.8376 303.22 96.91 303.096 96.9786 302.973C97.0472 302.857 97.112 302.738 97.1767 302.618C97.2415 302.498 97.371 302.258 97.4663 302.074C97.5615 301.89 97.5996 301.813 97.6644 301.677C97.8091 301.377 97.9501 301.069 98.0872 300.757C98.1329 300.654 98.1787 300.547 98.2206 300.44C98.2625 300.333 98.3387 300.158 98.3958 300.012C98.453 299.867 98.5063 299.726 98.5596 299.585C99.2883 297.607 99.7926 295.534 100.061 293.415Z" fill="url(#paint4_linear_3_295)"/>
<path d="M135.388 21.4885L135.129 23.4693C136.527 12.7011 131.81 4.01635 124.553 3.27622L124.206 3.24628H123.852C123.631 3.24628 123.414 3.24628 123.185 3.24628L49.434 5.78753C49.2397 5.78753 49.053 5.78753 48.8549 5.82603C42.2604 6.5191 36.0315 14.9129 34.7286 24.9496L34.961 23.1613C34.9839 22.9759 35.0105 22.792 35.041 22.6094C35.041 22.4725 35.0791 22.3356 35.102 22.1816C35.1515 21.8821 35.201 21.5827 35.262 21.2875L35.3534 20.8254C35.3725 20.7441 35.3877 20.6671 35.4068 20.5815C35.4258 20.496 35.4487 20.389 35.4715 20.2906C35.4944 20.1922 35.5439 19.9826 35.582 19.8286C35.6468 19.5591 35.7153 19.2938 35.7877 19.0286C35.822 18.8959 35.8601 18.7676 35.8982 18.6392C36.0087 18.2457 36.1268 17.8649 36.2563 17.4841C36.2982 17.3643 36.3401 17.2445 36.3782 17.1248C36.4163 17.005 36.4811 16.8296 36.5344 16.6969L36.6716 16.3376C36.7097 16.2392 36.744 16.1408 36.7859 16.0424L36.923 15.6873C36.9611 15.5974 36.9954 15.5119 37.0335 15.4263L37.2011 15.0413C37.2964 14.8145 37.3992 14.5921 37.5021 14.3696C37.5554 14.2584 37.6087 14.1471 37.6659 14.0359C37.723 13.9247 37.7916 13.7749 37.8564 13.6466C38.3002 12.7654 38.7912 11.9153 39.3269 11.1011C39.4031 10.9898 39.4755 10.8743 39.5555 10.7631C39.6355 10.6518 39.7269 10.5107 39.8184 10.3866C39.9631 10.1812 40.1117 9.98017 40.2603 9.78337L40.7517 9.16731C40.9194 8.96623 41.087 8.76943 41.2584 8.57691L41.5175 8.29455C41.6889 8.10631 41.8641 7.92663 42.0432 7.74694C42.2223 7.56726 42.3975 7.40469 42.5804 7.23784C42.7632 7.07099 42.9613 6.91269 43.129 6.75868L43.4109 6.53193C43.5023 6.45493 43.5975 6.38648 43.689 6.31375L43.9747 6.10411L44.2642 5.89876C44.4547 5.77042 44.6452 5.64634 44.8433 5.52656L45.1214 5.35971H45.1481L45.43 5.20569L45.7081 5.05596L46.0281 4.90622L46.3253 4.77359L46.63 4.64953C46.7291 4.60675 46.8319 4.56824 46.9348 4.53402C47.1367 4.45701 47.3425 4.39283 47.5482 4.33294L47.8529 4.25165C48.0701 4.19604 48.2911 4.14897 48.512 4.11047C48.733 4.07197 48.8625 4.05486 49.0339 4.03347L49.3578 4.00352H49.6778L123.437 1.29114H124.115C124.347 1.29114 124.576 1.29114 124.804 1.33392L125.147 1.3767L125.49 1.43232C125.604 1.43232 125.719 1.4751 125.829 1.49649L126.161 1.5735L126.488 1.66334L126.785 1.75318H126.85C126.942 1.78741 127.037 1.81736 127.128 1.85586C127.22 1.89437 127.387 1.94998 127.509 2.0056L127.765 2.11683C127.955 2.20239 128.146 2.29652 128.328 2.39491C128.458 2.45481 128.58 2.52754 128.709 2.60027C128.839 2.673 128.888 2.70722 128.976 2.76284C129.064 2.81846 129.17 2.88263 129.266 2.95108L129.547 3.14788C130.226 3.63663 130.852 4.21078 131.414 4.85916C131.489 4.93364 131.559 5.01368 131.624 5.09873C131.875 5.39393 132.115 5.70624 132.344 6.03139C132.447 6.17685 132.546 6.3223 132.641 6.45921C133.041 7.07477 133.397 7.72414 133.708 8.40151C133.769 8.52557 133.822 8.64536 133.875 8.76943C133.993 9.0304 134.1 9.29137 134.199 9.55234C134.252 9.68497 134.302 9.82187 134.348 9.95877C134.435 10.1898 134.511 10.4294 134.588 10.6647C134.626 10.7887 134.66 10.9085 134.698 11.0283C134.763 11.2593 134.831 11.4904 134.889 11.7299C134.919 11.8455 134.95 11.9567 134.972 12.0765C135.071 12.4701 135.155 12.8722 135.231 13.2829C135.231 13.3899 135.266 13.4968 135.285 13.6038C135.353 14.0316 135.411 14.4295 135.456 14.853C135.456 15.0071 135.494 15.1611 135.506 15.3194C135.592 16.2459 135.63 17.1772 135.62 18.1087C135.62 18.2071 135.62 18.3098 135.62 18.4168C135.62 18.5237 135.62 18.7505 135.62 18.9173C135.62 19.0842 135.62 19.251 135.593 19.4222C135.567 19.5933 135.571 19.7644 135.559 19.9313C135.532 20.2479 135.502 20.5602 135.468 20.8767C135.442 21.085 135.416 21.2889 135.388 21.4885Z" fill="url(#paint5_linear_3_295)"/>
<path d="M123.852 3.22913C123.635 3.22913 123.414 3.22913 123.185 3.22913L49.434 5.77038C49.2397 5.77038 49.053 5.77038 48.8549 5.80888C42.8889 6.47628 37.2811 14.0615 36.1039 23.1099L3.91985 270.856C2.77695 279.764 6.12184 288.273 11.5392 290.485L11.8325 290.596C12.0154 290.66 12.2135 290.72 12.3887 290.771L83.2752 310.289C83.4937 310.348 83.7108 310.4 83.9267 310.443L84.2734 310.507C90.887 311.542 97.1462 304.881 98.4225 295.045L133.959 21.5142C135.273 11.5032 130.732 3.49437 123.852 3.22913ZM97.3672 294.776C96.2243 303.662 90.5098 309.874 84.4372 308.932C84.3305 308.932 84.22 308.898 84.1096 308.872C83.9115 308.834 83.7286 308.787 83.5114 308.731L12.6135 289.33C12.4383 289.283 12.2668 289.227 12.0954 289.167L11.8325 289.069C6.83806 287.045 3.78651 279.156 4.83417 271.1L37.0335 23.1099C38.1078 14.8402 43.1937 7.88381 48.6834 7.25919H48.7101C48.8854 7.25919 49.0644 7.22924 49.2435 7.22497L122.98 4.79495C123.185 4.79495 123.391 4.79495 123.593 4.79495C129.928 5.0602 134.012 12.4101 132.828 21.5313L97.3672 294.776Z" fill="#404040"/>
<path d="M132.828 21.6425L97.3329 294.878C97.1185 296.509 96.735 298.106 96.19 299.636C95.7908 300.778 95.2918 301.873 94.7004 302.904C94.5823 303.11 94.4566 303.311 94.3195 303.503C94.129 303.799 93.9385 304.081 93.7366 304.359C93.1889 305.111 92.5778 305.801 91.9117 306.421C93.3731 303.874 94.3246 301.002 94.7004 298.002L95.1081 294.857C95.1385 294.673 95.1652 294.485 95.1881 294.297L130.618 21.6511C130.641 21.4585 130.664 21.266 130.683 21.0778L131.083 18.0018C131.506 15.0436 131.328 12.0165 130.565 9.14587C132.549 12.2133 133.475 16.6926 132.828 21.6425Z" fill="url(#paint6_linear_3_295)"/>
<path d="M123.349 6.35657H123.3C123.128 6.35657 122.953 6.35657 122.778 6.35657L49.053 8.67108C48.8968 8.67108 48.7406 8.67107 48.5882 8.69674H48.5425H48.5196C43.5671 9.27002 38.9345 15.5847 37.9592 23.0843L5.71421 271.314C4.7618 278.647 7.53522 285.804 12.0725 287.635L12.2897 287.717H12.3164C12.4688 287.768 12.6249 287.819 12.7811 287.862L83.6981 307.183C83.8772 307.23 84.0562 307.268 84.2353 307.302H84.2696C84.3575 307.324 84.4466 307.34 84.5362 307.349C90.0412 308.205 95.2033 302.554 96.2624 294.515L131.723 21.5656C132.797 13.2701 129.094 6.6047 123.349 6.35657ZM93.4204 293.766C93.1399 296.147 92.2716 298.392 90.9136 300.248C90.845 300.337 90.7765 300.419 90.7079 300.504C90.5023 300.758 90.2848 300.999 90.0564 301.227C89.8583 301.424 89.6526 301.612 89.4431 301.784C89.1829 301.996 88.9106 302.189 88.6278 302.361C88.3534 302.528 88.0681 302.671 87.7745 302.789C87.6297 302.853 87.4849 302.904 87.3363 302.956C87.1898 303.007 87.041 303.05 86.8906 303.084C86.5881 303.157 86.2812 303.204 85.9725 303.225C85.5986 303.246 85.2239 303.23 84.8524 303.178H84.7496H84.7001H84.6658H84.6315H84.5362H84.4372L84.2391 303.131L13.2764 284.08L13.105 284.029L12.9335 283.969H12.9107H12.884H12.8421L12.7545 283.931C9.42101 282.6 7.37522 277.346 8.0762 271.952L40.405 23.0843C41.1175 17.6082 44.4776 13.0006 48.1006 12.5386H48.1615H48.2568C48.357 12.5327 48.4575 12.5327 48.5577 12.5386L122.241 10.515H122.667C122.692 10.5107 122.718 10.5107 122.743 10.515C122.82 10.5177 122.896 10.5248 122.972 10.5364H123.075L123.277 10.5663C123.361 10.5663 123.441 10.592 123.521 10.6091C123.636 10.6296 123.75 10.6567 123.863 10.6904L123.928 10.7118L124.203 10.8016L124.583 10.9642C124.689 11.0071 124.792 11.0571 124.892 11.1139C125.003 11.1698 125.111 11.2327 125.216 11.3022C125.431 11.4276 125.637 11.5706 125.833 11.73C126.013 11.8773 126.186 12.0359 126.351 12.2049C126.386 12.2469 126.423 12.2869 126.462 12.3247L126.664 12.5471C126.751 12.6455 126.831 12.7525 126.915 12.8594C127.075 13.0776 127.231 13.2873 127.376 13.5397C127.454 13.6564 127.524 13.7794 127.585 13.9076C127.654 14.0331 127.719 14.1614 127.78 14.2926C128.041 14.8292 128.255 15.3939 128.416 15.9782C128.504 16.282 128.572 16.5943 128.637 16.9109C128.702 17.2275 128.751 17.5526 128.793 17.8906C128.812 18.0575 128.827 18.2243 128.843 18.3912C128.869 18.7634 128.888 19.1356 128.888 19.5163C128.888 19.6703 128.888 19.8201 128.888 19.9741C128.876 20.5269 128.834 21.0783 128.763 21.6255L93.4204 293.766Z" fill="black"/>
<path d="M59.4986 17.0447C59.4986 16.9717 59.4723 16.9029 59.461 16.8299C59.4595 16.8042 59.4595 16.7783 59.461 16.7526C59.4647 16.8514 59.4798 16.9502 59.4986 17.0447Z" fill="black"/>
<path d="M108.605 15.636C108.592 15.6638 108.581 15.6923 108.571 15.7215C108.537 15.7943 108.506 15.8713 108.469 15.9483L108.605 15.636Z" fill="black"/>
<path d="M110.914 10.7673C110.267 10.8315 109.657 11.5545 109.474 12.4786C109.474 12.5599 109.448 12.6412 109.436 12.7225C109.383 13.0562 109.314 13.3899 109.234 13.7193C109.204 13.8348 109.177 13.946 109.147 14.0573C109.109 14.1942 109.07 14.3268 109.029 14.4594C108.987 14.592 108.952 14.699 108.914 14.8188L108.884 14.9044L108.853 14.9942C108.853 15.0199 108.853 15.0413 108.827 15.0669C108.81 15.1058 108.796 15.1458 108.785 15.1867C108.766 15.2295 108.75 15.2766 108.731 15.3193C108.693 15.4306 108.648 15.5375 108.606 15.6445L108.469 15.9568C108.471 15.971 108.471 15.9854 108.469 15.9996C108.43 16.0894 108.389 16.175 108.347 16.2606C108.305 16.3461 108.274 16.4103 108.236 16.483C108.226 16.5081 108.215 16.5324 108.202 16.5557L108.141 16.667C108.117 16.7184 108.09 16.7683 108.061 16.8167V16.8595C108.051 16.8793 108.04 16.8979 108.027 16.9151C108.008 16.9493 107.992 16.9836 107.973 17.0135C107.954 17.0435 107.931 17.0905 107.909 17.1247L107.855 17.2189L107.821 17.2702L107.756 17.3814C107.742 17.4074 107.725 17.4318 107.707 17.4542C107.687 17.4952 107.664 17.5339 107.638 17.5697V17.5953C107.638 17.5953 107.638 17.5953 107.638 17.6167L107.562 17.7365L107.531 17.7836L107.444 17.9119L107.329 18.0702C107.296 18.1267 107.257 18.1797 107.215 18.2285C107.193 18.263 107.169 18.2959 107.143 18.3269C107.116 18.3646 107.086 18.4003 107.055 18.4339C107.032 18.4711 107.005 18.5055 106.975 18.5366C106.929 18.5981 106.879 18.6567 106.827 18.712C106.792 18.7607 106.753 18.8064 106.712 18.8489L106.64 18.9301L106.468 19.1141L106.301 19.2852L106.198 19.3836C106.16 19.423 106.121 19.4601 106.08 19.4949L105.966 19.5975L105.912 19.6489L105.718 19.8115C105.669 19.857 105.616 19.8985 105.562 19.9355C105.5 19.9884 105.435 20.037 105.367 20.081L105.291 20.1409L105.147 20.2393C105.105 20.2703 105.061 20.2989 105.017 20.3248C104.979 20.3516 104.939 20.3759 104.899 20.3976L104.838 20.4361L104.785 20.466C104.682 20.5259 104.587 20.5815 104.484 20.6286C104.381 20.6757 104.297 20.7227 104.206 20.7612C104.114 20.7997 104 20.8511 103.901 20.8853C103.697 20.9619 103.49 21.0248 103.28 21.0735C103.196 21.0735 103.108 21.112 103.021 21.1249H102.967L102.746 21.1505L102.495 21.1762H102.32L63.9069 21.8393H63.8345C63.7583 21.8393 63.6821 21.8393 63.6059 21.8393C63.5399 21.8434 63.4738 21.8434 63.4078 21.8393H63.3621C63.2859 21.8393 63.2097 21.8137 63.1335 21.8008C62.9556 21.7583 62.78 21.704 62.6078 21.6382C62.5202 21.6083 62.4402 21.5698 62.3525 21.5313L62.1278 21.4115C62.0478 21.3687 61.9716 21.3174 61.8916 21.266L61.8497 21.2361L61.8039 21.2019C61.7716 21.184 61.741 21.1625 61.7125 21.1377L61.6135 21.0607L61.5068 20.9666C61.4872 20.952 61.4693 20.9347 61.4535 20.9152C61.4017 20.876 61.3533 20.8316 61.3087 20.7826C61.2682 20.7487 61.2312 20.71 61.1982 20.6671L61.0573 20.5174C61.044 20.5035 61.0325 20.4876 61.023 20.4703C60.9922 20.4422 60.9641 20.4107 60.9392 20.3762C60.9093 20.344 60.8813 20.3097 60.8553 20.2735L60.7868 20.1837L60.6763 20.0254L60.562 19.8542L60.5163 19.7815C60.4899 19.7404 60.4657 19.6975 60.4439 19.6532C60.409 19.6007 60.3784 19.5449 60.3525 19.4863C60.3329 19.4586 60.3163 19.4285 60.3029 19.3965C60.2839 19.3622 60.2648 19.3323 60.2496 19.2981C60.2334 19.268 60.2194 19.2365 60.2077 19.2039C60.1933 19.1801 60.1817 19.1542 60.1734 19.1269C60.1391 19.0499 60.1048 18.9772 60.0743 18.9002C60.0561 18.8618 60.0408 18.8217 60.0286 18.7804C60.02 18.7676 60.0136 18.7531 60.0096 18.7376C60.0096 18.7034 59.9829 18.6649 59.9677 18.6264V18.605C59.9693 18.5965 59.9693 18.5878 59.9677 18.5793C59.9524 18.5469 59.9409 18.5124 59.9334 18.4767C59.9222 18.4535 59.9133 18.4292 59.9067 18.4039C59.9067 18.3754 59.8953 18.3412 59.8724 18.3012C59.8703 18.2857 59.8703 18.2698 59.8724 18.2542C59.8606 18.2264 59.8505 18.1979 59.842 18.1686C59.842 18.1344 59.8229 18.1002 59.8115 18.0617C59.8001 18.0232 59.8115 18.0061 59.7848 17.9718C59.786 17.9533 59.786 17.9347 59.7848 17.9162C59.7848 17.9162 59.7848 17.8905 59.7848 17.8777C59.7693 17.8317 59.7566 17.7845 59.7467 17.7365C59.7467 17.7023 59.7277 17.6724 59.7201 17.6338C59.7218 17.6111 59.7218 17.5882 59.7201 17.5654C59.7201 17.5012 59.6896 17.4285 59.6743 17.3558C59.6591 17.283 59.6401 17.1975 59.6248 17.1162V17.0948C59.6227 17.0806 59.6227 17.0662 59.6248 17.052C59.6058 16.9579 59.5905 16.8595 59.5791 16.7611C59.5677 16.6627 59.5486 16.56 59.541 16.4531C59.5391 16.4117 59.5391 16.3703 59.541 16.329V16.2135C59.5388 16.1922 59.5388 16.1706 59.541 16.1493V16.0637C59.541 16.0381 59.541 16.0081 59.541 15.9867C59.541 15.8712 59.541 15.76 59.522 15.6445C59.5029 15.529 59.522 15.3921 59.522 15.2637C59.522 15.1611 59.522 15.0541 59.522 14.9429C59.5261 14.6282 59.5451 14.314 59.5791 14.0017C59.5832 13.9228 59.5908 13.8443 59.602 13.7664C59.6553 12.9107 59.2743 12.2476 58.7067 12.2176L110.914 10.7673Z" fill="black"/>
<path d="M63.5865 21.8693C63.6626 21.8693 63.7386 21.8693 63.8147 21.8693H63.6854H63.5523H63.404C63.4648 21.8727 63.5257 21.8727 63.5865 21.8693Z" fill="black"/>
<path d="M102.852 21.1676H102.689C102.639 21.174 102.59 21.174 102.54 21.1676H102.4L102.651 21.142L102.852 21.1676Z" fill="black"/>
<path d="M59.4154 16.443C59.4175 16.4064 59.4175 16.3698 59.4154 16.3333C59.4138 16.3698 59.4138 16.4064 59.4154 16.443Z" fill="black"/>
<path d="M59.4986 17.0447C59.4986 16.9717 59.4723 16.9029 59.461 16.8299C59.4595 16.8042 59.4595 16.7783 59.461 16.7526C59.4647 16.8514 59.4798 16.9502 59.4986 17.0447Z" fill="black"/>
<path d="M59.9622 18.7285C59.9437 18.6902 59.929 18.6433 59.9105 18.5964V18.6177C59.9364 18.6561 59.9474 18.6944 59.9622 18.7285Z" fill="black"/>
<path d="M60.131 19.1184C60.1066 19.0731 60.085 19.0259 60.0665 18.9772C60.0524 18.9495 60.0397 18.921 60.0286 18.8916C60.0628 18.9686 60.0969 19.0414 60.131 19.1184Z" fill="black"/>
<path d="M60.2102 19.2891C60.1926 19.2598 60.1777 19.2284 60.1658 19.1954C60.1783 19.228 60.1931 19.2594 60.2102 19.2891Z" fill="black"/>
<path d="M60.7487 20.1751C60.7106 20.1281 60.6725 20.0724 60.6382 20.0211C60.6136 19.9894 60.5919 19.955 60.5734 19.9184C60.5548 19.8961 60.5383 19.8717 60.5239 19.8457L60.6382 20.0168L60.7487 20.1751Z" fill="black"/>
<path d="M60.8172 20.2649C60.8424 20.3006 60.8695 20.3344 60.8985 20.3661L60.8727 20.3408L60.8172 20.2649Z" fill="black"/>
<path d="M61.1724 20.6606L61.0904 20.5805L61.0382 20.5173L61.1724 20.6606Z" fill="black"/>
<path d="M62.1098 21.3993C62.0447 21.3606 61.9758 21.3262 61.9108 21.279L61.8725 21.2532C61.9376 21.3219 62.0294 21.3735 62.1098 21.3993Z" fill="black"/>
<path d="M62.3178 21.5356C62.4053 21.5741 62.4852 21.6126 62.5726 21.6425C62.5142 21.6242 62.457 21.6013 62.4015 21.5741L62.3178 21.5398L62.2076 21.4799C62.1681 21.462 62.1299 21.4406 62.0935 21.4158L62.3178 21.5356Z" fill="black"/>
<path d="M63.1145 21.8265C63.1907 21.8265 63.2669 21.8564 63.3431 21.865C63.275 21.8602 63.2074 21.8487 63.1412 21.8308C63.1412 21.8308 63.1221 21.8308 63.1145 21.8308L63.0269 21.8051C62.9663 21.794 62.9065 21.7782 62.8478 21.758L62.623 21.681H62.5887C62.7613 21.741 62.9369 21.7895 63.1145 21.8265Z" fill="black"/>
<path d="M63.5844 21.8693H63.498H63.404C63.4641 21.8727 63.5243 21.8727 63.5844 21.8693Z" fill="black"/>
<path d="M102.32 21.2233H102.24L63.9793 21.8864H63.9069L102.32 21.2233Z" fill="black"/>
<path d="M102.632 21.1934L102.854 21.1676H102.747H102.651L102.632 21.1934Z" fill="black"/>
<path d="M103.165 21.1078C103.376 21.0591 103.583 20.9962 103.786 20.9196L103.741 20.9409L103.474 21.0265C103.407 21.0511 103.338 21.0697 103.268 21.0821L103.165 21.1121H103.135C103.059 21.1121 102.983 21.1463 102.906 21.1549C102.994 21.1463 103.082 21.1249 103.165 21.1078Z" fill="black"/>
<path d="M104.369 20.6628C104.323 20.6914 104.275 20.7157 104.225 20.7356L104.091 20.7997L103.988 20.8425L103.786 20.9195C103.886 20.8853 103.988 20.8425 104.091 20.7955C104.194 20.7484 104.274 20.7099 104.369 20.6628Z" fill="black"/>
<path d="M104.369 20.6628C104.472 20.6158 104.567 20.5601 104.67 20.5002L104.606 20.543C104.529 20.5875 104.45 20.6275 104.369 20.6628Z" fill="black"/>
<path d="M105.623 19.8365L105.814 19.6746L105.743 19.7427L105.623 19.8365Z" fill="black"/>
<path d="M106.105 19.405L106.022 19.4902L105.988 19.5158C106.029 19.4812 106.068 19.4442 106.105 19.405Z" fill="black"/>
<path d="M106.549 18.9515L106.476 19.0328L106.377 19.1398C106.32 19.1954 106.267 19.2553 106.209 19.3066L106.377 19.1355L106.549 18.9515Z" fill="black"/>
<path d="M107.124 18.2499C107.102 18.2841 107.078 18.3165 107.051 18.3468C107.076 18.3163 107.099 18.2839 107.121 18.2499H107.124Z" fill="black"/>
<path d="M107.361 17.9248L107.298 18.0133L107.246 18.0807L107.358 17.9248H107.361Z" fill="black"/>
<path d="M107.576 17.6082L107.482 17.7481L107.557 17.6294C107.557 17.6294 107.568 17.6166 107.576 17.6082Z" fill="black"/>
<path d="M108.605 15.636C108.592 15.6638 108.581 15.6923 108.571 15.7215C108.537 15.7943 108.506 15.8713 108.469 15.9483L108.605 15.636Z" fill="black"/>
<path d="M108.795 15.1782L108.75 15.298C108.75 15.2681 108.765 15.221 108.795 15.1782Z" fill="black"/>
<path d="M95.0814 294.857L94.7004 298.002C94.3323 300.995 93.3913 303.863 91.9422 306.408C89.7517 308.432 87.123 309.403 84.4296 309.009C84.3194 308.995 84.21 308.973 84.1019 308.945C83.9038 308.911 83.721 308.864 83.5038 308.808L12.5868 289.398C12.4154 289.351 12.2402 289.295 12.0725 289.236L11.8059 289.137C11.684 289.086 11.557 289.03 11.4249 288.97C9.35626 287.999 7.64571 286.006 6.47234 283.409C5.90307 280.638 5.80099 277.772 6.17137 274.959L6.60568 271.609C6.11042 275.434 6.74282 279.207 8.1562 282.014C9.17719 284.05 10.6134 285.582 12.3278 286.271C12.3816 286.299 12.4377 286.32 12.4954 286.335H12.5183H12.5449C12.6821 286.386 12.8231 286.429 12.964 286.468L83.8962 305.685C84.0524 305.728 84.2162 305.762 84.3762 305.792H84.4105H84.4372C84.5099 305.811 84.5838 305.824 84.6581 305.831C89.4621 306.579 93.9918 301.792 95.0814 294.857Z" fill="url(#paint7_linear_3_295)"/>
<path d="M132.839 21.5612V21.5312C134.024 12.4101 129.94 5.06017 123.604 4.79492C123.406 4.79492 123.201 4.79492 122.991 4.79492L49.2549 7.22494C49.0758 7.22494 48.8968 7.22494 48.7216 7.25916H48.6949C48.4701 7.28483 48.2453 7.31906 48.0244 7.36612C45.7614 7.83672 43.5975 9.35976 41.788 11.5759C40.5387 14.1036 39.7087 16.865 39.3383 19.7258L38.904 23.08C39.3552 19.4223 40.8092 16.0131 43.0642 13.3257C44.6185 11.5502 46.4624 10.3823 48.3711 10.1555H48.4168H48.4815C48.6263 10.1555 48.7558 10.1341 48.8625 10.1341L122.572 7.92656H123.086C128.107 8.15331 131.388 13.8476 130.664 21.0008L131.064 17.9247C131.483 14.9678 131.306 11.943 130.546 9.07312C132.561 12.1278 133.487 16.5899 132.839 21.5612Z" fill="url(#paint8_linear_3_295)"/>
<path d="M6.47614 283.344C4.91037 279.96 4.23605 275.554 4.81512 271.083L37.0335 23.11C37.5632 18.8186 39.2122 14.7994 41.7727 11.5588C40.5264 14.0876 39.6977 16.8487 39.3269 19.7088L6.18279 274.882C5.80802 277.699 5.90753 280.569 6.47614 283.344Z" fill="url(#paint9_linear_3_295)"/>
<path d="M132.843 21.5697L97.3672 294.806C97.1529 296.438 96.7693 298.036 96.2243 299.567C95.8202 300.707 95.3174 301.798 94.7233 302.827C94.6052 303.033 94.4795 303.229 94.3423 303.426C94.1556 303.721 93.9614 304.004 93.7594 304.282C93.2105 305.047 92.5926 305.747 91.9156 306.37V306.344C93.3741 303.798 94.3242 300.927 94.7004 297.929L131.075 17.929C131.494 14.9721 131.317 11.9472 130.557 9.07739C132.565 12.1406 133.49 16.5985 132.843 21.5697Z" fill="url(#paint10_linear_3_295)"/>
<path d="M89.0469 14.3567L78.2922 14.6177C78.0217 14.6177 77.8464 14.3096 77.9112 13.9118L77.9569 13.5438C77.9677 13.3671 78.0304 13.1994 78.1352 13.067C78.24 12.9346 78.381 12.845 78.536 12.8123L89.2945 12.5299C89.5688 12.5299 89.7517 12.8422 89.6983 13.2444L89.6488 13.6166C89.6372 13.798 89.5715 13.9697 89.4623 14.104C89.3531 14.2383 89.2067 14.3273 89.0469 14.3567Z" fill="url(#paint11_linear_3_295)"/>
<path d="M128.782 21.5997L93.4204 293.766C93.1399 296.147 92.2716 298.392 90.9136 300.248C90.8451 300.337 90.7765 300.419 90.7079 300.504C90.4946 300.761 90.2812 301.005 90.0565 301.227C89.8317 301.45 89.6526 301.612 89.4431 301.783C89.1829 301.996 88.9106 302.189 88.6278 302.361C88.3523 302.525 88.0672 302.668 87.7745 302.789C87.6297 302.849 87.4849 302.9 87.3363 302.956C87.1916 303.007 87.0392 303.045 86.8906 303.084C86.5878 303.155 86.2811 303.202 85.9725 303.225C85.5986 303.246 85.2239 303.23 84.8525 303.178H84.7496H84.7001H84.6505L84.5477 303.152H84.4486L84.2505 303.105L13.2764 284.08L13.105 284.029L12.9335 283.973H12.8878H12.865L12.7773 283.935C9.44387 282.604 7.39808 277.351 8.09906 271.956L40.4279 23.0885C41.1403 17.6124 44.5004 13.0048 48.1234 12.5427H48.1844H48.2796C48.3799 12.5369 48.4803 12.5369 48.5806 12.5427L58.5543 12.2689C59.1219 12.2989 59.5029 12.9577 59.4496 13.8177C59.4496 13.8775 59.4496 13.9374 59.4305 13.9973V14.023C59.4305 14.023 59.4305 14.023 59.4305 14.053C59.3966 14.3653 59.3775 14.6795 59.3734 14.9942C59.3734 15.1054 59.3734 15.2123 59.3734 15.315C59.3734 15.4434 59.3734 15.5717 59.3734 15.6958C59.3734 15.8198 59.3734 15.9225 59.3924 16.038C59.3924 16.038 59.3924 16.0894 59.3924 16.115V16.2006C59.3903 16.2219 59.3903 16.2435 59.3924 16.2648V16.3803C59.3943 16.4173 59.3943 16.4545 59.3924 16.4915C59.3924 16.5985 59.4153 16.6969 59.4305 16.7996C59.4458 16.9022 59.4572 16.9964 59.4762 17.0905C59.4741 17.1046 59.4741 17.1191 59.4762 17.1333V17.1204C59.4762 17.2017 59.5105 17.283 59.5258 17.36C59.541 17.437 59.5563 17.5055 59.5715 17.5696C59.5732 17.5924 59.5732 17.6153 59.5715 17.6381C59.5715 17.6766 59.5715 17.7065 59.5982 17.7408C59.608 17.7887 59.6208 17.8359 59.6362 17.8819C59.6362 17.8819 59.6362 17.9076 59.6362 17.9204C59.6374 17.939 59.6374 17.9575 59.6362 17.9761C59.6362 18.0103 59.6553 18.0402 59.6629 18.0659C59.6705 18.0916 59.682 18.1386 59.6934 18.1729C59.7019 18.2021 59.7121 18.2307 59.7239 18.2584C59.7217 18.274 59.7217 18.2899 59.7239 18.3055C59.7239 18.3426 59.7353 18.3768 59.7582 18.4082C59.7647 18.4334 59.7737 18.4578 59.7848 18.4809C59.7923 18.5166 59.8038 18.5511 59.8191 18.5836C59.8208 18.592 59.8208 18.6008 59.8191 18.6092V18.6306C59.8191 18.6691 59.8458 18.7076 59.861 18.7419C59.865 18.7573 59.8715 18.7718 59.8801 18.7846C59.8923 18.8259 59.9076 18.866 59.9258 18.9044C59.9349 18.9341 59.9464 18.9627 59.9601 18.99C59.9786 19.0387 60.0003 19.0859 60.0248 19.1312C60.0332 19.1584 60.0447 19.1843 60.0591 19.2082C60.0708 19.2408 60.0848 19.2723 60.101 19.3023C60.101 19.3365 60.1353 19.3665 60.1544 19.4007C60.1677 19.4327 60.1844 19.4628 60.2039 19.4905C60.2299 19.5491 60.2605 19.605 60.2953 19.6574C60.3172 19.7017 60.3413 19.7446 60.3677 19.7857L60.4134 19.8585C60.4278 19.8845 60.4444 19.9088 60.463 19.9312C60.4824 19.9657 60.5041 19.9986 60.5277 20.0296C60.562 20.0809 60.6001 20.1366 60.6382 20.1836L60.7068 20.2735L60.7639 20.3505L60.7906 20.3761C60.8156 20.4106 60.8437 20.4422 60.8744 20.4703C60.8839 20.4876 60.8954 20.5034 60.9087 20.5173L60.962 20.5815L61.0458 20.6628C61.0788 20.7057 61.1159 20.7444 61.1563 20.7783C61.2009 20.8273 61.2494 20.8717 61.3011 20.9109C61.3169 20.9304 61.3348 20.9477 61.3544 20.9622L61.4611 21.0564L61.5601 21.1334C61.5886 21.1582 61.6192 21.1797 61.6516 21.1975C61.6646 21.2123 61.6801 21.2239 61.6973 21.2318L61.7392 21.2617C61.7518 21.2728 61.766 21.2814 61.7811 21.2874C61.8459 21.3345 61.9144 21.3687 61.9792 21.4072C62.0157 21.432 62.0539 21.4534 62.0935 21.4714L62.204 21.527L62.2878 21.5612C62.3434 21.5885 62.4007 21.6113 62.4592 21.6296H62.4935L62.7183 21.7067C62.7769 21.7269 62.8368 21.7426 62.8973 21.7537H62.985C62.985 21.7537 62.985 21.7537 63.0116 21.7537C63.0779 21.7717 63.1455 21.7831 63.2135 21.7879H63.2592H63.3545H63.4078H63.5412C63.6083 21.7944 63.6759 21.7944 63.7431 21.7879H63.8155L102.076 21.1248H102.32C102.393 21.1312 102.467 21.1312 102.541 21.1248C102.59 21.1311 102.64 21.1311 102.689 21.1248H102.746H102.853H102.906C102.983 21.1248 103.059 21.0991 103.135 21.082H103.166L103.268 21.0564C103.338 21.0439 103.407 21.0253 103.474 21.0008L103.741 20.9152L103.786 20.8938L103.988 20.8168L104.091 20.774C104.137 20.7578 104.182 20.7377 104.225 20.7141C104.275 20.6943 104.323 20.6699 104.369 20.6414C104.45 20.6131 104.528 20.5802 104.606 20.543C104.624 20.5356 104.642 20.5255 104.659 20.513L104.712 20.4831L104.773 20.4446C104.814 20.4229 104.853 20.3986 104.891 20.3719C104.936 20.3459 104.979 20.3173 105.021 20.2863L105.166 20.1879L105.242 20.128C105.309 20.084 105.374 20.0354 105.436 19.9825C105.491 19.9455 105.543 19.9041 105.592 19.8585L105.707 19.7686L105.779 19.7002L105.832 19.6488L105.947 19.5462L105.981 19.5205L106.065 19.4349L106.168 19.3365C106.225 19.2852 106.278 19.2253 106.335 19.1697L106.434 19.067L106.507 18.9857L106.579 18.9044C106.62 18.862 106.658 18.8162 106.693 18.7675C106.746 18.7123 106.795 18.6537 106.842 18.5921C106.872 18.561 106.898 18.5266 106.922 18.4894C106.953 18.4559 106.982 18.4202 107.009 18.3825C107.035 18.3515 107.06 18.3186 107.082 18.2841C107.124 18.2352 107.162 18.1823 107.196 18.1258L107.249 18.0574C107.272 18.0293 107.292 17.9992 107.31 17.9675L107.398 17.8392L107.429 17.7921L107.505 17.6723C107.505 17.6723 107.505 17.6723 107.505 17.6509V17.6252C107.531 17.5895 107.554 17.5508 107.573 17.5097C107.592 17.4874 107.608 17.463 107.623 17.437L107.688 17.3258L107.722 17.2744L107.775 17.1803C107.798 17.1461 107.817 17.1076 107.84 17.0691C107.863 17.0306 107.874 17.0049 107.893 16.9707C107.906 16.9535 107.918 16.9349 107.928 16.9151V16.8723C107.956 16.8239 107.983 16.7739 108.008 16.7226L108.069 16.6113C108.081 16.5879 108.093 16.5636 108.103 16.5386C108.141 16.4659 108.179 16.3931 108.213 16.3161C108.248 16.2391 108.297 16.145 108.335 16.0551C108.337 16.041 108.337 16.0265 108.335 16.0124L108.472 15.7001C108.514 15.5931 108.56 15.4861 108.598 15.3749L108.644 15.2551C108.655 15.2142 108.669 15.1742 108.686 15.1353C108.686 15.1097 108.686 15.0883 108.712 15.0626L108.743 14.9728L108.773 14.8872C108.811 14.7674 108.853 14.6476 108.888 14.5278C108.922 14.408 108.968 14.2626 109.006 14.1257C109.036 14.0144 109.063 13.9032 109.093 13.7877C109.173 13.4583 109.242 13.1246 109.295 12.7909C109.297 12.7796 109.297 12.768 109.295 12.7567V12.731C109.295 12.6711 109.295 12.6069 109.322 12.547C109.505 11.6358 110.114 10.9128 110.762 10.8357L122.088 10.5234H122.614C122.683 10.5263 122.751 10.5335 122.82 10.5448H122.922L123.124 10.5748L123.368 10.6176L123.711 10.6988L123.776 10.7202L124.05 10.8101L124.431 10.9726L124.74 11.1224C124.85 11.1823 124.961 11.2465 125.063 11.3106C125.276 11.4402 125.482 11.583 125.681 11.7384C125.856 11.8882 126.031 12.0422 126.199 12.2133C126.234 12.2554 126.271 12.2954 126.309 12.3331L126.511 12.5556L126.763 12.8679C126.923 13.0861 127.079 13.2957 127.224 13.5481C127.296 13.6679 127.368 13.792 127.433 13.916C127.498 14.0401 127.566 14.1685 127.627 14.3011C127.885 14.8398 128.098 15.404 128.264 15.9867C128.351 16.2905 128.42 16.6028 128.485 16.9193C128.549 17.2359 128.599 17.5611 128.641 17.8991C128.66 18.0659 128.675 18.2328 128.69 18.3996C128.717 18.7718 128.736 19.144 128.736 19.5248C128.736 19.6745 128.736 19.8285 128.736 19.9825C128.779 20.5201 128.795 21.0601 128.782 21.5997Z" fill="url(#paint12_linear_3_295)"/>
</g>
<defs>
<linearGradient id="paint0_linear_3_295" x1="88.3421" y1="157.035" x2="144.337" y2="157.035" gradientUnits="userSpaceOnUse">
<stop stop-color="#333333"/>
<stop offset="0.37" stop-color="#848484"/>
<stop offset="0.66" stop-color="#BFBFBF"/>
<stop offset="0.88" stop-color="#E3E3E3"/>
<stop offset="1" stop-color="#F1F1F1"/>
</linearGradient>
<linearGradient id="paint1_linear_3_295" x1="68.7679" y1="312.963" x2="73.5546" y2="-0.122772" gradientUnits="userSpaceOnUse">
<stop stop-color="#F1F1F1"/>
<stop offset="0.43" stop-color="#EFEFEF"/>
<stop offset="0.62" stop-color="#E8E8E8"/>
<stop offset="0.76" stop-color="#DBDBDB"/>
<stop offset="0.88" stop-color="#C9C9C9"/>
<stop offset="0.98" stop-color="#B2B2B2"/>
<stop offset="1" stop-color="#ACACAC"/>
</linearGradient>
<linearGradient id="paint2_linear_3_295" x1="19.2289" y1="145.685" x2="20.6414" y2="145.863" gradientUnits="userSpaceOnUse">
<stop stop-color="#666666"/>
<stop offset="0.06" stop-color="#727272"/>
<stop offset="0.33" stop-color="#A8A8A8"/>
<stop offset="0.57" stop-color="#D0D0D0"/>
<stop offset="0.76" stop-color="#E8E8E8"/>
<stop offset="0.87" stop-color="#F1F1F1"/>
<stop offset="0.95" stop-color="#F7F7F7"/>
<stop offset="1" stop-color="white"/>
</linearGradient>
<linearGradient id="paint3_linear_3_295" x1="117.122" y1="158.099" x2="118.747" y2="158.303" gradientUnits="userSpaceOnUse">
<stop stop-color="white"/>
<stop offset="0.05" stop-color="#F7F7F7"/>
<stop offset="0.13" stop-color="#F1F1F1"/>
<stop offset="0.24" stop-color="#E8E8E8"/>
<stop offset="0.43" stop-color="#D0D0D0"/>
<stop offset="0.67" stop-color="#A8A8A8"/>
<stop offset="0.94" stop-color="#727272"/>
<stop offset="1" stop-color="#666666"/>
</linearGradient>
<linearGradient id="paint4_linear_3_295" x1="49.0895" y1="306.098" x2="52.8958" y2="282.13" gradientUnits="userSpaceOnUse">
<stop stop-color="#F1F1F1"/>
<stop offset="0.12" stop-color="#E3E3E3"/>
<stop offset="0.34" stop-color="#BFBFBF"/>
<stop offset="0.63" stop-color="#848484"/>
<stop offset="1" stop-color="#333333"/>
</linearGradient>
<linearGradient id="paint5_linear_3_295" x1="85.3927" y1="23.3699" x2="91.2902" y2="-13.7667" gradientUnits="userSpaceOnUse">
<stop stop-color="#333333"/>
<stop offset="0.07" stop-color="#4C4C4C"/>
<stop offset="0.25" stop-color="#828282"/>
<stop offset="0.42" stop-color="#AFAFAF"/>
<stop offset="0.59" stop-color="#D2D2D2"/>
<stop offset="0.74" stop-color="#EBEBEB"/>
<stop offset="0.89" stop-color="#FAFAFA"/>
<stop offset="1" stop-color="white"/>
</linearGradient>
<linearGradient id="paint6_linear_3_295" x1="111.451" y1="156.999" x2="116.056" y2="157.579" gradientUnits="userSpaceOnUse">
<stop stop-color="#F0F0F0"/>
<stop offset="0.14" stop-color="#B7B7B7"/>
<stop offset="0.27" stop-color="#888888"/>
<stop offset="0.4" stop-color="#636363"/>
<stop offset="0.51" stop-color="#494949"/>
<stop offset="0.62" stop-color="#393939"/>
<stop offset="0.7" stop-color="#333333"/>
</linearGradient>
<linearGradient id="paint7_linear_3_295" x1="5.82023" y1="283.264" x2="95.8169" y2="294.597" gradientUnits="userSpaceOnUse">
<stop/>
<stop offset="0.1" stop-color="#141414"/>
<stop offset="0.26" stop-color="#2C2C2C"/>
<stop offset="0.4" stop-color="#3B3B3B"/>
<stop offset="0.52" stop-color="#404040"/>
<stop offset="0.63" stop-color="#393939"/>
<stop offset="0.79" stop-color="#242424"/>
<stop offset="0.99" stop-color="#020202"/>
<stop offset="1"/>
</linearGradient>
<linearGradient id="paint8_linear_3_295" x1="41.3137" y1="6.84397" x2="133.583" y2="18.4631" gradientUnits="userSpaceOnUse">
<stop/>
<stop offset="0.1" stop-color="#141414"/>
<stop offset="0.26" stop-color="#2C2C2C"/>
<stop offset="0.4" stop-color="#3B3B3B"/>
<stop offset="0.52" stop-color="#404040"/>
<stop offset="0.63" stop-color="#393939"/>
<stop offset="0.79" stop-color="#242424"/>
<stop offset="0.99" stop-color="#020202"/>
<stop offset="1"/>
</linearGradient>
<linearGradient id="paint9_linear_3_295" x1="21.218" y1="146.325" x2="23.5167" y2="146.614" gradientUnits="userSpaceOnUse">
<stop stop-color="#404040"/>
<stop offset="0.64" stop-color="#1A1A1A"/>
<stop offset="1" stop-color="#0A0A0A"/>
</linearGradient>
<linearGradient id="paint10_linear_3_295" x1="111.451" y1="156.943" x2="116.071" y2="157.525" gradientUnits="userSpaceOnUse">
<stop stop-color="#0A0A0A"/>
<stop offset="0.36" stop-color="#1A1A1A"/>
<stop offset="1" stop-color="#404040"/>
</linearGradient>
<linearGradient id="paint11_linear_3_295" x1="78.4913" y1="12.0049" x2="90.0074" y2="13.4551" gradientUnits="userSpaceOnUse">
<stop stop-color="#333333"/>
<stop offset="0.09" stop-color="#2B2B2B"/>
<stop offset="0.29" stop-color="#1E1E1E"/>
<stop offset="0.48" stop-color="#1A1A1A"/>
<stop offset="0.79" stop-color="#1C1C1C"/>
<stop offset="0.9" stop-color="#232323"/>
<stop offset="0.98" stop-color="#2E2E2E"/>
<stop offset="1" stop-color="#333333"/>
</linearGradient>
<linearGradient id="paint12_linear_3_295" x1="3.55322" y1="48.7143" x2="164.062" y2="238.727" gradientUnits="userSpaceOnUse">
<stop stop-color="#F2F3F4"/>
<stop offset="0.36" stop-color="#EDEEEF"/>
<stop offset="0.78" stop-color="#DFE0E0"/>
<stop offset="1" stop-color="#D5D6D6"/>
</linearGradient>
<clipPath id="clip0_3_295">
<rect width="144.226" height="312.698" fill="white" transform="translate(0.110188 0.666504)"/>
</clipPath>
</defs>
</svg>
