<svg width="208" height="43" viewBox="0 0 208 43" fill="none" xmlns="http://www.w3.org/2000/svg">
<rect x="0.0527344" width="41.5" height="42.482" rx="20.75" fill="white"/>
<path d="M38.7861 21.5756C38.7861 11.6674 30.735 3.63562 20.805 3.63562C10.8704 3.63785 2.8194 11.6674 2.8194 21.5778C2.8194 30.5299 9.39598 37.9511 17.9909 39.2971V26.7614H13.4282V21.5778H17.9954V17.6221C17.9954 13.1271 20.6814 10.6445 24.7878 10.6445C26.7567 10.6445 28.8133 10.9943 28.8133 10.9943V15.4069H26.5454C24.3135 15.4069 23.6168 16.7908 23.6168 18.2104V21.5756H28.602L27.8064 26.7592H23.6145V39.2949C32.2095 37.9488 38.7861 30.5277 38.7861 21.5756Z" fill="#3FA0BB"/>
<rect x="55.386" width="41.5" height="42.482" rx="20.75" fill="white"/>
<path d="M76.136 3.63562C66.2051 3.63562 58.1527 11.6197 58.1527 21.4664C58.1527 31.3131 66.2051 39.2971 76.136 39.2971C86.067 39.2971 94.1194 31.3131 94.1194 21.4664C94.1194 11.6197 86.067 3.63562 76.136 3.63562ZM84.7785 17.0763C84.7905 17.2634 84.7905 17.4584 84.7905 17.6495C84.7905 23.4922 80.3027 30.2225 72.1018 30.2225C69.5729 30.2225 67.2287 29.4942 65.2537 28.2405C65.615 28.2803 65.9602 28.2962 66.3295 28.2962C68.4169 28.2962 70.3356 27.5957 71.865 26.4096C69.9061 26.3698 68.2603 25.0962 67.6983 23.345C68.3847 23.4445 69.0029 23.4445 69.7094 23.2654C68.7008 23.0622 67.7942 22.519 67.1436 21.7282C66.4931 20.9374 66.1388 19.9476 66.1408 18.9271V18.8714C66.7309 19.2017 67.4254 19.4047 68.1519 19.4326C67.5411 19.0289 67.0402 18.4822 66.6936 17.8406C66.347 17.1991 66.1654 16.4827 66.1649 15.755C66.1649 14.9311 66.3817 14.1788 66.7711 13.5261C67.8906 14.8926 69.2876 16.0102 70.8714 16.8064C72.4551 17.6025 74.19 18.0592 75.9634 18.147C75.3332 15.142 77.5972 12.7102 80.3188 12.7102C81.6033 12.7102 82.7594 13.2435 83.5742 14.1032C84.5818 13.9162 85.5452 13.542 86.4042 13.0405C86.071 14.0634 85.3726 14.9271 84.4453 15.4724C85.3445 15.3769 86.2115 15.1301 87.0144 14.7838C86.4082 15.6674 85.6495 16.4515 84.7785 17.0763Z" fill="#3FA0BB"/>
<rect x="110.719" width="41.5" height="42.482" rx="20.75" fill="white"/>
<rect x="166.053" width="41.5" height="42.482" rx="20.75" fill="white"/>
<path d="M131.469 3.63562C121.537 3.63562 113.486 11.6186 113.486 21.4664C113.486 31.3141 121.537 39.2971 131.469 39.2971C141.401 39.2971 149.453 31.3141 149.453 21.4664C149.453 11.6186 141.401 3.63562 131.469 3.63562ZM127.067 28.8568H123.426V17.2371H127.067V28.8568ZM125.224 15.8107C124.074 15.8107 123.33 15.0027 123.33 14.0035C123.33 12.9838 124.096 12.2 125.271 12.2C126.445 12.2 127.165 12.9838 127.187 14.0035C127.187 15.0027 126.445 15.8107 125.224 15.8107ZM140.367 28.8568H136.726V22.4173C136.726 20.9184 136.198 19.9006 134.881 19.9006C133.875 19.9006 133.277 20.5897 133.013 21.2528C132.916 21.4887 132.891 21.823 132.891 22.1555V28.855H129.248V20.9426C129.248 19.492 129.201 18.2791 129.152 17.2353H132.316L132.483 18.8493H132.556C133.035 18.0915 134.21 16.9734 136.175 16.9734C138.571 16.9734 140.367 18.5652 140.367 21.9864V28.8568Z" fill="#3FA0BB"/>
<path d="M202.838 15.8249C202.82 14.4811 202.565 13.1507 202.087 11.8932C201.671 10.8324 201.037 9.86909 200.225 9.0647C199.412 8.26031 198.439 7.63256 197.367 7.22155C196.113 6.75556 194.788 6.50359 193.449 6.47637C191.725 6.40008 191.178 6.37878 186.801 6.37878C182.424 6.37878 181.863 6.37878 180.151 6.47637C178.812 6.50379 177.488 6.75576 176.235 7.22155C175.163 7.63227 174.19 8.25992 173.377 9.06435C172.564 9.86877 171.93 10.8323 171.515 11.8932C171.044 13.1336 170.79 14.4447 170.764 15.7699C170.687 17.4785 170.664 18.0196 170.664 22.3524C170.664 26.6851 170.664 27.2386 170.764 28.9348C170.791 30.262 171.044 31.5714 171.515 32.8151C171.931 33.8757 172.565 34.8388 173.378 35.6429C174.191 36.4469 175.165 37.0743 176.236 37.4849C177.487 37.9697 178.811 38.2397 180.153 38.2833C181.879 38.3596 182.426 38.3827 186.803 38.3827C191.18 38.3827 191.741 38.3827 193.453 38.2833C194.792 38.2572 196.117 38.0058 197.371 37.5399C198.442 37.1284 199.415 36.5005 200.228 35.6962C201.04 34.8919 201.674 33.9288 202.09 32.8683C202.562 31.6264 202.814 30.317 202.841 28.988C202.918 27.2812 202.942 26.7401 202.942 22.4056C202.938 18.0729 202.938 17.5228 202.838 15.8249ZM186.79 30.5458C182.212 30.5458 178.504 26.8749 178.504 22.3435C178.504 17.812 182.212 14.1411 186.79 14.1411C188.988 14.1411 191.095 15.0053 192.649 16.5435C194.203 18.0818 195.076 20.1681 195.076 22.3435C195.076 24.5189 194.203 26.6052 192.649 28.1434C191.095 29.6817 188.988 30.5458 186.79 30.5458ZM195.406 15.7504C195.152 15.7506 194.901 15.7013 194.667 15.6053C194.432 15.5092 194.219 15.3683 194.039 15.1907C193.86 15.013 193.718 14.8021 193.621 14.5699C193.524 14.3378 193.474 14.089 193.474 13.8377C193.474 13.5867 193.524 13.3381 193.621 13.1061C193.718 12.8742 193.86 12.6634 194.04 12.4859C194.219 12.3084 194.432 12.1676 194.666 12.0715C194.901 11.9754 195.152 11.926 195.405 11.926C195.659 11.926 195.91 11.9754 196.144 12.0715C196.379 12.1676 196.592 12.3084 196.771 12.4859C196.95 12.6634 197.093 12.8742 197.19 13.1061C197.287 13.3381 197.337 13.5867 197.337 13.8377C197.337 14.8952 196.473 15.7504 195.406 15.7504Z" fill="#3FA0BB"/>
<path d="M186.803 29.2388C190.623 29.2388 193.719 26.1684 193.719 22.3808C193.719 18.5932 190.623 15.5228 186.803 15.5228C182.983 15.5228 179.886 18.5932 179.886 22.3808C179.886 26.1684 182.983 29.2388 186.803 29.2388Z" fill="#3FA0BB"/>
</svg>
