<svg width="16" height="16" viewBox="0 0 16 16" fill="none" xmlns="http://www.w3.org/2000/svg">
<path d="M8.25221 0.5C9.24677 0.5 10.2006 0.895088 10.9039 1.59835C11.6071 2.30161 12.0022 3.25544 12.0022 4.25C12.0022 5.24456 11.6071 6.19839 10.9039 6.90165C10.2006 7.60491 9.24677 8 8.25221 8C7.25765 8 6.30382 7.60491 5.60056 6.90165C4.8973 6.19839 4.50221 5.24456 4.50221 4.25C4.50221 3.25544 4.8973 2.30161 5.60056 1.59835C6.30382 0.895088 7.25765 0.5 8.25221 0.5ZM8.25221 9.875C12.396 9.875 15.7522 11.5531 15.7522 13.625V15.5H0.752213V13.625C0.752213 11.5531 4.10846 9.875 8.25221 9.875Z" fill="#9A9A9A"/>
</svg>
