<svg width="163" height="314" viewBox="0 0 163 314" fill="none" xmlns="http://www.w3.org/2000/svg">
<g clip-path="url(#clip0_18_1400)">
<path d="M162.192 21.3468L161.837 24.6881L119.668 295.704C118 306.429 110.036 313.788 101.332 313.347H100.985H100.643H100.297H99.9504H99.6082H99.45C105.729 312.953 111.426 308.534 114.369 301.834C114.544 301.432 114.711 301.026 114.865 300.606C114.972 300.328 115.07 300.046 115.164 299.751C115.599 298.431 115.924 297.077 116.135 295.704L158.77 21.719C158.8 21.5436 158.825 21.3682 158.843 21.1971C158.952 20.4181 159.021 19.6342 159.052 18.8483C159.454 8.70471 153.291 1.01678 144.416 0.879878H143.89H143.363H142.837C142.666 0.879878 142.487 0.879878 142.311 0.879878H141.785H141.439H141.075L140.609 0.824265H140.583L140.134 0.790039C140.288 0.790039 140.434 0.790039 140.588 0.790039H141.114C141.289 0.790039 141.464 0.790039 141.64 0.790039H142.153H142.679C142.855 0.790039 143.026 0.790039 143.205 0.790039H143.731H144.257H144.784H145.31H145.836C146.011 0.790039 146.182 0.790039 146.358 0.790039H146.486C156.533 2.19757 163.342 10.5058 162.192 21.3468Z" fill="url(#paint0_linear_18_1400)"/>
<path d="M158.77 21.6808L116.148 295.657C114.587 305.694 107.504 312.791 99.4671 313.292H99.2789H98.9325H98.586C98.4748 313.292 98.3551 313.292 98.2439 313.292H97.8974H97.551H97.2045H96.8581H96.5159H96.178C95.2536 313.268 94.3344 313.144 93.4363 312.924L30.3269 297.206L30.2072 297.176L12.4612 293.064C4.25765 291.173 -0.956189 281.034 0.694793 270.39L38.3338 28.4703L39.1165 23.1097C40.0147 16.9534 42.9189 11.4046 46.7341 7.76809C47.042 7.47289 47.3585 7.19053 47.6793 6.91244C47.8932 6.73276 48.1071 6.55735 48.3295 6.3905C48.5519 6.22365 48.7572 6.06536 48.9924 5.90706C49.7506 5.37634 50.5534 4.91255 51.3919 4.52093C51.6272 4.41398 51.8667 4.3113 52.1019 4.22146C53.3774 3.70853 54.7317 3.41909 56.1053 3.36582L138.334 0.657715L141.058 0.743278H141.234C141.413 0.743278 141.589 0.743278 141.76 0.743278C141.931 0.743278 142.115 0.743278 142.286 0.743278C142.457 0.743278 142.641 0.743278 142.812 0.743278H143.338C143.513 0.743278 143.689 0.743278 143.864 0.743278H144.39C154.095 0.982857 160.553 10.1553 158.77 21.6808Z" fill="url(#paint1_linear_18_1400)"/>
<path d="M145.083 5.14108C144.846 4.97175 144.6 4.81467 144.347 4.67048C144.583 4.79882 144.831 4.95712 145.083 5.14108ZM143.8 4.37529C143.975 4.46085 144.142 4.55069 144.313 4.64909C144.232 4.61059 144.155 4.56352 144.078 4.52502L143.8 4.37529ZM141.559 3.54959C142.045 3.66854 142.522 3.82151 142.987 4.00736L143.295 4.13999C142.653 3.85693 141.984 3.63908 141.298 3.4897L141.559 3.54959ZM141.058 3.43836L140.913 3.41269L140.656 3.36991C140.874 3.39986 141.084 3.44692 141.298 3.4897H141.259L141.058 3.43836ZM143.539 4.25122H143.5L143.295 4.1571C143.462 4.2341 143.633 4.30684 143.796 4.38812L143.539 4.25122ZM140.117 3.2929H139.831L140.348 3.34852L140.656 3.3913C140.502 3.36135 140.348 3.33996 140.194 3.32285L140.117 3.2929ZM12.7221 290.283L12.8462 290.335H12.8248L12.7221 290.283ZM12.5981 290.228H12.6195L12.4997 290.176L12.5981 290.228ZM12.4398 290.155L12.4997 290.181L12.3714 290.121L12.4398 290.155ZM10.2029 288.726C10.1639 288.697 10.1268 288.666 10.0917 288.632L10.2029 288.726ZM9.39022 287.99L9.53564 288.131L9.38167 287.977L9.39022 287.99ZM5.80596 282.257L5.90434 282.518L5.96849 282.681L5.86584 282.407C5.84446 282.369 5.82734 282.309 5.80596 282.257ZM4.60836 277.41V277.5C4.60836 277.41 4.58269 277.312 4.57414 277.218C4.59124 277.282 4.60408 277.35 4.60836 277.41ZM4.5057 276.482C4.5057 276.482 4.5057 276.512 4.5057 276.525C4.50364 276.505 4.50364 276.485 4.5057 276.465V276.482ZM4.48004 276.14C4.47795 276.151 4.47795 276.162 4.48004 276.174C4.48004 276.063 4.48004 275.943 4.45438 275.827C4.46293 275.951 4.47148 276.033 4.48004 276.14ZM141.058 0.794428C140.746 0.751646 140.434 0.725981 140.117 0.70459C139.997 0.70459 139.869 0.70459 139.741 0.70459C139.612 0.70459 139.411 0.70459 139.249 0.70459C139.086 0.70459 139.052 0.70459 138.95 0.70459H138.351L56.1181 3.4298C54.7442 3.4811 53.3896 3.77062 52.1147 4.28544C51.8795 4.37956 51.64 4.47796 51.4047 4.5892C50.5636 4.97844 49.7592 5.44234 49.0009 5.97533C48.7785 6.12507 48.5732 6.29192 48.3423 6.45877C48.1113 6.62562 47.9145 6.79674 47.6921 6.97643C47.3713 7.24596 47.0548 7.52832 46.7469 7.83207C42.9317 11.4685 40.0275 17.0174 39.1293 23.1694L38.3466 28.5428L3.04292 270.484C1.48604 281.128 6.28072 291.254 13.8513 293.128L30.2071 297.175L30.3269 297.205L93.4106 312.825C94.4176 313.078 95.452 313.204 96.4902 313.202V313.202C104.249 313.18 111.251 305.929 112.769 295.498L152.743 21.4838C154.326 10.6172 149.146 1.85542 141.058 0.794428V0.794428ZM152.534 18.4292V18.9255C152.534 19.0966 152.534 19.2634 152.504 19.4303C152.474 19.5971 152.478 19.7725 152.465 19.9394C152.435 20.2517 152.405 20.564 152.363 20.8849C152.34 21.0845 152.314 21.2856 152.286 21.4881L151.995 23.4689L112.645 293.423C112.338 295.552 111.763 297.634 110.934 299.618C110.874 299.764 110.814 299.909 110.75 300.046C110.686 300.183 110.622 300.337 110.553 300.474C110.485 300.611 110.455 300.688 110.404 300.791C110.25 301.103 110.092 301.411 109.925 301.71C109.856 301.847 109.779 301.98 109.707 302.108C109.634 302.237 109.493 302.472 109.382 302.652C109.27 302.831 109.236 302.891 109.159 303.007C109.082 303.122 109.001 303.255 108.915 303.379C108.693 303.717 108.453 304.051 108.205 304.376C108.128 304.474 108.051 304.577 107.97 304.675C107.889 304.774 107.79 304.902 107.696 305.009C107.602 305.116 107.517 305.227 107.423 305.334C107.329 305.441 107.239 305.548 107.14 305.651C107.042 305.753 106.952 305.86 106.849 305.963C106.661 306.168 106.46 306.365 106.259 306.553C105.951 306.848 105.639 307.131 105.314 307.409L105.023 307.644C104.801 307.815 104.595 307.982 104.347 308.145L104.048 308.35C103.719 308.573 103.381 308.778 103.039 308.966C102.927 309.035 102.812 309.094 102.696 309.154C102.465 309.274 102.23 309.385 101.999 309.492L101.653 309.646C101.276 309.805 100.896 309.946 100.511 310.074C100.411 310.111 100.31 310.143 100.207 310.168C100.087 310.207 99.9675 310.241 99.8435 310.271L99.4757 310.361C99.2019 310.421 98.9282 310.476 98.6502 310.519L98.3593 310.562C97.9958 310.613 97.6322 310.643 97.2601 310.66H96.8751H96.4474C96.1951 310.66 95.947 310.66 95.6904 310.618H95.5449H95.4765H95.4423H95.6348H95.6904C95.8059 310.618 95.9213 310.618 96.0368 310.618C96.0736 310.624 96.1112 310.624 96.148 310.618H97.0035C97.049 310.622 97.0948 310.622 97.1403 310.618H97.2772H97.3841H97.5809C97.6964 310.618 97.8033 310.618 97.9145 310.579L98.1754 310.541L98.3465 310.511H98.4491L98.5475 310.489H98.6074C98.6582 310.482 98.7083 310.471 98.7571 310.455H98.817H98.8597C99.1463 310.391 99.4286 310.318 99.7152 310.233C99.7447 310.228 99.7735 310.219 99.8007 310.207H99.852C99.9162 310.207 99.9761 310.168 100.036 310.143H100.104L100.408 310.036L100.977 309.805H101.011C101.208 309.715 101.4 309.629 101.593 309.531C101.785 309.432 101.965 309.338 102.145 309.24C102.157 309.243 102.17 309.243 102.183 309.24C102.183 309.24 102.183 309.24 102.183 309.24C102.482 309.069 102.778 308.889 103.073 308.692C103.112 308.671 103.15 308.645 103.184 308.615C103.201 308.608 103.217 308.598 103.231 308.585L103.295 308.543L103.359 308.491C103.496 308.397 103.629 308.299 103.761 308.2C103.894 308.102 104.031 307.991 104.159 307.884C104.823 307.339 105.442 306.743 106.011 306.1L106.131 305.959L106.251 305.817C106.571 305.441 106.875 305.047 107.166 304.637C107.363 304.363 107.547 304.08 107.731 303.781C107.799 303.678 107.863 303.567 107.932 303.46L108 303.345L108.235 302.917L108.325 302.758C108.355 302.699 108.389 302.643 108.423 302.579C108.458 302.515 108.483 302.468 108.509 302.416C108.565 302.319 108.617 302.219 108.663 302.117C108.679 302.088 108.693 302.058 108.706 302.027L108.808 301.813C108.868 301.702 108.928 301.582 108.98 301.462C108.98 301.448 108.98 301.434 108.98 301.419C109.035 301.3 109.086 301.184 109.138 301.06L109.305 300.675C109.356 300.547 109.411 300.414 109.463 300.281C109.514 300.149 109.561 300.02 109.613 299.888C109.664 299.755 109.66 299.755 109.685 299.687C109.711 299.618 109.732 299.554 109.758 299.481L109.848 299.22C109.878 299.122 109.912 299.019 109.946 298.917C109.98 298.814 110.019 298.69 110.049 298.57C110.052 298.553 110.052 298.536 110.049 298.519C110.1 298.348 110.151 298.172 110.198 297.997C110.246 297.821 110.314 297.543 110.37 297.317C110.421 297.09 110.472 296.863 110.519 296.632C110.566 296.401 110.596 296.256 110.63 296.063C110.63 296.012 110.63 295.956 110.66 295.901C110.699 295.674 110.742 295.438 110.772 295.207L150.669 21.6721C150.742 21.1544 150.806 20.6325 150.844 20.1233C150.954 18.8694 150.954 17.6082 150.844 16.3543C150.849 16.3403 150.849 16.3254 150.844 16.3115C150.844 16.1746 150.814 16.0377 150.797 15.8836C150.78 15.7296 150.797 15.704 150.767 15.6141C150.733 15.3703 150.699 15.1307 150.66 14.8954L150.532 14.2066C150.506 14.0911 150.481 13.9756 150.459 13.8643C150.438 13.7531 150.404 13.6333 150.378 13.5221C150.381 13.4908 150.381 13.4593 150.378 13.428C150.378 13.3467 150.335 13.2697 150.314 13.1884C150.293 13.1282 150.276 13.0668 150.263 13.0044C150.263 12.9616 150.263 12.9189 150.224 12.8761L150.126 12.5467C150.027 12.2215 149.916 11.9049 149.801 11.5926C149.762 11.4942 149.724 11.3958 149.689 11.2974L149.63 11.1562C149.608 11.0963 149.583 11.0364 149.557 10.9808C149.514 10.8824 149.476 10.784 149.429 10.6856C149.343 10.4931 149.253 10.3006 149.159 10.1124C149.112 10.014 149.061 9.91555 149.009 9.81716C148.958 9.71876 148.907 9.62892 148.855 9.53907C148.831 9.48781 148.804 9.43783 148.774 9.38933C148.723 9.29521 148.667 9.20537 148.612 9.11125L148.496 8.91874L148.385 8.75189L148.342 8.68343C148.295 8.6107 148.248 8.53798 148.197 8.46525C148.187 8.44717 148.175 8.42999 148.163 8.41391C148.077 8.28984 147.987 8.1615 147.893 8.03743L147.79 7.89625L147.722 7.8064C147.689 7.76033 147.653 7.71607 147.615 7.67378L147.457 7.4727L147.333 7.32724L147.127 7.09194L147.012 6.96788C146.969 6.91654 146.922 6.8652 146.875 6.81814L146.708 6.64701L146.55 6.48871L146.49 6.4331L146.319 6.2748L146.127 6.09512L146.045 6.02667L145.861 5.86838L145.819 5.83843C145.742 5.77426 145.66 5.7058 145.579 5.64591C145.429 5.5304 145.284 5.42344 145.13 5.31221H145.1C144.863 5.14287 144.617 4.9858 144.364 4.84161V4.84161C144.283 4.80311 144.206 4.75604 144.129 4.71754L143.851 4.56781L143.595 4.44802H143.556L143.351 4.3539C142.708 4.07084 142.039 3.85299 141.353 3.70361H141.315L141.114 3.66082L140.968 3.63515L140.712 3.59238C140.558 3.56243 140.404 3.54104 140.25 3.52392H140.173H139.886H139.711H139.386C139.138 3.52392 138.89 3.52392 138.633 3.52392L55.8316 6.06089C55.6134 6.06089 55.4038 6.06089 55.1814 6.10795L54.8692 6.14218C48.3038 6.99782 42.1789 14.5018 40.8786 23.4218L4.67251 270.856C4.44852 272.372 4.36975 273.907 4.43728 275.438C4.43728 275.438 4.43728 275.464 4.43728 275.472C4.43728 275.592 4.43728 275.712 4.43728 275.827C4.43728 275.943 4.43728 276.033 4.43728 276.14C4.43519 276.151 4.43519 276.162 4.43728 276.174C4.43728 276.272 4.43727 276.366 4.45866 276.465C4.45866 276.465 4.45866 276.495 4.45866 276.507C4.45654 276.529 4.45654 276.55 4.45866 276.572C4.45866 276.644 4.45865 276.713 4.48004 276.786C4.48191 276.807 4.48191 276.828 4.48004 276.85C4.48004 276.85 4.48004 276.85 4.48004 276.875C4.48004 276.982 4.50142 277.094 4.51853 277.201C4.53564 277.307 4.51854 277.333 4.53992 277.393V277.483C4.53992 277.59 4.56987 277.693 4.5827 277.795C4.5827 277.902 4.61264 278.005 4.63402 278.107C4.65541 278.21 4.68534 278.441 4.71956 278.604C4.71956 278.668 4.74095 278.728 4.75378 278.788V278.878C4.75378 278.955 4.78372 279.036 4.80082 279.113C4.80545 279.145 4.81261 279.176 4.82222 279.207C4.8436 279.318 4.86926 279.429 4.89492 279.541C4.92059 279.652 4.92486 279.665 4.9377 279.729C4.95053 279.793 4.9933 279.943 5.01896 280.046L5.05746 280.187C5.05746 280.247 5.0874 280.306 5.10023 280.362C5.11306 280.418 5.10023 280.401 5.10023 280.422L5.12589 280.508C5.12589 280.576 5.16439 280.64 5.1815 280.704L5.26276 280.978C5.37397 281.346 5.498 281.714 5.63059 282.065C5.63059 282.12 5.66909 282.172 5.6862 282.219L5.78458 282.48L5.84873 282.642C6.38388 283.984 7.08817 285.252 7.94454 286.416C8.00014 286.493 8.06002 286.565 8.11562 286.638C8.35942 286.951 8.6075 287.25 8.8684 287.532L8.9069 287.575L8.95395 287.622L9.04805 287.725L9.2234 287.905L9.26191 287.939L9.40733 288.08C9.5442 288.208 9.67679 288.332 9.83504 288.456L9.88209 288.499C9.92058 288.525 9.95052 288.555 9.98902 288.585L10.0917 288.675L10.2414 288.794C10.3782 288.906 10.5194 289.017 10.6691 289.12L10.7503 289.175C10.8673 289.261 10.987 289.342 11.1096 289.419L11.1952 289.479L11.5587 289.697L11.6528 289.748L11.7042 289.778C11.8838 289.881 12.0677 289.975 12.2559 290.065L12.3243 290.099L12.3842 290.125L12.4826 290.172H12.504C12.5681 290.206 12.6366 290.232 12.7093 290.262L12.6066 290.223L12.4869 290.181C12.2773 290.091 12.0592 290.001 11.8795 289.898C10.6382 289.261 9.51322 288.42 8.5519 287.408L8.33804 287.186C8.16268 286.993 7.9873 286.797 7.82049 286.591L7.59381 286.309C7.20458 285.821 6.84605 285.309 6.52025 284.777C6.45539 284.682 6.39542 284.583 6.3406 284.482C6.16096 284.187 5.98988 283.887 5.82735 283.579L5.67337 283.271L5.498 282.912L5.3312 282.553L5.21999 282.309L5.0874 282.001C4.83077 281.38 4.59981 280.739 4.3945 280.084C4.35601 279.968 4.32179 279.849 4.28757 279.729C4.17637 279.365 4.07799 278.993 3.98817 278.612C3.95395 278.48 3.91973 278.343 3.89407 278.184C3.6599 277.15 3.49416 276.101 3.39792 275.044C3.39792 274.899 3.37226 274.753 3.35943 274.616C3.30382 273.876 3.27817 273.132 3.28672 272.379C3.28672 272.229 3.28672 272.075 3.28672 271.925C3.31528 270.85 3.40667 269.777 3.56045 268.713L39.1293 24.855L39.3902 23.071C39.4158 22.8856 39.4458 22.7017 39.48 22.5191C39.48 22.3822 39.5228 22.2453 39.5484 22.0913C39.604 21.7876 39.6639 21.4924 39.7281 21.1972C39.7623 21.0432 39.7965 20.8849 39.835 20.7351C39.835 20.6538 39.8735 20.5726 39.8906 20.4913C39.9077 20.41 39.9334 20.2988 39.9633 20.2004C39.9933 20.102 40.0446 19.8923 40.0874 19.734C40.1586 19.4659 40.2356 19.2007 40.3183 18.9383C40.3568 18.8057 40.3996 18.6773 40.4424 18.549C40.5664 18.1554 40.699 17.7746 40.8444 17.3939C40.8872 17.2741 40.9385 17.1543 40.9813 17.0345L41.1566 16.6067L41.3106 16.243C41.3491 16.1403 41.3919 16.0462 41.4347 15.9478L41.5929 15.597L41.7169 15.3318C41.7811 15.2034 41.8367 15.0751 41.9051 14.9424C42.0121 14.7243 42.1276 14.5146 42.243 14.275L42.427 13.9371C42.4954 13.8087 42.5681 13.6804 42.6408 13.552C43.139 12.6708 43.6904 11.8208 44.2918 11.0065C44.3773 10.891 44.4586 10.7798 44.5484 10.6685L44.8436 10.2878C45.0104 10.0867 45.1729 9.88561 45.3397 9.68881L45.8915 9.07275C46.0796 8.87168 46.2679 8.67488 46.4603 8.48236L46.7512 8.19572C46.9436 8.01603 47.1404 7.83207 47.3414 7.65239C47.5424 7.4727 47.7392 7.31013 47.9445 7.14328C48.1498 6.97643 48.3722 6.81814 48.5604 6.66412L48.8769 6.43738C48.9796 6.36037 49.0865 6.29192 49.1891 6.21919L49.5099 6.00956L49.835 5.80421C50.0446 5.67586 50.2627 5.55179 50.4851 5.432L50.7974 5.26515C50.8071 5.26189 50.8176 5.26189 50.8273 5.26515L51.1438 5.10258C51.2507 5.0598 51.3534 5.00846 51.456 4.95712L51.8153 4.80738L52.1489 4.67476L52.4911 4.55069C52.6066 4.50791 52.7178 4.46941 52.8333 4.43518C53.0642 4.35817 53.2909 4.28972 53.5219 4.23411L53.8598 4.15282C54.1079 4.09863 54.3559 4.05157 54.604 4.01164C54.8008 3.98169 54.9975 3.9603 55.1943 3.93463L55.5535 3.90468H55.9128L138.851 1.2907H139.612C139.873 1.2907 140.13 1.2907 140.387 1.33776C140.519 1.33776 140.648 1.36343 140.772 1.38055C140.896 1.39766 141.032 1.41049 141.161 1.43188L141.537 1.49605L141.914 1.57306L142.281 1.6629L142.615 1.74847L142.688 1.76986C142.79 1.80408 142.897 1.83403 143 1.87254C143.103 1.91104 143.287 1.96666 143.428 2.02228L143.714 2.13351C143.928 2.21907 144.142 2.30891 144.352 2.41159C144.493 2.47148 144.63 2.54422 144.779 2.61695C144.929 2.68968 144.976 2.7239 145.079 2.77951C145.181 2.83513 145.293 2.90358 145.404 2.96776L145.72 3.16456C146.481 3.65465 147.184 4.22868 147.816 4.87584C147.899 4.95142 147.977 5.03139 148.051 5.11542C148.337 5.41226 148.606 5.72355 148.86 6.04806C148.975 6.18924 149.086 6.33898 149.189 6.47588C149.641 7.09033 150.043 7.73983 150.391 8.41819C150.459 8.54226 150.523 8.66205 150.579 8.78611C150.707 9.04281 150.827 9.30378 150.943 9.56903C151.003 9.70593 151.058 9.83855 151.109 9.97545C151.208 10.2065 151.298 10.4461 151.379 10.6814C151.422 10.8011 151.464 10.9252 151.503 11.045C151.576 11.276 151.653 11.507 151.717 11.7466C151.751 11.8579 151.785 11.9734 151.811 12.0932C151.922 12.4868 152.016 12.8889 152.097 13.2996C152.123 13.408 152.145 13.515 152.162 13.6205C152.239 14.0483 152.303 14.4462 152.358 14.8654C152.38 15.028 152.397 15.182 152.41 15.336C152.51 16.2623 152.551 17.194 152.534 18.1254C152.538 18.2195 152.538 18.3222 152.534 18.4292V18.4292Z" fill="#C7C7C7"/>
<path d="M12.9188 290.364L12.6066 290.24C12.4013 290.155 12.1789 290.056 11.9949 289.958C10.7434 289.322 9.60941 288.477 8.64166 287.459L8.43208 287.241C8.25672 287.044 8.08562 286.852 7.91454 286.647L7.68785 286.364C7.30045 285.874 6.94062 285.363 6.61001 284.833L6.43036 284.542C6.255 284.246 6.08819 283.943 5.92566 283.635C5.87006 283.536 5.81874 283.434 5.76741 283.327L5.59204 282.967L5.42524 282.604C5.38675 282.527 5.34825 282.445 5.31403 282.364C5.27981 282.283 5.22422 282.159 5.18572 282.052C4.92624 281.436 4.69385 280.798 4.48854 280.139C4.45005 280.024 4.41583 279.904 4.38162 279.789C4.27041 279.421 4.17203 279.048 4.08221 278.672C4.04799 278.535 4.01377 278.398 3.98383 278.244C3.75349 277.21 3.58921 276.163 3.49196 275.108C3.49196 274.958 3.46202 274.813 3.45347 274.68C3.39786 273.945 3.37221 273.196 3.38076 272.443C3.38076 272.293 3.38076 272.139 3.38076 271.989C3.41126 270.914 3.50265 269.841 3.65449 268.776L39.2233 24.919C40.6861 14.8823 47.6792 6.48848 55.083 5.79541C48.4192 6.47564 42.1232 14.0609 40.8016 23.1093L4.66818 270.856C3.39359 279.609 7.01206 287.977 12.9188 290.364Z" fill="url(#paint2_linear_18_1400)"/>
<path d="M151.978 23.4686L112.628 293.423C112.321 295.552 111.746 297.633 110.917 299.618C110.857 299.763 110.797 299.909 110.733 300.046C110.669 300.183 110.605 300.328 110.536 300.474C110.468 300.619 110.438 300.688 110.387 300.79C110.233 301.103 110.074 301.411 109.912 301.71C109.835 301.843 109.762 301.98 109.69 302.108C109.617 302.236 109.476 302.472 109.364 302.651C109.253 302.831 109.219 302.891 109.142 303.006C109.065 303.122 108.984 303.255 108.898 303.379C108.672 303.717 108.436 304.05 108.188 304.371C108.111 304.474 108.034 304.576 107.953 304.675C107.872 304.773 107.773 304.897 107.679 305.009C107.585 305.12 107.495 305.231 107.405 305.334C107.316 305.436 107.217 305.548 107.123 305.65C107.029 305.753 106.931 305.86 106.832 305.963C106.641 306.168 106.445 306.365 106.242 306.553C105.934 306.848 105.622 307.126 105.297 307.409L105.006 307.64C104.784 307.815 104.578 307.982 104.33 308.149L104.031 308.35C103.701 308.572 103.364 308.778 103.021 308.966C102.91 309.03 102.795 309.09 102.679 309.15C102.448 309.274 102.217 309.385 101.982 309.492C101.867 309.543 101.751 309.599 101.636 309.642C101.264 309.806 100.882 309.949 100.494 310.07C100.391 310.108 100.293 310.134 100.19 310.164C100.087 310.194 99.9504 310.237 99.8264 310.266L99.4586 310.356C99.1848 310.416 98.9111 310.472 98.6331 310.515L98.3422 310.557C97.9786 310.609 97.6108 310.639 97.243 310.656H96.858H96.4303C96.178 310.656 95.9256 310.634 95.6733 310.613L95.2883 310.57C102.559 311.327 109.382 304.726 110.789 295.062L150.686 21.5306C152.119 11.6908 147.222 3.78464 139.719 3.2627C148.077 3.74185 153.573 12.5293 151.978 23.4686Z" fill="url(#paint3_linear_18_1400)"/>
<path d="M112.607 293.415L112.316 295.395C110.648 306.835 102.149 314.378 93.4963 312.239L13.9413 292.585C6.59738 290.771 1.92244 280.905 3.428 270.569L3.68892 268.781C3.53707 269.846 3.44567 270.918 3.41517 271.994C3.41517 272.143 3.41517 272.297 3.41517 272.447C3.41517 273.2 3.41518 273.949 3.48789 274.685C3.48789 274.83 3.48789 274.976 3.52638 275.112C3.62363 276.167 3.78792 277.215 4.01825 278.248C4.04819 278.385 4.08241 278.522 4.11663 278.676C4.20645 279.053 4.30482 279.425 4.41602 279.793C4.45024 279.908 4.48446 280.028 4.52295 280.144C4.72826 280.803 4.96065 281.44 5.22013 282.056C5.25863 282.163 5.30567 282.266 5.34844 282.368C5.39121 282.471 5.42116 282.531 5.45965 282.608L5.62647 282.972L5.80182 283.331C5.85314 283.438 5.90448 283.541 5.96008 283.639C6.12262 283.947 6.28942 284.251 6.46479 284.546L6.64442 284.837C6.97503 285.367 7.33487 285.878 7.72227 286.368L7.94896 286.651C8.12004 286.856 8.29113 287.049 8.46649 287.245L8.67607 287.464C9.63645 288.477 10.7616 289.32 12.0037 289.958C12.2047 290.056 12.41 290.155 12.6153 290.24C12.8249 290.326 13.043 290.407 13.2483 290.484L13.5777 290.595C13.783 290.659 14.0054 290.719 14.2022 290.771L93.7872 310.288C94.0324 310.348 94.2762 310.399 94.5186 310.442L94.9078 310.506C95.1174 310.536 95.3355 310.562 95.5323 310.579H95.6777C95.93 310.604 96.1824 310.617 96.4347 310.622H96.8625H97.2474C97.6152 310.622 97.9831 310.575 98.3466 310.523L98.6375 310.48C98.9155 310.438 99.1892 310.382 99.463 310.322L99.8308 310.232C99.9548 310.202 100.075 310.168 100.194 310.13C100.314 310.091 100.395 310.074 100.498 310.035C100.887 309.915 101.268 309.772 101.64 309.608C101.756 309.565 101.871 309.514 101.986 309.458C102.222 309.351 102.453 309.24 102.684 309.116C102.799 309.06 102.915 308.996 103.026 308.932C103.368 308.739 103.706 308.538 104.035 308.316L104.335 308.115C104.561 307.948 104.788 307.781 105.01 307.605C105.109 307.533 105.203 307.456 105.301 307.374C105.626 307.105 105.939 306.827 106.247 306.519C106.448 306.331 106.649 306.134 106.837 305.928C106.935 305.826 107.034 305.723 107.128 305.616C107.222 305.509 107.32 305.411 107.41 305.299C107.5 305.188 107.598 305.086 107.684 304.974C107.769 304.863 107.868 304.756 107.957 304.641C108.047 304.525 108.116 304.44 108.193 304.337C108.441 304.016 108.676 303.682 108.903 303.344C108.988 303.219 109.069 303.095 109.146 302.972C109.223 302.857 109.296 302.737 109.369 302.617C109.442 302.497 109.587 302.258 109.694 302.074C109.801 301.89 109.844 301.813 109.916 301.676C110.079 301.376 110.237 301.068 110.391 300.756C110.442 300.653 110.494 300.546 110.541 300.439C110.588 300.332 110.673 300.157 110.738 300.012C110.802 299.866 110.862 299.725 110.921 299.584C111.74 297.606 112.306 295.534 112.607 293.415V293.415Z" fill="url(#paint4_linear_18_1400)"/>
<path d="M152.269 21.4879L151.978 23.4687C153.547 12.7005 148.252 4.01574 140.104 3.27561L139.715 3.24567H139.317C139.069 3.24567 138.825 3.24567 138.569 3.24567L55.7674 5.78692C55.5493 5.78692 55.3397 5.78692 55.1173 5.82542C47.7135 6.51849 40.7204 14.9123 39.2576 24.949L39.5185 23.1607C39.5441 22.9753 39.5741 22.7913 39.6083 22.6088C39.6083 22.4719 39.6511 22.335 39.6767 22.181C39.7323 21.8815 39.7879 21.582 39.8564 21.2868L39.959 20.8248C39.9804 20.7435 39.9975 20.6665 40.0189 20.5809C40.0403 20.4954 40.066 20.3884 40.0916 20.29C40.1173 20.1916 40.1729 19.982 40.2157 19.828C40.2884 19.5584 40.3654 19.2932 40.4466 19.028C40.4851 18.8953 40.5279 18.767 40.5707 18.6386C40.6947 18.245 40.8273 17.8643 40.9727 17.4835C41.0198 17.3637 41.0668 17.2439 41.1096 17.1241C41.1524 17.0044 41.2251 16.829 41.2849 16.6963L41.4389 16.337C41.4817 16.2386 41.5202 16.1402 41.5672 16.0418L41.7212 15.6867C41.764 15.5968 41.8025 15.5113 41.8453 15.4257L42.0335 15.0407C42.1404 14.8139 42.2559 14.5915 42.3713 14.369C42.4312 14.2578 42.4911 14.1465 42.5553 14.0353C42.6194 13.9241 42.6964 13.7743 42.7691 13.646C43.2674 12.7648 43.8187 11.9147 44.4201 11.1004C44.5056 10.9892 44.5869 10.8737 44.6767 10.7625C44.7666 10.6512 44.8692 10.51 44.9719 10.386C45.1344 10.1806 45.3012 9.97956 45.468 9.78276L46.0198 9.1667C46.208 8.96562 46.3961 8.76882 46.5886 8.5763L46.8795 8.29394C47.0719 8.1057 47.2687 7.92602 47.4697 7.74633C47.6707 7.56665 47.8675 7.40408 48.0728 7.23723C48.2781 7.07038 48.5005 6.91208 48.6887 6.75807L49.0052 6.53132C49.1079 6.45432 49.2148 6.38587 49.3174 6.31314L49.6382 6.1035L49.9633 5.89815C50.1771 5.76981 50.391 5.64573 50.6134 5.52594L50.9256 5.35909H50.9556L51.2721 5.20508L51.5843 5.05535L51.9436 4.90561L52.2772 4.77298L52.6194 4.64892C52.7306 4.60614 52.8461 4.56763 52.9616 4.53341C53.1883 4.4564 53.4192 4.39222 53.6502 4.33233L53.9924 4.25104C54.2362 4.19543 54.4843 4.14836 54.7323 4.10986C54.9804 4.07136 55.1258 4.05425 55.3183 4.03286L55.6819 4.00291H56.0411L138.851 1.29053H139.612C139.873 1.29053 140.13 1.29053 140.387 1.33331L140.772 1.37609L141.157 1.43171C141.285 1.43171 141.413 1.47449 141.537 1.49588L141.909 1.57289L142.277 1.66273L142.611 1.75257H142.683C142.786 1.7868 142.893 1.81675 142.996 1.85525C143.098 1.89376 143.287 1.94937 143.423 2.00499L143.71 2.11622C143.924 2.20178 144.138 2.29591 144.343 2.3943C144.488 2.4542 144.625 2.52693 144.771 2.59966C144.916 2.67239 144.972 2.70661 145.07 2.76223C145.168 2.81785 145.288 2.88202 145.395 2.95047L145.712 3.14727C146.473 3.63602 147.176 4.21017 147.807 4.85855C147.891 4.93303 147.97 5.01307 148.043 5.09812C148.325 5.39332 148.594 5.70563 148.851 6.03078C148.967 6.17623 149.078 6.32169 149.185 6.4586C149.633 7.07416 150.034 7.72353 150.382 8.4009C150.451 8.52496 150.511 8.64475 150.571 8.76882C150.703 9.02979 150.823 9.29076 150.934 9.55173C150.994 9.68436 151.05 9.82126 151.101 9.95816C151.199 10.1892 151.285 10.4288 151.37 10.6641C151.413 10.7881 151.452 10.9079 151.494 11.0277C151.567 11.2587 151.644 11.4898 151.708 11.7293C151.742 11.8448 151.777 11.9561 151.802 12.0759C151.914 12.4695 152.008 12.8716 152.093 13.2823C152.093 13.3893 152.132 13.4962 152.153 13.6032C152.23 14.031 152.294 14.4289 152.346 14.8524C152.346 15.0064 152.388 15.1605 152.401 15.3187C152.498 16.2452 152.541 17.1766 152.529 18.1081C152.529 18.2065 152.529 18.3092 152.529 18.4162C152.529 18.5231 152.529 18.7499 152.529 18.9167C152.529 19.0836 152.529 19.2504 152.5 19.4215C152.47 19.5927 152.474 19.7638 152.461 19.9307C152.431 20.2472 152.397 20.5595 152.358 20.8761C152.33 21.0843 152.3 21.2883 152.269 21.4879Z" fill="url(#paint5_linear_18_1400)"/>
<path d="M139.317 3.22852C139.074 3.22852 138.825 3.22852 138.569 3.22852L55.7674 5.76977C55.5493 5.76977 55.3397 5.76977 55.1173 5.80827C48.4192 6.47567 42.1233 14.0609 40.8016 23.1093L4.66823 270.856C3.38508 279.763 7.14042 288.272 13.2225 290.484L13.5519 290.595C13.7572 290.66 13.9796 290.719 14.1763 290.771L93.7614 310.288C94.0066 310.348 94.2504 310.399 94.4927 310.442L94.882 310.506C102.307 311.541 109.334 304.88 110.767 295.045L150.665 21.5136C152.14 11.5026 147.042 3.49376 139.317 3.22852ZM109.583 294.775C108.299 303.661 101.884 309.873 95.0659 308.932C94.9461 308.932 94.8221 308.898 94.6981 308.872C94.4757 308.833 94.2704 308.786 94.0266 308.731L14.4287 289.329C14.2319 289.282 14.0395 289.226 13.847 289.166L13.5519 289.068C7.94454 287.044 4.51852 279.155 5.69474 271.1L41.8453 23.1093C43.0514 14.8396 48.7614 7.8832 54.9248 7.25858H54.9547C55.1515 7.25858 55.3525 7.22863 55.5535 7.22436L138.338 4.79434C138.569 4.79434 138.8 4.79434 139.027 4.79434C146.139 5.05959 150.725 12.4095 149.394 21.5307L109.583 294.775Z" fill="#404040"/>
<path d="M149.394 21.6421L109.544 294.878C109.303 296.509 108.873 298.105 108.261 299.635C107.813 300.778 107.253 301.872 106.589 302.904C106.456 303.109 106.315 303.31 106.161 303.503C105.947 303.798 105.733 304.081 105.507 304.359C104.892 305.11 104.206 305.801 103.458 306.421C105.098 303.874 106.167 301.001 106.589 298.001L107.046 294.857C107.081 294.673 107.11 294.485 107.136 294.296L146.914 21.6507C146.939 21.4582 146.965 21.2657 146.986 21.0774L147.435 18.0014C147.91 15.0432 147.711 12.0161 146.854 9.14551C149.082 12.213 150.122 16.6923 149.394 21.6421Z" fill="url(#paint6_linear_18_1400)"/>
<path d="M138.753 6.35596H138.697C138.505 6.35596 138.308 6.35596 138.111 6.35596L55.3397 8.67047C55.1643 8.67047 54.9889 8.67046 54.8178 8.69613H54.7665H54.7409C49.1806 9.26941 43.9795 15.584 42.8846 23.0837L6.68275 271.314C5.61346 278.646 8.72722 285.804 13.8213 287.635L14.0651 287.716H14.0951C14.2661 287.768 14.4415 287.819 14.6169 287.862L94.2361 307.182C94.4371 307.229 94.6382 307.268 94.8392 307.302H94.8777C94.9765 307.323 95.0764 307.339 95.1771 307.349C101.358 308.204 107.153 302.553 108.342 294.514L148.154 21.565C149.36 13.2695 145.203 6.60409 138.753 6.35596ZM105.151 293.766C104.837 296.146 103.862 298.392 102.337 300.247C102.26 300.337 102.183 300.418 102.106 300.504C101.875 300.757 101.631 300.999 101.375 301.227C101.152 301.424 100.921 301.612 100.686 301.783C100.394 301.995 100.088 302.188 99.7707 302.36C99.4626 302.527 99.1424 302.67 98.8127 302.788V302.788C98.6501 302.852 98.4876 302.904 98.3208 302.955C98.1563 303.006 97.9892 303.049 97.8204 303.083C97.4808 303.156 97.1362 303.203 96.7896 303.225C96.3698 303.245 95.9491 303.229 95.5321 303.178H95.4166H95.361H95.3225H95.284H95.1771H95.0659L94.8435 303.131L15.1729 284.08L14.9804 284.028L14.788 283.968H14.7623H14.7323H14.6853L14.5869 283.93C10.8444 282.599 8.54758 277.346 9.33458 271.951L45.6305 23.0837C46.4303 17.6076 50.2028 13 54.2704 12.538H54.3388H54.4457C54.5583 12.5321 54.6711 12.5321 54.7836 12.538L137.508 10.5144H137.987C138.015 10.5101 138.044 10.5101 138.073 10.5144C138.159 10.5171 138.244 10.5242 138.329 10.5358H138.445L138.671 10.5657C138.766 10.5657 138.855 10.5914 138.945 10.6085C139.075 10.629 139.203 10.6561 139.33 10.6898L139.403 10.7112L139.711 10.801L140.139 10.9636C140.257 11.0065 140.373 11.0565 140.485 11.1133C140.61 11.1692 140.731 11.2321 140.849 11.3016C141.09 11.427 141.321 11.57 141.541 11.7294C141.744 11.8767 141.938 12.0352 142.123 12.2043C142.162 12.2463 142.204 12.2863 142.247 12.324L142.474 12.5465C142.572 12.6449 142.662 12.7519 142.756 12.8588C142.936 13.077 143.111 13.2866 143.274 13.5391C143.361 13.6558 143.44 13.7788 143.509 13.907C143.586 14.0325 143.659 14.1608 143.727 14.292C144.021 14.8286 144.26 15.3933 144.441 15.9776C144.54 16.2814 144.617 16.5937 144.689 16.9103C144.762 17.2269 144.818 17.552 144.865 17.89C144.886 18.0568 144.903 18.2237 144.92 18.3905C144.95 18.7627 144.972 19.1349 144.972 19.5157C144.972 19.6697 144.972 19.8195 144.972 19.9735C144.958 20.5263 144.91 21.0777 144.831 21.6249L105.151 293.766Z" fill="black"/>
<path d="M67.0677 17.0441C67.0677 16.9711 67.0377 16.9023 67.0249 16.8293C67.0233 16.8035 67.0233 16.7777 67.0249 16.752C67.0292 16.8508 67.0463 16.9496 67.0677 17.0441Z" fill="black"/>
<path d="M122.199 15.6353C122.185 15.663 122.172 15.6916 122.161 15.7208C122.123 15.7935 122.089 15.8706 122.046 15.9476L122.199 15.6353Z" fill="black"/>
<path d="M124.792 10.7671C124.065 10.8313 123.381 11.5543 123.175 12.4784C123.175 12.5597 123.145 12.6409 123.133 12.7222C123.073 13.0559 122.996 13.3896 122.906 13.7191C122.872 13.8346 122.842 13.9458 122.808 14.057C122.765 14.1939 122.722 14.3266 122.675 14.4592C122.628 14.5918 122.589 14.6988 122.547 14.8185L122.512 14.9041L122.478 14.994C122.478 15.0196 122.478 15.041 122.448 15.0667C122.43 15.1056 122.414 15.1456 122.401 15.1865C122.38 15.2293 122.363 15.2763 122.341 15.3191C122.299 15.4303 122.247 15.5373 122.2 15.6442L122.046 15.9566C122.049 15.9707 122.049 15.9852 122.046 15.9993C122.003 16.0892 121.956 16.1747 121.909 16.2603C121.862 16.3459 121.828 16.41 121.785 16.4828C121.774 16.5078 121.761 16.5321 121.747 16.5555L121.678 16.6667C121.651 16.7181 121.621 16.7681 121.589 16.8165V16.8593C121.578 16.8791 121.565 16.8977 121.55 16.9149C121.529 16.9491 121.512 16.9833 121.49 17.0133C121.469 17.0432 121.443 17.0903 121.417 17.1245L121.358 17.2186L121.319 17.27L121.246 17.3812C121.23 17.4072 121.212 17.4316 121.191 17.4539C121.169 17.495 121.143 17.5337 121.114 17.5694V17.5951C121.114 17.5951 121.114 17.5951 121.114 17.6165L121.028 17.7363L120.994 17.7833L120.896 17.9117L120.767 18.07C120.729 18.1264 120.686 18.1794 120.639 18.2283C120.614 18.2628 120.587 18.2956 120.558 18.3267C120.527 18.3643 120.494 18.4001 120.459 18.4336C120.433 18.4708 120.403 18.5052 120.37 18.5363C120.317 18.5979 120.262 18.6564 120.203 18.7117C120.163 18.7604 120.12 18.8062 120.074 18.8486L119.993 18.9299L119.801 19.1139L119.612 19.285L119.497 19.3834C119.455 19.4227 119.411 19.4599 119.364 19.4946L119.236 19.5973L119.176 19.6486L118.958 19.8112C118.903 19.8568 118.844 19.8983 118.783 19.9353C118.713 19.9882 118.64 20.0368 118.565 20.0807L118.479 20.1406L118.316 20.239C118.27 20.2701 118.221 20.2986 118.171 20.3246C118.128 20.3514 118.084 20.3757 118.038 20.3973L117.97 20.4358L117.91 20.4658C117.795 20.5257 117.688 20.5813 117.572 20.6283C117.457 20.6754 117.363 20.7225 117.26 20.761C117.157 20.7995 117.029 20.8508 116.918 20.885C116.689 20.9617 116.457 21.0246 116.221 21.0733C116.127 21.0733 116.028 21.1118 115.93 21.1246H115.87L115.622 21.1503L115.34 21.176H115.143L72.0163 21.8391H71.935C71.8495 21.8391 71.7639 21.8391 71.6784 21.8391C71.6043 21.8432 71.5301 21.8432 71.456 21.8391H71.4047C71.3191 21.8391 71.2336 21.8134 71.148 21.8006C70.9483 21.758 70.7512 21.7037 70.5578 21.638C70.4594 21.6081 70.3696 21.5696 70.2712 21.531L70.0189 21.4113C69.929 21.3685 69.8435 21.3171 69.7537 21.2658L69.7066 21.2359L69.6553 21.2016C69.619 21.1838 69.5846 21.1623 69.5527 21.1375L69.4414 21.0604L69.3217 20.9663C69.2997 20.9517 69.2796 20.9345 69.2618 20.915C69.2038 20.8758 69.1494 20.8314 69.0993 20.7824C69.0539 20.7485 69.0123 20.7098 68.9752 20.6668L68.817 20.5171C68.8021 20.5032 68.7892 20.4874 68.7785 20.4701C68.744 20.442 68.7125 20.4104 68.6844 20.3759V20.3759C68.6508 20.3438 68.6194 20.3095 68.5903 20.2733L68.5133 20.1834L68.3893 20.0251L68.261 19.854L68.2096 19.7813C68.18 19.7401 68.1529 19.6973 68.1284 19.6529C68.0892 19.6005 68.0549 19.5447 68.0257 19.4861C68.0038 19.4584 67.9851 19.4282 67.9701 19.3962C67.9487 19.362 67.9273 19.3321 67.9102 19.2978C67.892 19.2678 67.8763 19.2363 67.8632 19.2037V19.2037C67.847 19.1799 67.834 19.154 67.8247 19.1267C67.7862 19.0497 67.7477 18.977 67.7135 18.9C67.693 18.8615 67.6759 18.8215 67.6622 18.7802C67.6525 18.7673 67.6452 18.7528 67.6408 18.7374C67.6408 18.7032 67.6108 18.6647 67.5937 18.6262V18.6048C67.5956 18.5963 67.5956 18.5875 67.5937 18.5791C67.5765 18.5467 67.5636 18.5121 67.5552 18.4764C67.5427 18.4533 67.5327 18.4289 67.5253 18.4037C67.5253 18.3752 67.5124 18.3409 67.4868 18.301C67.4844 18.2854 67.4844 18.2695 67.4868 18.2539C67.4736 18.2262 67.4621 18.1976 67.4526 18.1684C67.4526 18.1342 67.4312 18.0999 67.4184 18.0614C67.4055 18.0229 67.4184 18.0058 67.3884 17.9716C67.3897 17.9531 67.3897 17.9345 67.3884 17.916C67.3884 17.916 67.3884 17.8903 67.3884 17.8775C67.371 17.8314 67.3567 17.7842 67.3456 17.7363C67.3456 17.7021 67.3243 17.6721 67.3157 17.6336C67.3176 17.6108 67.3176 17.5879 67.3157 17.5652C67.3157 17.501 67.2815 17.4283 67.2644 17.3555C67.2473 17.2828 67.2259 17.1972 67.2088 17.1159V17.0946C67.2064 17.0804 67.2064 17.0659 67.2088 17.0518C67.1874 16.9576 67.1703 16.8593 67.1575 16.7609C67.1446 16.6625 67.1232 16.5598 67.1147 16.4528C67.1126 16.4115 67.1126 16.3701 67.1147 16.3288V16.2132C67.1122 16.1919 67.1122 16.1704 67.1147 16.1491V16.0635C67.1147 16.0378 67.1147 16.0079 67.1147 15.9865C67.1147 15.871 67.1147 15.7598 67.0933 15.6442C67.0719 15.5287 67.0933 15.3918 67.0933 15.2635C67.0933 15.1608 67.0933 15.0539 67.0933 14.9426C67.0979 14.628 67.1193 14.3138 67.1575 14.0014C67.162 13.9226 67.1706 13.8441 67.1831 13.7661C67.243 12.9105 66.8153 12.2473 66.178 12.2174L124.792 10.7671Z" fill="black"/>
<path d="M71.657 21.8687C71.7425 21.8687 71.828 21.8687 71.9136 21.8687H71.7682H71.6185H71.4517C71.5201 21.8721 71.5886 21.8721 71.657 21.8687Z" fill="black"/>
<path d="M115.742 21.1673H115.558C115.502 21.1736 115.446 21.1736 115.391 21.1673H115.233L115.515 21.1416L115.742 21.1673Z" fill="black"/>
<path d="M66.9736 16.4427C66.9757 16.4062 66.9757 16.3695 66.9736 16.333C66.972 16.3696 66.972 16.4062 66.9736 16.4427V16.4427Z" fill="black"/>
<path d="M67.0677 17.0441C67.0677 16.9711 67.0377 16.9023 67.0249 16.8293C67.0233 16.8035 67.0233 16.7777 67.0249 16.752C67.0292 16.8508 67.0463 16.9496 67.0677 17.0441Z" fill="black"/>
<path d="M67.5889 18.7283C67.5677 18.6899 67.5507 18.6431 67.5295 18.5962V18.6175C67.5592 18.6558 67.5719 18.6942 67.5889 18.7283Z" fill="black"/>
<path d="M67.7771 19.1179C67.7496 19.0726 67.7254 19.0254 67.7047 18.9767C67.6888 18.9491 67.6746 18.9205 67.6621 18.8911C67.7004 18.9681 67.7388 19.0409 67.7771 19.1179Z" fill="black"/>
<path d="M67.8672 19.2885C67.8469 19.2592 67.8298 19.2278 67.8162 19.1948C67.8305 19.2274 67.8476 19.2588 67.8672 19.2885V19.2885Z" fill="black"/>
<path d="M68.4706 20.1746C68.4278 20.1276 68.3851 20.072 68.3466 20.0206C68.3189 19.9889 68.2946 19.9545 68.2739 19.9179C68.253 19.8956 68.2344 19.8712 68.2183 19.8452L68.3466 20.0163L68.4706 20.1746Z" fill="black"/>
<path d="M68.5476 20.2646C68.5761 20.3004 68.607 20.3341 68.6399 20.3658L68.6105 20.3405L68.5476 20.2646Z" fill="black"/>
<path d="M68.9466 20.6604L68.8543 20.5803L68.7957 20.5171L68.9466 20.6604Z" fill="black"/>
<path d="M69.9988 21.399C69.9257 21.3603 69.8484 21.326 69.7754 21.2787L69.7324 21.2529C69.8054 21.3217 69.9086 21.3732 69.9988 21.399Z" fill="black"/>
<path d="M70.2328 21.5353C70.3312 21.5738 70.421 21.6123 70.5194 21.6423C70.4537 21.624 70.3894 21.6011 70.3269 21.5738L70.2328 21.5396L70.1088 21.4797C70.0644 21.4618 70.0215 21.4403 69.9805 21.4155L70.2328 21.5353Z" fill="black"/>
<path d="M71.1266 21.8261C71.2122 21.8261 71.2977 21.8561 71.3833 21.8646C71.3068 21.8598 71.231 21.8484 71.1566 21.8304C71.1566 21.8304 71.1352 21.8304 71.1266 21.8304L71.0282 21.8047C70.9603 21.7936 70.8931 21.7779 70.8272 21.7577L70.5749 21.6807H70.5364C70.7301 21.7406 70.9272 21.7892 71.1266 21.8261V21.8261Z" fill="black"/>
<path d="M71.6551 21.8687H71.5576H71.4517C71.5194 21.8721 71.5874 21.8721 71.6551 21.8687Z" fill="black"/>
<path d="M115.143 21.2227H115.053L72.0976 21.8858H72.0164L115.143 21.2227Z" fill="black"/>
<path d="M115.494 21.1928L115.743 21.167H115.623H115.515L115.494 21.1928Z" fill="black"/>
<path d="M116.092 21.1072C116.328 21.0585 116.561 20.9956 116.79 20.9189L116.738 20.9403L116.439 21.0259C116.363 21.0505 116.286 21.0691 116.208 21.0815L116.092 21.1115H116.058C115.973 21.1115 115.887 21.1457 115.802 21.1542C115.9 21.1457 115.998 21.1243 116.092 21.1072Z" fill="black"/>
<path d="M117.444 20.6621C117.392 20.6907 117.337 20.715 117.281 20.7348L117.132 20.799L117.016 20.8418L116.79 20.9188C116.901 20.8846 117.016 20.8418 117.132 20.7947C117.247 20.7477 117.337 20.7092 117.444 20.6621Z" fill="black"/>
<path d="M117.444 20.6626C117.56 20.6155 117.666 20.5599 117.782 20.5L117.709 20.5428C117.623 20.5873 117.535 20.6273 117.444 20.6626V20.6626Z" fill="black"/>
<path d="M118.851 19.8357L119.067 19.6738L118.987 19.742L118.851 19.8357Z" fill="black"/>
<path d="M119.393 19.4043L119.3 19.4895L119.262 19.5151C119.307 19.4805 119.351 19.4435 119.393 19.4043V19.4043Z" fill="black"/>
<path d="M119.891 18.9512L119.809 19.0325L119.698 19.1394C119.634 19.195 119.574 19.2549 119.51 19.3063L119.698 19.1351L119.891 18.9512Z" fill="black"/>
<path d="M120.539 18.2495C120.513 18.2837 120.485 18.3161 120.455 18.3465C120.484 18.3159 120.51 18.2835 120.535 18.2495H120.539Z" fill="black"/>
<path d="M120.803 17.9243L120.732 18.0128L120.673 18.0802L120.799 17.9243H120.803Z" fill="black"/>
<path d="M121.044 17.6079L120.938 17.7479L121.023 17.6291C121.023 17.6291 121.036 17.6164 121.044 17.6079Z" fill="black"/>
<path d="M122.199 15.6353C122.185 15.663 122.172 15.6916 122.161 15.7208C122.123 15.7935 122.089 15.8706 122.046 15.9476L122.199 15.6353Z" fill="black"/>
<path d="M122.414 15.1777L122.363 15.2975C122.363 15.2676 122.38 15.2205 122.414 15.1777Z" fill="black"/>
<path d="M107.016 294.857L106.589 298.001C106.175 300.994 105.119 303.862 103.492 306.408C101.033 308.431 98.0813 309.403 95.0573 309.009C94.9337 308.994 94.8109 308.973 94.6895 308.945C94.4671 308.911 94.2618 308.863 94.018 308.808L14.3987 289.398C14.2063 289.351 14.0095 289.295 13.8213 289.235L13.5219 289.137C13.3851 289.085 13.2425 289.03 13.0942 288.97C10.7717 287.999 8.85128 286.005 7.53392 283.408C6.8948 280.638 6.78019 277.772 7.19602 274.959L7.68362 271.609C7.12759 275.434 7.83759 279.207 9.42441 282.013C10.5707 284.05 12.1832 285.582 14.1079 286.27C14.1683 286.298 14.2313 286.32 14.2961 286.334H14.3218H14.3517C14.5057 286.386 14.6639 286.429 14.8222 286.467L94.4585 305.685C94.6339 305.728 94.8178 305.762 94.9975 305.792H95.0359H95.0659C95.1475 305.81 95.2305 305.823 95.314 305.83C100.707 306.579 105.793 301.792 107.016 294.857Z" fill="url(#paint7_linear_18_1400)"/>
<path d="M149.407 21.5607V21.5308C150.737 12.4096 146.152 5.05968 139.039 4.79443C138.817 4.79443 138.586 4.79443 138.351 4.79443L55.5663 7.22445C55.3653 7.22445 55.1643 7.22445 54.9675 7.25868H54.9376C54.6852 7.28434 54.4329 7.31857 54.1848 7.36563C51.6442 7.83623 49.2148 9.35927 47.1831 11.5754C45.7806 14.1031 44.8487 16.8645 44.4329 19.7254L43.9453 23.0795C44.4518 19.4218 46.0842 16.0126 48.616 13.3252C50.361 11.5497 52.4312 10.3818 54.574 10.155H54.6254H54.6981C54.8606 10.155 55.006 10.1336 55.1258 10.1336L137.88 7.92607H138.458C144.095 8.15282 147.778 13.8471 146.965 21.0003L147.414 17.9242C147.884 14.9673 147.685 11.9426 146.832 9.07264C149.095 12.1273 150.134 16.5894 149.407 21.5607Z" fill="url(#paint8_linear_18_1400)"/>
<path d="M7.53827 283.344C5.78036 279.96 5.02329 275.553 5.67342 271.082L41.8453 23.1093C42.44 18.8179 44.2914 14.7987 47.1661 11.5581C45.7668 14.0869 44.8365 16.848 44.4202 19.7081L7.20892 274.881C6.78815 277.698 6.89987 280.568 7.53827 283.344V283.344Z" fill="url(#paint9_linear_18_1400)"/>
<path d="M149.411 21.5695L109.583 294.805C109.342 296.437 108.911 298.035 108.299 299.567C107.846 300.706 107.281 301.798 106.614 302.827C106.482 303.032 106.34 303.229 106.186 303.426C105.977 303.721 105.759 304.004 105.532 304.282C104.916 305.047 104.222 305.747 103.462 306.369V306.344C105.099 303.797 106.166 300.927 106.589 297.929L147.427 17.9288C147.897 14.9718 147.699 11.947 146.845 9.07715C149.099 12.1403 150.139 16.5982 149.411 21.5695Z" fill="url(#paint10_linear_18_1400)"/>
<path d="M100.241 14.3561L88.167 14.6171C87.8633 14.6171 87.6666 14.309 87.7393 13.9112L87.7906 13.5432C87.8027 13.3665 87.8731 13.1988 87.9907 13.0664C88.1084 12.934 88.2667 12.8444 88.4407 12.8117L100.519 12.5293C100.827 12.5293 101.033 12.8416 100.973 13.2438L100.917 13.616C100.904 13.7974 100.83 13.9691 100.708 14.1034C100.585 14.2377 100.421 14.3267 100.241 14.3561V14.3561Z" fill="url(#paint11_linear_18_1400)"/>
<path d="M144.852 21.5992L105.151 293.766C104.837 296.146 103.862 298.392 102.337 300.247C102.26 300.337 102.183 300.418 102.106 300.504C101.867 300.76 101.627 301.004 101.375 301.227C101.122 301.449 100.921 301.612 100.686 301.783C100.394 301.995 100.088 302.188 99.7708 302.36C99.4614 302.524 99.1413 302.667 98.8127 302.788C98.6502 302.848 98.4876 302.9 98.3208 302.955C98.1583 303.006 97.9872 303.045 97.8204 303.083C97.4804 303.154 97.136 303.201 96.7896 303.225C96.3699 303.245 95.9492 303.229 95.5321 303.178H95.4166H95.361H95.3054L95.1899 303.152H95.0788L94.8563 303.105L15.1729 284.08L14.9805 284.028L14.788 283.973H14.7367H14.711L14.6126 283.934C10.8701 282.604 8.57328 277.35 9.36028 271.955L45.6562 23.088C46.4561 17.6119 50.2285 13.0043 54.2961 12.5423H54.3645H54.4714C54.584 12.5364 54.6968 12.5364 54.8093 12.5423L66.0069 12.2685C66.6442 12.2984 67.0719 12.9572 67.0121 13.8172C67.0121 13.8771 67.0121 13.937 66.9907 13.9968V14.0225C66.9907 14.0225 66.9907 14.0225 66.9907 14.0525C66.9526 14.3648 66.9311 14.679 66.9265 14.9937C66.9265 15.1049 66.9265 15.2119 66.9265 15.3145C66.9265 15.4429 66.9265 15.5712 66.9265 15.6953C66.9265 15.8194 66.9265 15.922 66.9479 16.0376C66.9479 16.0376 66.9479 16.0889 66.9479 16.1146V16.2001C66.9455 16.2214 66.9455 16.243 66.9479 16.2643V16.3798C66.95 16.4169 66.95 16.454 66.9479 16.491V16.491C66.9479 16.598 66.9736 16.6964 66.9907 16.7991C67.0078 16.9017 67.0206 16.9959 67.042 17.09C67.0396 17.1041 67.0396 17.1186 67.042 17.1328V17.1199C67.042 17.2012 67.0805 17.2825 67.0976 17.3595C67.1147 17.4365 67.1318 17.505 67.1489 17.5691C67.1509 17.5919 67.1509 17.6148 67.1489 17.6376C67.1489 17.6761 67.1489 17.706 67.1789 17.7403C67.1899 17.7882 67.2042 17.8354 67.2216 17.8815C67.2216 17.8815 67.2216 17.9071 67.2216 17.92C67.2229 17.9385 67.2229 17.9571 67.2216 17.9756C67.2216 18.0098 67.243 18.0398 67.2516 18.0654C67.2601 18.0911 67.273 18.1382 67.2858 18.1724C67.2953 18.2016 67.3068 18.2302 67.32 18.2579C67.3176 18.2735 67.3176 18.2894 67.32 18.305C67.32 18.3421 67.3328 18.3763 67.3585 18.4077C67.3659 18.4329 67.3759 18.4573 67.3884 18.4804C67.3968 18.5161 67.4098 18.5506 67.4269 18.5831C67.4288 18.5915 67.4288 18.6003 67.4269 18.6087V18.6301C67.4269 18.6686 67.4569 18.7071 67.474 18.7414C67.4785 18.7568 67.4857 18.7713 67.4954 18.7842C67.5091 18.8255 67.5263 18.8655 67.5467 18.9039V18.9039C67.5569 18.9336 67.5698 18.9622 67.5852 18.9895C67.606 19.0382 67.6303 19.0854 67.6579 19.1307C67.6673 19.158 67.6802 19.1839 67.6964 19.2077C67.7095 19.2403 67.7252 19.2718 67.7434 19.3018C67.7434 19.336 67.7819 19.366 67.8033 19.4002C67.8183 19.4322 67.837 19.4624 67.8589 19.4901C67.8881 19.5486 67.9224 19.6045 67.9616 19.6569C67.9861 19.7013 68.0132 19.7441 68.0428 19.7853L68.0942 19.858C68.1103 19.884 68.1289 19.9084 68.1498 19.9307C68.1716 19.9652 68.1959 19.9981 68.2225 20.0291C68.261 20.0805 68.3038 20.1361 68.3465 20.1831L68.4235 20.273L68.4877 20.35L68.5176 20.3756C68.5457 20.4102 68.5772 20.4417 68.6117 20.4698C68.6224 20.4871 68.6353 20.5029 68.6502 20.5168L68.7101 20.581L68.8042 20.6623C68.8412 20.7052 68.8828 20.7439 68.9282 20.7778C68.9783 20.8268 69.0327 20.8712 69.0907 20.9104C69.1085 20.9299 69.1286 20.9472 69.1506 20.9618L69.2704 21.0559L69.3816 21.1329C69.4136 21.1577 69.4479 21.1792 69.4842 21.1971C69.4989 21.2118 69.5163 21.2235 69.5356 21.2313L69.5826 21.2612C69.5968 21.2723 69.6127 21.2809 69.6297 21.2869C69.7024 21.334 69.7794 21.3682 69.8521 21.4067C69.8931 21.4315 69.936 21.4529 69.9804 21.4709L70.1044 21.5265L70.1985 21.5607C70.261 21.588 70.3253 21.6108 70.391 21.6292H70.4295L70.6818 21.7062C70.7477 21.7264 70.8149 21.7421 70.8829 21.7532H70.9813C70.9813 21.7532 70.9813 21.7532 71.0112 21.7532C71.0856 21.7712 71.1615 21.7827 71.2379 21.7875H71.2892H71.3961H71.456H71.6057C71.6811 21.7939 71.757 21.7939 71.8324 21.7875H71.9137L114.869 21.1243H115.143C115.225 21.1307 115.308 21.1307 115.391 21.1243C115.446 21.1307 115.502 21.1307 115.558 21.1243H115.622H115.742H115.802C115.887 21.1243 115.973 21.0987 116.058 21.0815H116.092L116.208 21.0559C116.286 21.0434 116.363 21.0248 116.439 21.0003L116.738 20.9147L116.79 20.8933L117.016 20.8163L117.132 20.7735C117.183 20.7573 117.233 20.7373 117.281 20.7136C117.337 20.6938 117.392 20.6695 117.444 20.6409C117.534 20.6126 117.622 20.5798 117.709 20.5425C117.73 20.5351 117.75 20.5251 117.769 20.5125L117.829 20.4826L117.897 20.4441C117.943 20.4224 117.987 20.3981 118.03 20.3714C118.08 20.3454 118.128 20.3168 118.175 20.2858L118.338 20.1874L118.423 20.1275C118.499 20.0835 118.572 20.035 118.642 19.9821C118.703 19.945 118.762 19.9036 118.817 19.858L118.945 19.7681L119.027 19.6997L119.086 19.6484L119.215 19.5457L119.253 19.52L119.347 19.4344L119.463 19.336C119.527 19.2847 119.587 19.2248 119.651 19.1692L119.762 19.0665L119.843 18.9852L119.925 18.9039C119.971 18.8615 120.014 18.8158 120.053 18.767C120.112 18.7118 120.168 18.6532 120.22 18.5916C120.253 18.5606 120.283 18.5261 120.31 18.489C120.345 18.4554 120.378 18.4197 120.408 18.382C120.437 18.351 120.464 18.3181 120.489 18.2836V18.2836C120.537 18.2347 120.58 18.1818 120.618 18.1253L120.678 18.0569C120.703 18.0288 120.726 17.9987 120.746 17.967V17.967L120.844 17.8387L120.879 17.7916L120.964 17.6718C120.964 17.6718 120.964 17.6718 120.964 17.6504V17.6248C120.994 17.589 121.019 17.5503 121.041 17.5093C121.062 17.4869 121.081 17.4625 121.097 17.4365L121.169 17.3253L121.208 17.274L121.268 17.1798C121.293 17.1456 121.315 17.1071 121.34 17.0686C121.366 17.0301 121.379 17.0044 121.4 16.9702C121.415 16.953 121.428 16.9344 121.439 16.9146V16.8718C121.471 16.8234 121.501 16.7735 121.529 16.7221L121.597 16.6108C121.612 16.5875 121.624 16.5632 121.636 16.5381C121.678 16.4654 121.721 16.3926 121.76 16.3156C121.798 16.2386 121.854 16.1445 121.896 16.0547C121.899 16.0405 121.899 16.026 121.896 16.0119L122.05 15.6996C122.098 15.5926 122.149 15.4857 122.192 15.3744L122.243 15.2546C122.256 15.2137 122.272 15.1737 122.29 15.1349C122.29 15.1092 122.29 15.0878 122.32 15.0621L122.354 14.9723L122.388 14.8867C122.431 14.7669 122.478 14.6471 122.517 14.5273C122.555 14.4076 122.607 14.2621 122.649 14.1252C122.683 14.014 122.713 13.9027 122.748 13.7872C122.837 13.4578 122.914 13.1241 122.974 12.7904C122.976 12.7791 122.976 12.7675 122.974 12.7562V12.7305C122.974 12.6706 122.974 12.6064 123.004 12.5465C123.21 11.6353 123.894 10.9123 124.621 10.8353L137.337 10.5229H137.927C138.005 10.5258 138.082 10.533 138.158 10.5443H138.274L138.5 10.5743L138.774 10.6171L139.159 10.6984L139.232 10.7197L139.54 10.8096L139.967 10.9722L140.314 11.1219C140.438 11.1818 140.562 11.246 140.677 11.3101C140.916 11.4397 141.148 11.5826 141.37 11.738C141.567 11.8877 141.764 12.0417 141.952 12.2128C141.991 12.2549 142.033 12.2949 142.076 12.3326L142.303 12.5551L142.585 12.8674C142.765 13.0856 142.94 13.2952 143.103 13.5476C143.184 13.6674 143.265 13.7915 143.338 13.9156C143.411 14.0396 143.488 14.168 143.556 14.3006C143.846 14.8393 144.085 15.4035 144.27 15.9862C144.369 16.29 144.446 16.6023 144.518 16.9189C144.591 17.2354 144.647 17.5606 144.694 17.8986C144.715 18.0654 144.732 18.2323 144.749 18.3991C144.779 18.7713 144.801 19.1435 144.801 19.5243C144.801 19.674 144.801 19.828 144.801 19.9821C144.849 20.5196 144.866 21.0596 144.852 21.5992V21.5992Z" fill="url(#paint12_linear_18_1400)"/>
</g>
<defs>
<linearGradient id="paint0_linear_18_1400" x1="99.45" y1="157.034" x2="162.316" y2="157.034" gradientUnits="userSpaceOnUse">
<stop stop-color="#333333"/>
<stop offset="0.37" stop-color="#848484"/>
<stop offset="0.66" stop-color="#BFBFBF"/>
<stop offset="0.88" stop-color="#E3E3E3"/>
<stop offset="1" stop-color="#F1F1F1"/>
</linearGradient>
<linearGradient id="paint1_linear_18_1400" x1="77.4739" y1="312.963" x2="81.7376" y2="-0.138381" gradientUnits="userSpaceOnUse">
<stop stop-color="#F1F1F1"/>
<stop offset="0.43" stop-color="#EFEFEF"/>
<stop offset="0.62" stop-color="#E8E8E8"/>
<stop offset="0.76" stop-color="#DBDBDB"/>
<stop offset="0.88" stop-color="#C9C9C9"/>
<stop offset="0.98" stop-color="#B2B2B2"/>
<stop offset="1" stop-color="#ACACAC"/>
</linearGradient>
<linearGradient id="paint2_linear_18_1400" x1="21.8558" y1="145.684" x2="23.4352" y2="145.907" gradientUnits="userSpaceOnUse">
<stop stop-color="#666666"/>
<stop offset="0.06" stop-color="#727272"/>
<stop offset="0.33" stop-color="#A8A8A8"/>
<stop offset="0.57" stop-color="#D0D0D0"/>
<stop offset="0.76" stop-color="#E8E8E8"/>
<stop offset="0.87" stop-color="#F1F1F1"/>
<stop offset="0.95" stop-color="#F7F7F7"/>
<stop offset="1" stop-color="white"/>
</linearGradient>
<linearGradient id="paint3_linear_18_1400" x1="131.762" y1="158.098" x2="133.578" y2="158.355" gradientUnits="userSpaceOnUse">
<stop stop-color="white"/>
<stop offset="0.05" stop-color="#F7F7F7"/>
<stop offset="0.13" stop-color="#F1F1F1"/>
<stop offset="0.24" stop-color="#E8E8E8"/>
<stop offset="0.43" stop-color="#D0D0D0"/>
<stop offset="0.67" stop-color="#A8A8A8"/>
<stop offset="0.94" stop-color="#727272"/>
<stop offset="1" stop-color="#666666"/>
</linearGradient>
<linearGradient id="paint4_linear_18_1400" x1="55.3808" y1="306.097" x2="58.7884" y2="282.006" gradientUnits="userSpaceOnUse">
<stop stop-color="#F1F1F1"/>
<stop offset="0.12" stop-color="#E3E3E3"/>
<stop offset="0.34" stop-color="#BFBFBF"/>
<stop offset="0.63" stop-color="#848484"/>
<stop offset="1" stop-color="#333333"/>
</linearGradient>
<linearGradient id="paint5_linear_18_1400" x1="96.1387" y1="23.3693" x2="101.418" y2="-13.9571" gradientUnits="userSpaceOnUse">
<stop stop-color="#333333"/>
<stop offset="0.07" stop-color="#4C4C4C"/>
<stop offset="0.25" stop-color="#828282"/>
<stop offset="0.42" stop-color="#AFAFAF"/>
<stop offset="0.59" stop-color="#D2D2D2"/>
<stop offset="0.74" stop-color="#EBEBEB"/>
<stop offset="0.89" stop-color="#FAFAFA"/>
<stop offset="1" stop-color="white"/>
</linearGradient>
<linearGradient id="paint6_linear_18_1400" x1="125.395" y1="156.999" x2="130.544" y2="157.727" gradientUnits="userSpaceOnUse">
<stop stop-color="#F0F0F0"/>
<stop offset="0.14" stop-color="#B7B7B7"/>
<stop offset="0.27" stop-color="#888888"/>
<stop offset="0.4" stop-color="#636363"/>
<stop offset="0.51" stop-color="#494949"/>
<stop offset="0.62" stop-color="#393939"/>
<stop offset="0.7" stop-color="#333333"/>
</linearGradient>
<linearGradient id="paint7_linear_18_1400" x1="6.8018" y1="283.263" x2="107.433" y2="297.49" gradientUnits="userSpaceOnUse">
<stop/>
<stop offset="0.1" stop-color="#141414"/>
<stop offset="0.26" stop-color="#2C2C2C"/>
<stop offset="0.4" stop-color="#3B3B3B"/>
<stop offset="0.52" stop-color="#404040"/>
<stop offset="0.63" stop-color="#393939"/>
<stop offset="0.79" stop-color="#242424"/>
<stop offset="0.99" stop-color="#020202"/>
<stop offset="1"/>
</linearGradient>
<linearGradient id="paint8_linear_18_1400" x1="46.6507" y1="6.84348" x2="149.822" y2="21.4299" gradientUnits="userSpaceOnUse">
<stop/>
<stop offset="0.1" stop-color="#141414"/>
<stop offset="0.26" stop-color="#2C2C2C"/>
<stop offset="0.4" stop-color="#3B3B3B"/>
<stop offset="0.52" stop-color="#404040"/>
<stop offset="0.63" stop-color="#393939"/>
<stop offset="0.79" stop-color="#242424"/>
<stop offset="0.99" stop-color="#020202"/>
<stop offset="1"/>
</linearGradient>
<linearGradient id="paint9_linear_18_1400" x1="24.0891" y1="146.324" x2="26.6594" y2="146.687" gradientUnits="userSpaceOnUse">
<stop stop-color="#404040"/>
<stop offset="0.64" stop-color="#1A1A1A"/>
<stop offset="1" stop-color="#0A0A0A"/>
</linearGradient>
<linearGradient id="paint10_linear_18_1400" x1="125.394" y1="156.943" x2="130.56" y2="157.673" gradientUnits="userSpaceOnUse">
<stop stop-color="#0A0A0A"/>
<stop offset="0.36" stop-color="#1A1A1A"/>
<stop offset="1" stop-color="#404040"/>
</linearGradient>
<linearGradient id="paint11_linear_18_1400" x1="88.3905" y1="12.0043" x2="101.267" y2="13.8249" gradientUnits="userSpaceOnUse">
<stop stop-color="#333333"/>
<stop offset="0.09" stop-color="#2B2B2B"/>
<stop offset="0.29" stop-color="#1E1E1E"/>
<stop offset="0.48" stop-color="#1A1A1A"/>
<stop offset="0.79" stop-color="#1C1C1C"/>
<stop offset="0.9" stop-color="#232323"/>
<stop offset="0.98" stop-color="#2E2E2E"/>
<stop offset="1" stop-color="#333333"/>
</linearGradient>
<linearGradient id="paint12_linear_18_1400" x1="4.25661" y1="48.7138" x2="160.683" y2="256.618" gradientUnits="userSpaceOnUse">
<stop stop-color="#F2F3F4"/>
<stop offset="0.36" stop-color="#EDEEEF"/>
<stop offset="0.78" stop-color="#DFE0E0"/>
<stop offset="1" stop-color="#D5D6D6"/>
</linearGradient>
<clipPath id="clip0_18_1400">
<rect width="161.925" height="312.698" fill="white" transform="translate(0.391113 0.666016)"/>
</clipPath>
</defs>
</svg>
