<svg width="10" height="10" viewBox="0 0 10 10" fill="none" xmlns="http://www.w3.org/2000/svg">
<path fill-rule="evenodd" clip-rule="evenodd" d="M1.4585 4.29898C1.4585 2.38237 3.06011 0.833252 4.99743 0.833252C6.94021 0.833252 8.54183 2.38237 8.54183 4.29898C8.54183 5.26479 8.19058 6.16143 7.61245 6.92141C6.97466 7.75972 6.18856 8.49011 5.30372 9.06343C5.10121 9.19593 4.91844 9.20593 4.69618 9.06343C3.8063 8.49011 3.0202 7.75972 2.38787 6.92141C1.80932 6.16143 1.4585 5.26479 1.4585 4.29898ZM3.83109 4.4069C3.83109 5.04896 4.35502 5.55395 4.99743 5.55395C5.64026 5.55395 6.16923 5.04896 6.16923 4.4069C6.16923 3.76983 5.64026 3.24027 4.99743 3.24027C4.35502 3.24027 3.83109 3.76983 3.83109 4.4069Z" fill="#42A7C3"/>
</svg>
