<svg width="38" height="37" viewBox="0 0 38 37" fill="none" xmlns="http://www.w3.org/2000/svg">
<path d="M19.2604 0.635742C9.04522 0.635742 0.762451 8.61978 0.762451 18.4665C0.762451 28.3132 9.04522 36.2972 19.2604 36.2972C29.4755 36.2972 37.7583 28.3132 37.7583 18.4665C37.7583 8.61978 29.4755 0.635742 19.2604 0.635742ZM28.1501 14.0765C28.1625 14.2635 28.1625 14.4586 28.1625 14.6496C28.1625 20.4924 23.5463 27.2227 15.1107 27.2227C12.5095 27.2227 10.0981 26.4943 8.06665 25.2406C8.43826 25.2804 8.79336 25.2963 9.17322 25.2963C11.3203 25.2963 13.294 24.5958 14.8671 23.4098C12.8522 23.3699 11.1593 22.0963 10.5812 20.3451C11.2873 20.4446 11.9231 20.4446 12.6498 20.2655C11.6123 20.0623 10.6798 19.5192 10.0107 18.7283C9.34151 17.9375 8.97704 16.9477 8.97916 15.9272V15.8715C9.58612 16.2018 10.3004 16.4048 11.0478 16.4327C10.4195 16.0291 9.90429 15.4823 9.54777 14.8408C9.19124 14.1992 9.00444 13.4828 9.00393 12.7551C9.00393 11.9312 9.2269 11.179 9.62741 10.5262C10.779 11.8927 12.216 13.0104 13.845 13.8065C15.4741 14.6026 17.2587 15.0594 19.0828 15.1471C18.4346 12.1421 20.7633 9.71032 23.5628 9.71032C24.8841 9.71032 26.0732 10.2437 26.9114 11.1033C27.9478 10.9163 28.9387 10.5422 29.8223 10.0407C29.4796 11.0635 28.7612 11.9272 27.8074 12.4725C28.7323 12.377 29.6242 12.1302 30.45 11.7839C29.8265 12.6675 29.0461 13.4516 28.1501 14.0765Z" fill="#3FA0BB"/>
</svg>
