<svg width="125" height="125" viewBox="0 0 125 125" fill="none" xmlns="http://www.w3.org/2000/svg">
<path d="M124.133 55.0724C124.321 56.677 124.448 58.3004 124.511 59.9401L123.512 59.9787C123.543 60.7768 123.558 61.5789 123.558 62.3846C123.558 63.1903 123.543 63.9924 123.512 64.7905L124.511 64.8291C124.448 66.4688 124.321 68.0922 124.133 69.6968L123.14 69.5805C122.952 71.1816 122.703 72.7638 122.394 74.3245L123.375 74.5186C123.057 76.1248 122.677 77.7088 122.239 79.268L121.276 78.9971C120.84 80.5451 120.345 82.0682 119.793 83.5638L120.731 83.91C120.165 85.443 119.541 86.9476 118.861 88.421L117.953 88.0018C117.28 89.4596 116.551 90.8866 115.769 92.2798L116.641 92.7692C115.843 94.1915 114.99 95.5791 114.086 96.9294L113.255 96.3731C112.363 97.7059 111.419 99.0017 110.428 100.258L111.213 100.877C110.204 102.156 109.145 103.394 108.04 104.588L107.306 103.909C106.219 105.085 105.085 106.219 103.909 107.307L104.588 108.041C103.394 109.145 102.156 110.204 100.877 111.213L100.257 110.428C99.0014 111.42 97.7056 112.363 96.3728 113.255L96.9292 114.086C95.5789 114.99 94.1912 115.843 92.769 116.641L92.2795 115.769C90.8863 116.551 89.4594 117.28 88.0015 117.953L88.4208 118.861C86.9473 119.541 85.4428 120.166 83.9098 120.731L83.5635 119.793C82.0679 120.345 80.5448 120.84 78.9968 121.276L79.2678 122.239C77.7086 122.678 76.1246 123.057 74.5183 123.375L74.3243 122.394C72.7635 122.703 71.1814 122.952 69.5802 123.14L69.6966 124.133C68.0919 124.321 66.4686 124.448 64.8289 124.511L64.7903 123.512C63.9922 123.543 63.1901 123.559 62.3844 123.559C61.5786 123.559 60.7766 123.543 59.9785 123.512L59.9398 124.511C58.3002 124.448 56.6768 124.321 55.0721 124.133L55.1885 123.14C53.5873 122.952 52.0052 122.703 50.4445 122.394L50.2504 123.375C48.6441 123.057 47.0601 122.678 45.5009 122.239L45.7719 121.276C44.2239 120.84 42.7008 120.345 41.2052 119.793L40.8589 120.731C39.326 120.166 37.8214 119.541 36.3479 118.861L36.7672 117.953C35.3093 117.28 33.8824 116.551 32.4892 115.769L31.9998 116.641C30.5775 115.843 29.1898 114.99 27.8396 114.086L28.3959 113.255C27.0631 112.363 25.7673 111.42 24.5113 110.428L23.8917 111.213C22.6131 110.204 21.3752 109.145 20.1807 108.041L20.8596 107.307C19.6835 106.219 18.5501 105.085 17.4624 103.909L16.7283 104.588C15.6235 103.394 14.5651 102.156 13.5558 100.877L14.3407 100.258C13.3492 99.0017 12.4059 97.7059 11.5137 96.3731L10.6827 96.9294C9.77869 95.5791 8.9262 94.1915 8.128 92.7692L9.00005 92.2798C8.21814 90.8866 7.48921 89.4596 6.81599 88.0018L5.90812 88.421C5.22772 86.9476 4.60328 85.443 4.03753 83.91L4.97568 83.5638C4.42372 82.0682 3.92855 80.5451 3.49278 78.9971L2.53019 79.268C2.09127 77.7089 1.71164 76.1248 1.39387 74.5186L2.37486 74.3245C2.0661 72.7638 1.8167 71.1816 1.62912 69.5805L0.635908 69.6969C0.44791 68.0922 0.321019 66.4688 0.257625 64.8291L1.25688 64.7905C1.22602 63.9924 1.21045 63.1904 1.21045 62.3846C1.21045 61.5789 1.22602 60.7768 1.25688 59.9787L0.257624 59.9401C0.321018 58.3004 0.447908 56.6771 0.635906 55.0724L1.62911 55.1887C1.8167 53.5876 2.0661 52.0054 2.37486 50.4447L1.39387 50.2506C1.71163 48.6444 2.09127 47.0604 2.53019 45.5012L3.49278 45.7722C3.92855 44.2242 4.42372 42.7011 4.97567 41.2054L4.03752 40.8592C4.60327 39.3262 5.22771 37.8216 5.90811 36.3482L6.81599 36.7674C7.48921 35.3096 8.21813 33.8827 9.00004 32.4894L8.12799 32C8.92619 30.5778 9.77869 29.1901 10.6827 27.8398L11.5136 28.3961C12.4059 27.0633 13.3492 25.7675 14.3407 24.5115L13.5558 23.8919C14.5651 22.6134 15.6235 21.3754 16.7283 20.1809L17.4624 20.8599C18.5501 19.6837 19.6835 18.5504 20.8596 17.4627L20.1807 16.7285C21.3752 15.6238 22.6131 14.5653 23.8917 13.5561L24.5113 14.341C25.7673 13.3495 27.0631 12.4062 28.3959 11.5139L27.8396 10.6829C29.1898 9.77894 30.5775 8.92644 31.9998 8.12824L32.4892 9.00029C33.8824 8.21838 35.3093 7.48946 36.7672 6.81624L36.3479 5.90836C37.8214 5.22796 39.326 4.60352 40.8589 4.03777L41.2052 4.97592C42.7008 4.42397 44.2239 3.9288 45.7719 3.49302L45.5009 2.53044C47.0601 2.09152 48.6441 1.71188 50.2504 1.39412L50.4444 2.3751C52.0052 2.06634 53.5873 1.81694 55.1885 1.62936L55.0721 0.636152C56.6768 0.448154 58.3002 0.321263 59.9398 0.257869L59.9785 1.25712C60.7765 1.22627 61.5786 1.21069 62.3844 1.21069C63.1901 1.21069 63.9922 1.22627 64.7902 1.25712L64.8289 0.257868C66.4685 0.321262 68.0919 0.448153 69.6966 0.636152L69.5802 1.62936C71.1814 1.81694 72.7635 2.06634 74.3243 2.3751L74.5183 1.39411C76.1246 1.71188 77.7086 2.09152 79.2678 2.53044L78.9968 3.49302C80.5448 3.92879 82.0679 4.42396 83.5635 4.97592L83.9098 4.03777C85.4428 4.60352 86.9473 5.22796 88.4208 5.90837L88.0015 6.81624C89.4594 7.48946 90.8863 8.21838 92.2795 9.0003L92.769 8.12825C94.1912 8.92644 95.5789 9.77894 96.9292 10.6829L96.3728 11.5139C97.7056 12.4062 99.0014 13.3495 100.257 14.341L100.877 13.5561C102.156 14.5654 103.394 15.6238 104.588 16.7285L103.909 17.4627C105.085 18.5504 106.219 19.6837 107.306 20.8599L108.04 20.1809C109.145 21.3754 110.204 22.6134 111.213 23.8919L110.428 24.5115C111.419 25.7675 112.363 27.0633 113.255 28.3961L114.086 27.8398C114.99 29.1901 115.843 30.5778 116.641 32L115.769 32.4894C116.551 33.8827 117.28 35.3096 117.953 36.7674L118.861 36.3482C119.541 37.8216 120.165 39.3262 120.731 40.8592L119.793 41.2054C120.345 42.701 120.84 44.2242 121.276 45.7721L122.239 45.5012C122.677 47.0604 123.057 48.6444 123.375 50.2506L122.394 50.4447C122.703 52.0054 122.952 53.5876 123.14 55.1887L124.133 55.0724Z" stroke="#3282AD" stroke-width="2" stroke-dasharray="5 5"/>
</svg>
