<svg width="163" height="314" viewBox="0 0 163 314" fill="none" xmlns="http://www.w3.org/2000/svg">
<g clip-path="url(#clip0_13_4096)">
<path d="M162.192 21.3473L161.837 24.6886L119.668 295.704C118 306.43 110.036 313.788 101.332 313.347H100.985H100.643H100.297H99.9504H99.6082H99.45C105.729 312.954 111.426 308.534 114.369 301.835C114.544 301.433 114.711 301.026 114.865 300.607C114.972 300.329 115.07 300.047 115.164 299.751C115.599 298.431 115.924 297.078 116.135 295.704L158.77 21.7195C158.8 21.5441 158.825 21.3687 158.843 21.1976C158.952 20.4186 159.021 19.6347 159.052 18.8488C159.454 8.7052 153.291 1.01727 144.416 0.880366H143.89H143.363H142.837C142.666 0.880366 142.487 0.880366 142.311 0.880366H141.785H141.439H141.075L140.609 0.824754H140.583L140.134 0.790527C140.288 0.790527 140.434 0.790527 140.588 0.790527H141.114C141.289 0.790527 141.464 0.790527 141.64 0.790527H142.153H142.679C142.855 0.790527 143.026 0.790527 143.205 0.790527H143.731H144.257H144.784H145.31H145.836C146.011 0.790527 146.182 0.790527 146.358 0.790527H146.486C156.533 2.19806 163.342 10.5063 162.192 21.3473Z" fill="url(#paint0_linear_13_4096)"/>
<path d="M158.77 21.6813L116.148 295.657C114.587 305.694 107.504 312.792 99.4671 313.292H99.2789H98.9325H98.586C98.4748 313.292 98.3551 313.292 98.2439 313.292H97.8974H97.551H97.2045H96.8581H96.5159H96.178C95.2536 313.268 94.3344 313.145 93.4363 312.924L30.3269 297.206L30.2072 297.176L12.4612 293.065C4.25765 291.174 -0.956189 281.034 0.694793 270.39L38.3338 28.4708L39.1165 23.1102C40.0147 16.9539 42.9189 11.405 46.7341 7.76857C47.042 7.47338 47.3585 7.19102 47.6793 6.91293C47.8932 6.73325 48.1071 6.55784 48.3295 6.39099C48.5519 6.22414 48.7572 6.06585 48.9924 5.90755C49.7506 5.37683 50.5534 4.91304 51.3919 4.52142C51.6272 4.41446 51.8667 4.31179 52.1019 4.22195C53.3774 3.70902 54.7317 3.41958 56.1053 3.36631L138.334 0.658203L141.058 0.743766H141.234C141.413 0.743766 141.589 0.743766 141.76 0.743766C141.931 0.743766 142.115 0.743766 142.286 0.743766C142.457 0.743766 142.641 0.743766 142.812 0.743766H143.338C143.513 0.743766 143.689 0.743766 143.864 0.743766H144.39C154.095 0.983345 160.553 10.1558 158.77 21.6813Z" fill="url(#paint1_linear_13_4096)"/>
<path d="M145.083 5.14157C144.846 4.97224 144.6 4.81516 144.347 4.67097C144.583 4.79931 144.831 4.95761 145.083 5.14157ZM143.8 4.37578C143.975 4.46134 144.142 4.55118 144.313 4.64958C144.232 4.61108 144.155 4.56401 144.078 4.52551L143.8 4.37578ZM141.559 3.55008C142.045 3.66903 142.522 3.822 142.987 4.00785L143.295 4.14047C142.653 3.85742 141.984 3.63957 141.298 3.49019L141.559 3.55008ZM141.058 3.43885L140.913 3.41318L140.656 3.3704C140.874 3.40034 141.084 3.4474 141.298 3.49019H141.259L141.058 3.43885ZM143.539 4.2517H143.5L143.295 4.15758C143.462 4.23459 143.633 4.30732 143.796 4.38861L143.539 4.2517ZM140.117 3.29339H139.831L140.348 3.349L140.656 3.39179C140.502 3.36184 140.348 3.34045 140.194 3.32334L140.117 3.29339ZM12.7221 290.284L12.8462 290.335H12.8248L12.7221 290.284ZM12.5981 290.228H12.6195L12.4997 290.177L12.5981 290.228ZM12.4398 290.155L12.4997 290.181L12.3714 290.121L12.4398 290.155ZM10.2029 288.726C10.1639 288.697 10.1268 288.666 10.0917 288.632L10.2029 288.726ZM9.39022 287.991L9.53564 288.132L9.38167 287.978L9.39022 287.991ZM5.80596 282.258L5.90434 282.519L5.96849 282.681L5.86584 282.408C5.84446 282.369 5.82734 282.309 5.80596 282.258ZM4.60836 277.411V277.5C4.60836 277.411 4.58269 277.312 4.57414 277.218C4.59124 277.282 4.60408 277.351 4.60836 277.411ZM4.5057 276.482C4.5057 276.482 4.5057 276.512 4.5057 276.525C4.50364 276.505 4.50364 276.485 4.5057 276.465V276.482ZM4.48004 276.14C4.47795 276.151 4.47795 276.163 4.48004 276.174C4.48004 276.063 4.48004 275.943 4.45438 275.828C4.46293 275.952 4.47148 276.033 4.48004 276.14ZM141.058 0.794917C140.746 0.752135 140.434 0.726469 140.117 0.705078C139.997 0.705078 139.869 0.705078 139.741 0.705078C139.612 0.705078 139.411 0.705078 139.249 0.705078C139.086 0.705078 139.052 0.705078 138.95 0.705078H138.351L56.1181 3.43029C54.7442 3.48159 53.3896 3.77111 52.1147 4.28593C51.8795 4.38005 51.64 4.47845 51.4047 4.58969C50.5636 4.97893 49.7592 5.44283 49.0009 5.97582C48.7785 6.12556 48.5732 6.29241 48.3423 6.45926C48.1113 6.62611 47.9145 6.79723 47.6921 6.97692C47.3713 7.24644 47.0548 7.52881 46.7469 7.83256C42.9317 11.469 40.0275 17.0179 39.1293 23.1699L38.3466 28.5433L3.04292 270.484C1.48604 281.128 6.28072 291.255 13.8513 293.129L30.2071 297.176L30.3269 297.206L93.4107 312.826C94.4176 313.078 95.452 313.205 96.4902 313.202C104.249 313.181 111.251 305.929 112.769 295.499L152.743 21.4843C154.326 10.6177 149.146 1.85591 141.058 0.794917ZM152.534 18.4297V18.9259C152.534 19.0971 152.534 19.2639 152.504 19.4308C152.474 19.5976 152.478 19.773 152.465 19.9399C152.435 20.2522 152.405 20.5645 152.363 20.8854C152.34 21.085 152.314 21.2861 152.286 21.4886L151.995 23.4694L112.645 293.424C112.338 295.553 111.763 297.634 110.934 299.619C110.874 299.764 110.814 299.91 110.75 300.047C110.686 300.184 110.622 300.338 110.553 300.474C110.485 300.611 110.455 300.688 110.404 300.791C110.25 301.103 110.092 301.411 109.925 301.711C109.856 301.848 109.779 301.98 109.707 302.109C109.634 302.237 109.493 302.472 109.382 302.652C109.27 302.832 109.236 302.892 109.159 303.007C109.082 303.123 109.001 303.255 108.915 303.379C108.693 303.717 108.453 304.051 108.205 304.376C108.128 304.475 108.051 304.577 107.97 304.676C107.889 304.774 107.79 304.902 107.696 305.009C107.602 305.116 107.517 305.228 107.423 305.334C107.329 305.441 107.239 305.548 107.14 305.651C107.042 305.754 106.952 305.861 106.849 305.963C106.661 306.169 106.46 306.366 106.259 306.554C105.951 306.849 105.639 307.131 105.314 307.409L105.023 307.645C104.801 307.816 104.595 307.983 104.347 308.145L104.048 308.351C103.719 308.573 103.381 308.778 103.039 308.967C102.927 309.035 102.812 309.095 102.696 309.155C102.465 309.275 102.23 309.386 101.999 309.493L101.653 309.647C101.276 309.805 100.896 309.946 100.511 310.075C100.411 310.112 100.31 310.143 100.207 310.169C100.087 310.207 99.9675 310.242 99.8435 310.271L99.4757 310.361C99.2019 310.421 98.9282 310.477 98.6502 310.52L98.3593 310.562C97.9958 310.614 97.6322 310.644 97.2601 310.661H96.8751H96.4474C96.1951 310.661 95.947 310.661 95.6904 310.618H95.5449H95.4765H95.4423H95.6348H95.6904C95.8059 310.618 95.9213 310.618 96.0368 310.618C96.0736 310.624 96.1112 310.624 96.148 310.618H97.0035C97.049 310.622 97.0948 310.622 97.1403 310.618H97.2772H97.3841H97.5809C97.6964 310.618 97.8033 310.618 97.9145 310.58L98.1754 310.541L98.3465 310.511H98.4491L98.5475 310.49H98.6074C98.6582 310.483 98.7083 310.471 98.7571 310.455H98.817H98.8597C99.1463 310.391 99.4286 310.319 99.7152 310.233C99.7447 310.228 99.7735 310.22 99.8007 310.207H99.852C99.9162 310.207 99.9761 310.169 100.036 310.143H100.104L100.408 310.036L100.977 309.805H101.011C101.208 309.715 101.4 309.63 101.593 309.531C101.785 309.433 101.965 309.339 102.145 309.24C102.157 309.244 102.17 309.244 102.183 309.24C102.482 309.069 102.778 308.89 103.073 308.693C103.112 308.671 103.15 308.645 103.184 308.616C103.201 308.608 103.217 308.598 103.231 308.586L103.295 308.543L103.359 308.492C103.496 308.398 103.629 308.299 103.761 308.201C103.894 308.102 104.031 307.991 104.159 307.884C104.823 307.34 105.442 306.743 106.011 306.1L106.131 305.959L106.251 305.818C106.571 305.441 106.875 305.048 107.166 304.637C107.363 304.363 107.547 304.081 107.731 303.781C107.799 303.679 107.863 303.568 107.932 303.461L108 303.345L108.235 302.917L108.325 302.759C108.355 302.699 108.389 302.643 108.423 302.579C108.458 302.515 108.483 302.468 108.509 302.417C108.565 302.32 108.617 302.22 108.663 302.117C108.679 302.088 108.693 302.058 108.706 302.027L108.808 301.814C108.868 301.702 108.928 301.582 108.979 301.463C108.98 301.448 108.98 301.434 108.979 301.42C109.035 301.3 109.086 301.185 109.138 301.061L109.305 300.675C109.356 300.547 109.411 300.415 109.463 300.282C109.514 300.149 109.561 300.021 109.613 299.888C109.664 299.756 109.66 299.756 109.685 299.687C109.711 299.619 109.732 299.555 109.758 299.482L109.848 299.221C109.878 299.122 109.912 299.02 109.946 298.917C109.98 298.814 110.019 298.69 110.049 298.571C110.052 298.554 110.052 298.536 110.049 298.519C110.1 298.348 110.151 298.173 110.198 297.997C110.246 297.822 110.314 297.544 110.37 297.317C110.421 297.09 110.472 296.864 110.519 296.633C110.566 296.402 110.596 296.256 110.63 296.064C110.63 296.012 110.63 295.957 110.66 295.901C110.699 295.674 110.742 295.439 110.772 295.208L150.669 21.6725C150.742 21.1549 150.806 20.6329 150.844 20.1238C150.954 18.8699 150.954 17.6087 150.844 16.3547C150.849 16.3408 150.849 16.3259 150.844 16.312C150.844 16.1751 150.814 16.0382 150.797 15.8841C150.78 15.7301 150.797 15.7045 150.767 15.6146C150.733 15.3708 150.699 15.1312 150.66 14.8959L150.532 14.2071C150.506 14.0916 150.481 13.9761 150.459 13.8648C150.438 13.7536 150.404 13.6338 150.378 13.5226C150.381 13.4912 150.381 13.4598 150.378 13.4284C150.378 13.3472 150.335 13.2702 150.314 13.1889C150.293 13.1287 150.276 13.0673 150.263 13.0049C150.263 12.9621 150.263 12.9193 150.224 12.8766L150.126 12.5471C150.027 12.222 149.916 11.9054 149.801 11.5931C149.762 11.4947 149.724 11.3963 149.689 11.2979L149.63 11.1567C149.608 11.0968 149.583 11.0369 149.557 10.9813C149.514 10.8829 149.476 10.7845 149.429 10.6861C149.343 10.4936 149.253 10.3011 149.159 10.1128C149.112 10.0144 149.061 9.91604 149.009 9.81764C148.958 9.71924 148.907 9.62941 148.855 9.53956C148.831 9.4883 148.804 9.43832 148.774 9.38982C148.723 9.2957 148.667 9.20586 148.612 9.11174L148.496 8.91922L148.385 8.75238L148.342 8.68392C148.295 8.61119 148.248 8.53847 148.197 8.46574C148.187 8.44766 148.175 8.43048 148.163 8.41439C148.077 8.29033 147.987 8.16198 147.893 8.03792L147.79 7.89673L147.722 7.80689C147.689 7.76082 147.653 7.71655 147.615 7.67427L147.457 7.47319L147.333 7.32773L147.127 7.09243L147.012 6.96837C146.969 6.91703 146.922 6.86569 146.875 6.81863L146.708 6.6475L146.55 6.4892L146.49 6.43359L146.319 6.27529L146.127 6.09561L146.045 6.02716L145.861 5.86886L145.819 5.83892C145.742 5.77475 145.66 5.70629 145.579 5.6464C145.429 5.53088 145.284 5.42393 145.13 5.3127H145.1C144.863 5.14336 144.617 4.98629 144.364 4.8421C144.283 4.8036 144.206 4.75653 144.129 4.71803L143.851 4.56829L143.595 4.4485H143.556L143.351 4.35438C142.708 4.07133 142.039 3.85348 141.353 3.7041H141.315L141.114 3.66131L140.968 3.63564L140.712 3.59286C140.558 3.56292 140.404 3.54152 140.25 3.52441H140.173H139.886H139.711H139.386C139.138 3.52441 138.89 3.52441 138.633 3.52441L55.8316 6.06138C55.6134 6.06138 55.4038 6.06138 55.1814 6.10844L54.8692 6.14267C48.3038 6.99831 42.1789 14.5023 40.8786 23.4223L4.67251 270.856C4.44852 272.373 4.36975 273.907 4.43728 275.438C4.43728 275.438 4.43728 275.464 4.43728 275.473C4.43728 275.592 4.43728 275.712 4.43728 275.828C4.43728 275.943 4.43728 276.033 4.43728 276.14C4.43519 276.151 4.43519 276.163 4.43728 276.174C4.43728 276.273 4.43727 276.367 4.45866 276.465C4.45866 276.465 4.45866 276.495 4.45866 276.508C4.45654 276.529 4.45654 276.551 4.45866 276.572C4.45866 276.645 4.45865 276.713 4.48004 276.786C4.48191 276.807 4.48191 276.829 4.48004 276.85C4.48004 276.85 4.48004 276.85 4.48004 276.876C4.48004 276.983 4.50142 277.094 4.51853 277.201C4.53564 277.308 4.51854 277.334 4.53992 277.394V277.483C4.53992 277.59 4.56987 277.693 4.5827 277.796C4.5827 277.903 4.61264 278.005 4.63402 278.108C4.65541 278.211 4.68534 278.442 4.71956 278.604C4.71956 278.668 4.74095 278.728 4.75378 278.788V278.878C4.75378 278.955 4.78372 279.036 4.80082 279.113C4.80545 279.145 4.8126 279.177 4.82222 279.207C4.8436 279.319 4.86926 279.43 4.89492 279.541C4.92059 279.652 4.92487 279.665 4.9377 279.729C4.95053 279.794 4.9933 279.943 5.01896 280.046L5.05746 280.187C5.05746 280.247 5.0874 280.307 5.10023 280.363C5.11306 280.418 5.10023 280.401 5.10023 280.422L5.12589 280.508C5.12589 280.577 5.16439 280.641 5.1815 280.705L5.26276 280.979C5.37397 281.347 5.498 281.714 5.63059 282.065C5.63059 282.121 5.66909 282.172 5.6862 282.219L5.78458 282.48L5.84873 282.643C6.38388 283.985 7.08817 285.253 7.94454 286.416C8.00014 286.493 8.06002 286.566 8.11562 286.639C8.35942 286.951 8.6075 287.25 8.8684 287.533L8.9069 287.576L8.95395 287.623L9.04805 287.725L9.2234 287.905L9.26191 287.939L9.40733 288.08C9.5442 288.209 9.67679 288.333 9.83504 288.457L9.88209 288.5C9.92058 288.525 9.95052 288.555 9.98902 288.585L10.0917 288.675L10.2414 288.795C10.3782 288.906 10.5194 289.017 10.6691 289.12L10.7503 289.176C10.8673 289.261 10.987 289.343 11.1096 289.42L11.1952 289.479L11.5587 289.698L11.6528 289.749L11.7042 289.779C11.8838 289.882 12.0677 289.976 12.2559 290.066L12.3243 290.1L12.3842 290.125L12.4826 290.173H12.504C12.5681 290.207 12.6366 290.232 12.7093 290.262L12.6066 290.224L12.4869 290.181C12.2773 290.091 12.0592 290.001 11.8795 289.899C10.6382 289.262 9.51322 288.42 8.5519 287.409L8.33804 287.186C8.16268 286.994 7.9873 286.797 7.82049 286.592L7.59381 286.309C7.20458 285.822 6.84605 285.31 6.52025 284.778C6.45539 284.682 6.39542 284.584 6.3406 284.482C6.16096 284.187 5.98988 283.888 5.82735 283.58L5.67337 283.272L5.498 282.912L5.3312 282.553L5.21999 282.309L5.0874 282.001C4.83077 281.381 4.59981 280.739 4.3945 280.085C4.35601 279.969 4.32179 279.849 4.28757 279.729C4.17637 279.366 4.07799 278.994 3.98817 278.613C3.95395 278.48 3.91973 278.343 3.89407 278.185C3.6599 277.15 3.49416 276.101 3.39792 275.045C3.39792 274.899 3.37226 274.754 3.35943 274.617C3.30382 273.877 3.27817 273.132 3.28672 272.379C3.28672 272.23 3.28672 272.076 3.28672 271.926C3.31528 270.851 3.40667 269.778 3.56045 268.713L39.1293 24.8555L39.3902 23.0715C39.4158 22.8861 39.4458 22.7022 39.48 22.5196C39.48 22.3827 39.5228 22.2458 39.5484 22.0918C39.604 21.7881 39.6639 21.4929 39.7281 21.1977C39.7623 21.0436 39.7965 20.8854 39.835 20.7356C39.835 20.6543 39.8735 20.573 39.8906 20.4918C39.9077 20.4105 39.9334 20.2992 39.9633 20.2008C39.9933 20.1024 40.0446 19.8928 40.0874 19.7345C40.1586 19.4664 40.2356 19.2012 40.3183 18.9388C40.3568 18.8061 40.3996 18.6778 40.4424 18.5495C40.5664 18.1559 40.699 17.7751 40.8444 17.3943C40.8872 17.2746 40.9385 17.1548 40.9813 17.035L41.1566 16.6072L41.3106 16.2435C41.3491 16.1408 41.3919 16.0467 41.4347 15.9483L41.5929 15.5975L41.7169 15.3323C41.7811 15.2039 41.8367 15.0756 41.9051 14.9429C42.0121 14.7247 42.1276 14.5151 42.243 14.2755L42.427 13.9376C42.4954 13.8092 42.5681 13.6809 42.6408 13.5525C43.139 12.6713 43.6904 11.8212 44.2918 11.007C44.3773 10.8915 44.4586 10.7802 44.5484 10.669L44.8436 10.2882C45.0104 10.0872 45.1729 9.8861 45.3397 9.6893L45.8915 9.07324C46.0796 8.87216 46.2678 8.67537 46.4603 8.48285L46.7512 8.19621C46.9436 8.01652 47.1404 7.83256 47.3414 7.65287C47.5424 7.47319 47.7392 7.31062 47.9445 7.14377C48.1498 6.97692 48.3722 6.81863 48.5604 6.66461L48.8769 6.43787C48.9796 6.36086 49.0865 6.29241 49.1891 6.21968L49.5099 6.01005L49.835 5.80469C50.0446 5.67635 50.2627 5.55228 50.4851 5.43249L50.7974 5.26564C50.8071 5.26238 50.8176 5.26238 50.8273 5.26564L51.1438 5.10307C51.2507 5.06029 51.3534 5.00895 51.456 4.95761L51.8153 4.80787L52.1489 4.67525L52.4911 4.55118C52.6066 4.5084 52.7178 4.4699 52.8333 4.43567C53.0642 4.35866 53.2909 4.29021 53.5219 4.23459L53.8598 4.15331C54.1079 4.09912 54.3559 4.05206 54.604 4.01213C54.8008 3.98218 54.9975 3.96078 55.1943 3.93512L55.5535 3.90517H55.9128L138.851 1.29119H139.612C139.873 1.29119 140.13 1.29119 140.387 1.33825C140.519 1.33825 140.648 1.36392 140.772 1.38103C140.896 1.39815 141.033 1.41098 141.161 1.43237L141.537 1.49654L141.914 1.57355L142.281 1.66339L142.615 1.74896L142.688 1.77035C142.79 1.80457 142.897 1.83452 143 1.87303C143.103 1.91153 143.287 1.96715 143.428 2.02277L143.714 2.134C143.928 2.21956 144.142 2.3094 144.352 2.41208C144.493 2.47197 144.63 2.54471 144.779 2.61743C144.929 2.69016 144.976 2.72439 145.079 2.78C145.181 2.83562 145.293 2.90407 145.404 2.96824L145.72 3.16504C146.481 3.65514 147.184 4.22917 147.816 4.87633C147.899 4.95191 147.977 5.03188 148.051 5.1159C148.337 5.41274 148.606 5.72403 148.86 6.04855C148.975 6.18973 149.086 6.33947 149.189 6.47637C149.641 7.09082 150.043 7.74031 150.391 8.41868C150.459 8.54274 150.523 8.66253 150.579 8.7866C150.707 9.04329 150.827 9.30427 150.943 9.56951C151.003 9.70642 151.058 9.83904 151.109 9.97594C151.208 10.207 151.298 10.4465 151.379 10.6818C151.422 10.8016 151.464 10.9257 151.503 11.0455C151.576 11.2765 151.653 11.5075 151.717 11.7471C151.751 11.8583 151.785 11.9739 151.811 12.0936C151.922 12.4872 152.016 12.8894 152.098 13.3001C152.123 13.4085 152.145 13.5154 152.162 13.621C152.239 14.0488 152.303 14.4467 152.358 14.8659C152.38 15.0285 152.397 15.1825 152.41 15.3365C152.51 16.2628 152.551 17.1944 152.534 18.1259C152.538 18.22 152.538 18.3227 152.534 18.4297Z" fill="#C7C7C7"/>
<path d="M12.9188 290.365L12.6066 290.241C12.4013 290.155 12.1789 290.057 11.9949 289.959C10.7434 289.322 9.60941 288.477 8.64166 287.46L8.43208 287.242C8.25672 287.045 8.08562 286.853 7.91454 286.647L7.68785 286.365C7.30045 285.875 6.94062 285.363 6.61001 284.833L6.43036 284.542C6.255 284.247 6.08819 283.943 5.92566 283.635C5.87006 283.537 5.81874 283.434 5.76741 283.327L5.59204 282.968L5.42524 282.604C5.38675 282.527 5.34825 282.446 5.31403 282.365C5.27981 282.283 5.22422 282.159 5.18572 282.052C4.92624 281.436 4.69385 280.799 4.48854 280.14C4.45005 280.025 4.41583 279.905 4.38162 279.789C4.27041 279.421 4.17203 279.049 4.08221 278.673C4.04799 278.536 4.01377 278.399 3.98383 278.245C3.75349 277.211 3.58921 276.164 3.49196 275.109C3.49196 274.959 3.46202 274.814 3.45347 274.681C3.39786 273.945 3.37221 273.197 3.38076 272.444C3.38076 272.294 3.38076 272.14 3.38076 271.99C3.41126 270.915 3.50265 269.842 3.65449 268.777L39.2233 24.9197C40.6861 14.883 47.6792 6.48921 55.083 5.79614C48.4192 6.47638 42.1232 14.0616 40.8016 23.11L4.66818 270.856C3.39359 279.61 7.01206 287.978 12.9188 290.365Z" fill="url(#paint2_linear_13_4096)"/>
<path d="M151.978 23.4694L112.628 293.424C112.321 295.553 111.746 297.634 110.917 299.619C110.857 299.764 110.797 299.91 110.733 300.047C110.669 300.184 110.605 300.329 110.536 300.474C110.468 300.62 110.438 300.688 110.387 300.791C110.233 301.103 110.074 301.411 109.912 301.711C109.835 301.843 109.762 301.98 109.69 302.109C109.617 302.237 109.476 302.472 109.364 302.652C109.253 302.832 109.219 302.892 109.142 303.007C109.065 303.123 108.984 303.255 108.898 303.379C108.672 303.717 108.436 304.051 108.188 304.372C108.111 304.475 108.034 304.577 107.953 304.676C107.872 304.774 107.773 304.898 107.679 305.009C107.585 305.121 107.495 305.232 107.405 305.334C107.316 305.437 107.217 305.548 107.123 305.651C107.029 305.754 106.931 305.861 106.832 305.963C106.641 306.169 106.445 306.366 106.242 306.554C105.934 306.849 105.622 307.127 105.297 307.409L105.006 307.64C104.784 307.816 104.578 307.983 104.33 308.15L104.031 308.351C103.701 308.573 103.364 308.778 103.021 308.967C102.91 309.031 102.795 309.091 102.679 309.151C102.448 309.275 102.217 309.386 101.982 309.493C101.867 309.544 101.751 309.6 101.636 309.643C101.264 309.807 100.882 309.95 100.494 310.07C100.391 310.109 100.293 310.135 100.19 310.165C100.087 310.194 99.9504 310.237 99.8264 310.267L99.4586 310.357C99.1848 310.417 98.9111 310.473 98.6331 310.515L98.3422 310.558C97.9786 310.609 97.6108 310.639 97.243 310.657H96.858H96.4303C96.178 310.657 95.9256 310.635 95.6733 310.614L95.2883 310.571C102.559 311.328 109.382 304.727 110.789 295.062L150.686 21.5313C152.119 11.6915 147.222 3.78537 139.719 3.26343C148.077 3.74259 153.573 12.53 151.978 23.4694Z" fill="url(#paint3_linear_13_4096)"/>
<path d="M112.607 293.415L112.316 295.396C110.648 306.836 102.149 314.378 93.4963 312.239L13.9413 292.585C6.59738 290.771 1.92244 280.906 3.428 270.57L3.68892 268.781C3.53707 269.846 3.44567 270.919 3.41517 271.994C3.41517 272.144 3.41517 272.298 3.41517 272.448C3.41517 273.201 3.41518 273.949 3.48789 274.685C3.48789 274.831 3.48789 274.976 3.52638 275.113C3.62363 276.168 3.78792 277.215 4.01825 278.249C4.04819 278.386 4.08241 278.523 4.11663 278.677C4.20645 279.053 4.30482 279.425 4.41602 279.793C4.45024 279.909 4.48446 280.029 4.52295 280.144C4.72826 280.803 4.96065 281.44 5.22013 282.057C5.25863 282.163 5.30567 282.266 5.34844 282.369C5.39121 282.471 5.42116 282.531 5.45965 282.608L5.62647 282.972L5.80182 283.331C5.85314 283.438 5.90448 283.541 5.96008 283.639C6.12262 283.947 6.28942 284.251 6.46479 284.546L6.64442 284.837C6.97503 285.367 7.33487 285.879 7.72227 286.369L7.94896 286.651C8.12004 286.857 8.29113 287.049 8.46649 287.246L8.67607 287.464C9.63645 288.478 10.7616 289.321 12.0037 289.958C12.2047 290.057 12.41 290.155 12.6153 290.241C12.8249 290.326 13.043 290.408 13.2483 290.485L13.5777 290.596C13.783 290.66 14.0054 290.72 14.2022 290.771L93.7872 310.288C94.0324 310.348 94.2762 310.4 94.5186 310.442L94.9078 310.507C95.1174 310.537 95.3355 310.562 95.5323 310.579H95.6777C95.93 310.605 96.1824 310.618 96.4347 310.622H96.8624H97.2474C97.6152 310.622 97.9831 310.575 98.3466 310.524L98.6375 310.481C98.9155 310.438 99.1892 310.382 99.463 310.323L99.8308 310.233C99.9548 310.203 100.075 310.169 100.194 310.13C100.314 310.092 100.395 310.074 100.498 310.036C100.887 309.916 101.268 309.773 101.64 309.608C101.756 309.565 101.871 309.514 101.986 309.458C102.222 309.351 102.453 309.24 102.684 309.116C102.799 309.061 102.915 308.996 103.026 308.932C103.368 308.74 103.706 308.539 104.035 308.316L104.335 308.115C104.561 307.948 104.788 307.781 105.01 307.606C105.109 307.533 105.203 307.456 105.301 307.375C105.626 307.105 105.939 306.827 106.247 306.519C106.448 306.331 106.649 306.134 106.837 305.929C106.935 305.826 107.034 305.724 107.128 305.617C107.222 305.51 107.32 305.411 107.41 305.3C107.5 305.189 107.598 305.086 107.684 304.975C107.769 304.864 107.868 304.757 107.957 304.641C108.047 304.526 108.116 304.44 108.193 304.337C108.441 304.017 108.676 303.683 108.903 303.345C108.988 303.219 109.069 303.095 109.146 302.973C109.223 302.857 109.296 302.737 109.369 302.618C109.442 302.498 109.587 302.258 109.694 302.074C109.801 301.89 109.844 301.813 109.916 301.676C110.079 301.377 110.237 301.069 110.391 300.757C110.442 300.654 110.494 300.547 110.541 300.44C110.588 300.333 110.673 300.158 110.738 300.012C110.802 299.867 110.862 299.725 110.921 299.584C111.74 297.607 112.306 295.534 112.607 293.415Z" fill="url(#paint4_linear_13_4096)"/>
<path d="M152.269 21.4884L151.978 23.4692C153.547 12.701 148.252 4.01623 140.104 3.2761L139.715 3.24616H139.317C139.069 3.24616 138.825 3.24616 138.569 3.24616L55.7674 5.7874C55.5493 5.7874 55.3397 5.78741 55.1173 5.82591C47.7135 6.51898 40.7204 14.9128 39.2576 24.9495L39.5185 23.1612C39.5441 22.9758 39.5741 22.7918 39.6083 22.6093C39.6083 22.4724 39.6511 22.3355 39.6767 22.1815C39.7323 21.882 39.7879 21.5825 39.8564 21.2873L39.959 20.8253C39.9804 20.744 39.9975 20.667 40.0189 20.5814C40.0403 20.4959 40.066 20.3889 40.0916 20.2905C40.1173 20.1921 40.1729 19.9825 40.2157 19.8285C40.2884 19.5589 40.3654 19.2937 40.4466 19.0284C40.4851 18.8958 40.5279 18.7675 40.5707 18.6391C40.6947 18.2455 40.8273 17.8648 40.9727 17.484C41.0198 17.3642 41.0668 17.2444 41.1096 17.1246C41.1524 17.0048 41.2251 16.8294 41.2849 16.6968L41.4389 16.3375C41.4817 16.2391 41.5202 16.1407 41.5672 16.0423L41.7212 15.6872C41.764 15.5973 41.8025 15.5118 41.8453 15.4262L42.0335 15.0412C42.1404 14.8144 42.2559 14.5919 42.3713 14.3695C42.4312 14.2582 42.4911 14.147 42.5553 14.0358C42.6194 13.9245 42.6964 13.7748 42.7691 13.6465C43.2674 12.7653 43.8187 11.9152 44.4201 11.1009C44.5056 10.9897 44.5869 10.8742 44.6767 10.763C44.7666 10.6517 44.8692 10.5105 44.9719 10.3865C45.1344 10.1811 45.3012 9.98005 45.468 9.78325L46.0198 9.16719C46.208 8.96611 46.3961 8.76931 46.5886 8.57679L46.8795 8.29443C47.0719 8.10619 47.2687 7.92651 47.4697 7.74682C47.6707 7.56714 47.8675 7.40456 48.0728 7.23771C48.2781 7.07086 48.5005 6.91257 48.6887 6.75856L49.0052 6.53181C49.1079 6.45481 49.2148 6.38636 49.3174 6.31363L49.6382 6.10399L49.9633 5.89864C50.1771 5.77029 50.391 5.64622 50.6134 5.52643L50.9256 5.35958H50.9556L51.2721 5.20557L51.5843 5.05583L51.9436 4.90609L52.2772 4.77347L52.6194 4.64941C52.7306 4.60662 52.8461 4.56812 52.9616 4.53389C53.1883 4.45689 53.4192 4.39271 53.6502 4.33282L53.9924 4.25153C54.2362 4.19591 54.4843 4.14885 54.7323 4.11035C54.9804 4.07185 55.1258 4.05474 55.3183 4.03334L55.6819 4.00339H56.0411L138.851 1.29102H139.612C139.873 1.29102 140.13 1.29102 140.387 1.3338L140.772 1.37658L141.157 1.4322C141.285 1.4322 141.413 1.47498 141.537 1.49637L141.909 1.57338L142.277 1.66322L142.611 1.75306H142.683C142.786 1.78729 142.893 1.81724 142.996 1.85574C143.098 1.89425 143.287 1.94986 143.423 2.00547L143.71 2.11671C143.924 2.20227 144.138 2.29639 144.343 2.39479C144.488 2.45469 144.625 2.52741 144.771 2.60014C144.916 2.67287 144.972 2.7071 145.07 2.76272C145.168 2.81833 145.288 2.88251 145.395 2.95096L145.712 3.14775C146.473 3.63651 147.176 4.21066 147.807 4.85903C147.891 4.93352 147.97 5.01356 148.043 5.09861C148.325 5.39381 148.594 5.70612 148.851 6.03126C148.967 6.17672 149.078 6.32218 149.185 6.45908C149.633 7.07464 150.034 7.72402 150.382 8.40138C150.451 8.52545 150.511 8.64524 150.571 8.76931C150.703 9.03028 150.823 9.29125 150.934 9.55222C150.994 9.68485 151.05 9.82175 151.101 9.95865C151.199 10.1897 151.285 10.4293 151.37 10.6646C151.413 10.7886 151.452 10.9084 151.494 11.0282C151.567 11.2592 151.644 11.4902 151.708 11.7298C151.742 11.8453 151.777 11.9566 151.802 12.0764C151.914 12.47 152.008 12.8721 152.093 13.2828C152.093 13.3898 152.132 13.4967 152.153 13.6037C152.23 14.0315 152.294 14.4294 152.346 14.8529C152.346 15.0069 152.388 15.1609 152.401 15.3192C152.498 16.2457 152.541 17.1771 152.529 18.1086C152.529 18.207 152.529 18.3097 152.529 18.4167C152.529 18.5236 152.529 18.7504 152.529 18.9172C152.529 19.0841 152.529 19.2509 152.5 19.422C152.47 19.5932 152.474 19.7643 152.461 19.9311C152.431 20.2477 152.397 20.56 152.358 20.8766C152.33 21.0848 152.3 21.2888 152.269 21.4884Z" fill="url(#paint5_linear_13_4096)"/>
<path d="M139.317 3.22925C139.074 3.22925 138.825 3.22925 138.569 3.22925L55.7674 5.7705C55.5493 5.7705 55.3397 5.7705 55.1173 5.809C48.4192 6.4764 42.1233 14.0617 40.8016 23.1101L4.66823 270.857C3.38508 279.764 7.14042 288.273 13.2225 290.485L13.5519 290.596C13.7572 290.66 13.9796 290.72 14.1763 290.772L93.7614 310.289C94.0066 310.349 94.2504 310.4 94.4928 310.443L94.882 310.507C102.307 311.542 109.334 304.881 110.767 295.045L150.665 21.5143C152.14 11.5033 147.042 3.4945 139.317 3.22925ZM109.583 294.776C108.299 303.662 101.884 309.874 95.0659 308.932C94.9461 308.932 94.8221 308.898 94.6981 308.873C94.4757 308.834 94.2703 308.787 94.0266 308.731L14.4287 289.33C14.2319 289.283 14.0395 289.227 13.847 289.167L13.5519 289.069C7.94454 287.045 4.51852 279.156 5.69474 271.1L41.8453 23.1101C43.0514 14.8403 48.7614 7.88393 54.9248 7.25931H54.9547C55.1515 7.25931 55.3525 7.22937 55.5535 7.22509L138.338 4.79507C138.569 4.79507 138.8 4.79507 139.027 4.79507C146.139 5.06032 150.725 12.4103 149.394 21.5314L109.583 294.776Z" fill="#404040"/>
<path d="M149.394 21.6426L109.544 294.879C109.303 296.509 108.873 298.106 108.261 299.636C107.813 300.778 107.253 301.873 106.589 302.905C106.456 303.11 106.315 303.311 106.161 303.503C105.947 303.799 105.733 304.081 105.507 304.359C104.892 305.111 104.206 305.801 103.458 306.421C105.098 303.874 106.167 301.002 106.589 298.002L107.046 294.857C107.081 294.673 107.11 294.485 107.136 294.297L146.914 21.6512C146.939 21.4587 146.965 21.2661 146.986 21.0779L147.435 18.0019C147.91 15.0437 147.711 12.0166 146.854 9.146C149.082 12.2135 150.122 16.6927 149.394 21.6426Z" fill="url(#paint6_linear_13_4096)"/>
<path d="M138.753 6.35645H138.697C138.505 6.35645 138.308 6.35645 138.111 6.35645L55.3397 8.67095C55.1643 8.67095 54.9889 8.67095 54.8178 8.69662H54.7665H54.7409C49.1806 9.2699 43.9795 15.5845 42.8846 23.0842L6.68275 271.314C5.61346 278.647 8.72722 285.804 13.8213 287.635L14.0651 287.717H14.0951C14.2661 287.768 14.4415 287.819 14.6169 287.862L94.2361 307.182C94.4371 307.23 94.6382 307.268 94.8392 307.302H94.8777C94.9765 307.324 95.0764 307.34 95.1771 307.349C101.358 308.205 107.153 302.553 108.342 294.515L148.154 21.5655C149.36 13.27 145.203 6.60458 138.753 6.35645ZM105.151 293.766C104.837 296.147 103.862 298.392 102.337 300.247C102.26 300.337 102.183 300.419 102.106 300.504C101.875 300.758 101.631 300.999 101.375 301.227C101.152 301.424 100.921 301.612 100.686 301.783C100.394 301.996 100.088 302.189 99.7707 302.361C99.4626 302.528 99.1424 302.671 98.8127 302.789C98.6501 302.853 98.4876 302.904 98.3208 302.956C98.1563 303.007 97.9893 303.05 97.8204 303.084C97.4808 303.157 97.1362 303.204 96.7896 303.225C96.3698 303.246 95.9491 303.23 95.5321 303.178H95.4166H95.361H95.3225H95.284H95.1771H95.0659L94.8435 303.131L15.1729 284.08L14.9804 284.029L14.788 283.969H14.7623H14.7323H14.6853L14.5869 283.93C10.8444 282.6 8.54758 277.346 9.33458 271.952L45.6305 23.0842C46.4304 17.6081 50.2028 13.0005 54.2704 12.5384H54.3388H54.4457C54.5583 12.5326 54.6711 12.5326 54.7836 12.5384L137.508 10.5149H137.987C138.015 10.5106 138.044 10.5106 138.073 10.5149C138.159 10.5176 138.244 10.5247 138.329 10.5363H138.445L138.671 10.5662C138.766 10.5662 138.855 10.5919 138.945 10.609C139.075 10.6295 139.203 10.6566 139.33 10.6903L139.403 10.7117L139.711 10.8015L140.139 10.9641C140.257 11.007 140.373 11.057 140.485 11.1138C140.61 11.1697 140.731 11.2325 140.849 11.302C141.09 11.4275 141.321 11.5705 141.541 11.7299C141.744 11.8772 141.938 12.0357 142.123 12.2047C142.162 12.2468 142.204 12.2868 142.247 12.3245L142.474 12.547C142.572 12.6454 142.662 12.7524 142.756 12.8593C142.936 13.0775 143.111 13.2871 143.274 13.5395C143.361 13.6563 143.44 13.7793 143.509 13.9075C143.586 14.033 143.659 14.1613 143.727 14.2925C144.021 14.8291 144.26 15.3938 144.441 15.9781C144.54 16.2819 144.617 16.5942 144.689 16.9108C144.762 17.2274 144.818 17.5525 144.865 17.8905C144.886 18.0573 144.903 18.2242 144.92 18.391C144.95 18.7632 144.972 19.1354 144.972 19.5162C144.972 19.6702 144.972 19.8199 144.972 19.974C144.958 20.5267 144.91 21.0782 144.831 21.6253L105.151 293.766Z" fill="black"/>
<path d="M67.0677 17.0446C67.0677 16.9716 67.0377 16.9028 67.0249 16.8298C67.0233 16.804 67.0233 16.7782 67.0249 16.7524C67.0292 16.8513 67.0463 16.9501 67.0677 17.0446Z" fill="black"/>
<path d="M122.199 15.636C122.185 15.6638 122.172 15.6923 122.161 15.7215C122.123 15.7943 122.089 15.8713 122.046 15.9483L122.199 15.636Z" fill="black"/>
<path d="M124.792 10.7673C124.065 10.8315 123.381 11.5545 123.175 12.4786C123.175 12.5599 123.145 12.6412 123.133 12.7225C123.073 13.0562 122.996 13.3899 122.906 13.7193C122.872 13.8348 122.842 13.946 122.808 14.0573C122.765 14.1942 122.722 14.3268 122.675 14.4594C122.628 14.592 122.589 14.699 122.547 14.8188L122.512 14.9044L122.478 14.9942C122.478 15.0199 122.478 15.0413 122.448 15.0669C122.43 15.1058 122.414 15.1458 122.401 15.1867C122.38 15.2295 122.363 15.2766 122.341 15.3193C122.299 15.4306 122.247 15.5375 122.2 15.6445L122.046 15.9568C122.049 15.971 122.049 15.9854 122.046 15.9996C122.003 16.0894 121.956 16.175 121.909 16.2606C121.862 16.3461 121.828 16.4103 121.785 16.483C121.774 16.5081 121.761 16.5324 121.747 16.5557L121.678 16.667C121.651 16.7184 121.621 16.7683 121.589 16.8167V16.8595C121.578 16.8793 121.565 16.8979 121.55 16.9151C121.529 16.9493 121.512 16.9836 121.49 17.0135C121.469 17.0435 121.443 17.0905 121.417 17.1247L121.358 17.2189L121.319 17.2702L121.246 17.3814C121.23 17.4074 121.212 17.4318 121.191 17.4542C121.169 17.4952 121.143 17.5339 121.114 17.5697V17.5953C121.114 17.5953 121.114 17.5953 121.114 17.6167L121.028 17.7365L120.994 17.7836L120.896 17.9119L120.767 18.0702C120.729 18.1267 120.686 18.1797 120.639 18.2285C120.614 18.263 120.587 18.2959 120.558 18.3269C120.527 18.3646 120.494 18.4003 120.459 18.4339C120.433 18.4711 120.403 18.5055 120.37 18.5366C120.317 18.5981 120.262 18.6567 120.203 18.712C120.163 18.7607 120.12 18.8064 120.074 18.8489L119.993 18.9301L119.801 19.1141L119.612 19.2852L119.497 19.3836C119.455 19.423 119.411 19.4601 119.364 19.4949L119.236 19.5975L119.176 19.6489L118.958 19.8115C118.903 19.857 118.844 19.8985 118.783 19.9355C118.713 19.9884 118.64 20.037 118.565 20.081L118.479 20.1409L118.316 20.2393C118.27 20.2703 118.221 20.2989 118.171 20.3248C118.128 20.3516 118.084 20.3759 118.038 20.3976L117.97 20.4361L117.91 20.466C117.795 20.5259 117.688 20.5815 117.572 20.6286C117.457 20.6757 117.363 20.7227 117.26 20.7612C117.157 20.7997 117.029 20.8511 116.918 20.8853C116.689 20.9619 116.457 21.0248 116.221 21.0735C116.127 21.0735 116.028 21.112 115.93 21.1249H115.87L115.622 21.1505L115.34 21.1762H115.143L72.0163 21.8393H71.935C71.8495 21.8393 71.7639 21.8393 71.6784 21.8393C71.6043 21.8434 71.5301 21.8434 71.456 21.8393H71.4047C71.3191 21.8393 71.2336 21.8137 71.148 21.8008C70.9483 21.7583 70.7512 21.704 70.5578 21.6382C70.4594 21.6083 70.3696 21.5698 70.2712 21.5313L70.0189 21.4115C69.929 21.3687 69.8435 21.3174 69.7537 21.266L69.7066 21.2361L69.6553 21.2019C69.619 21.184 69.5846 21.1625 69.5527 21.1377L69.4414 21.0607L69.3217 20.9666C69.2997 20.952 69.2796 20.9347 69.2618 20.9152C69.2038 20.876 69.1494 20.8316 69.0993 20.7826C69.0539 20.7487 69.0123 20.71 68.9752 20.6671L68.817 20.5174C68.8021 20.5035 68.7892 20.4876 68.7785 20.4703C68.744 20.4422 68.7125 20.4107 68.6844 20.3762C68.6508 20.344 68.6194 20.3097 68.5903 20.2735L68.5133 20.1837L68.3893 20.0254L68.261 19.8542L68.2096 19.7815C68.18 19.7404 68.1529 19.6975 68.1284 19.6532C68.0892 19.6007 68.0549 19.5449 68.0257 19.4863C68.0038 19.4586 67.9851 19.4285 67.9701 19.3965C67.9487 19.3622 67.9273 19.3323 67.9102 19.2981C67.892 19.268 67.8763 19.2365 67.8632 19.2039C67.847 19.1801 67.834 19.1542 67.8247 19.1269C67.7862 19.0499 67.7477 18.9772 67.7135 18.9002C67.693 18.8618 67.6759 18.8217 67.6622 18.7804C67.6525 18.7676 67.6452 18.7531 67.6408 18.7376C67.6408 18.7034 67.6108 18.6649 67.5937 18.6264V18.605C67.5956 18.5965 67.5956 18.5878 67.5937 18.5793C67.5765 18.5469 67.5636 18.5124 67.5552 18.4767C67.5427 18.4535 67.5327 18.4292 67.5253 18.4039C67.5253 18.3754 67.5124 18.3412 67.4868 18.3012C67.4844 18.2857 67.4844 18.2698 67.4868 18.2542C67.4736 18.2264 67.4621 18.1979 67.4526 18.1686C67.4526 18.1344 67.4312 18.1002 67.4184 18.0617C67.4055 18.0232 67.4184 18.0061 67.3884 17.9718C67.3897 17.9533 67.3897 17.9347 67.3884 17.9162C67.3884 17.9162 67.3884 17.8905 67.3884 17.8777C67.371 17.8317 67.3567 17.7845 67.3456 17.7365C67.3456 17.7023 67.3243 17.6724 67.3157 17.6338C67.3176 17.6111 67.3176 17.5882 67.3157 17.5654C67.3157 17.5012 67.2815 17.4285 67.2644 17.3558C67.2473 17.283 67.2259 17.1975 67.2088 17.1162V17.0948C67.2064 17.0806 67.2064 17.0662 67.2088 17.052C67.1874 16.9579 67.1703 16.8595 67.1575 16.7611C67.1446 16.6627 67.1232 16.56 67.1147 16.4531C67.1126 16.4117 67.1126 16.3703 67.1147 16.329V16.2135C67.1122 16.1922 67.1122 16.1706 67.1147 16.1493V16.0637C67.1147 16.0381 67.1147 16.0081 67.1147 15.9867C67.1147 15.8712 67.1147 15.76 67.0933 15.6445C67.0719 15.529 67.0933 15.3921 67.0933 15.2637C67.0933 15.1611 67.0933 15.0541 67.0933 14.9429C67.0979 14.6282 67.1193 14.314 67.1575 14.0017C67.162 13.9228 67.1706 13.8443 67.1831 13.7664C67.243 12.9107 66.8153 12.2476 66.178 12.2176L124.792 10.7673Z" fill="black"/>
<path d="M71.657 21.8694C71.7425 21.8694 71.828 21.8694 71.9136 21.8694H71.7682H71.6185H71.4517C71.5201 21.8729 71.5886 21.8729 71.657 21.8694Z" fill="black"/>
<path d="M115.742 21.1678H115.558C115.502 21.1741 115.446 21.1741 115.391 21.1678H115.233L115.515 21.1421L115.742 21.1678Z" fill="black"/>
<path d="M66.9736 16.443C66.9757 16.4064 66.9757 16.3698 66.9736 16.3333C66.972 16.3698 66.972 16.4064 66.9736 16.443Z" fill="black"/>
<path d="M67.0677 17.0446C67.0677 16.9716 67.0377 16.9028 67.0249 16.8298C67.0233 16.804 67.0233 16.7782 67.0249 16.7524C67.0292 16.8513 67.0463 16.9501 67.0677 17.0446Z" fill="black"/>
<path d="M67.5889 18.7285C67.5677 18.6902 67.5507 18.6433 67.5295 18.5964V18.6177C67.5592 18.6561 67.5719 18.6944 67.5889 18.7285Z" fill="black"/>
<path d="M67.7771 19.1184C67.7496 19.0731 67.7254 19.0259 67.7047 18.9772C67.6888 18.9495 67.6746 18.921 67.6621 18.8916C67.7004 18.9686 67.7388 19.0414 67.7771 19.1184Z" fill="black"/>
<path d="M67.8672 19.289C67.8469 19.2597 67.8298 19.2283 67.8162 19.1953C67.8305 19.2279 67.8476 19.2593 67.8672 19.289Z" fill="black"/>
<path d="M68.4706 20.1751C68.4278 20.1281 68.3851 20.0724 68.3466 20.0211C68.3189 19.9894 68.2946 19.955 68.2739 19.9184C68.253 19.8961 68.2344 19.8717 68.2183 19.8457L68.3466 20.0168L68.4706 20.1751Z" fill="black"/>
<path d="M68.5476 20.2649C68.5761 20.3006 68.607 20.3344 68.6399 20.3661L68.6105 20.3408L68.5476 20.2649Z" fill="black"/>
<path d="M68.9466 20.6606L68.8543 20.5805L68.7957 20.5173L68.9466 20.6606Z" fill="black"/>
<path d="M69.9988 21.3993C69.9257 21.3606 69.8484 21.3262 69.7754 21.279L69.7324 21.2532C69.8054 21.3219 69.9086 21.3735 69.9988 21.3993Z" fill="black"/>
<path d="M70.2328 21.5356C70.3312 21.5741 70.421 21.6126 70.5194 21.6425C70.4537 21.6242 70.3894 21.6013 70.3269 21.5741L70.2328 21.5398L70.1088 21.4799C70.0644 21.462 70.0215 21.4406 69.9805 21.4158L70.2328 21.5356Z" fill="black"/>
<path d="M71.1266 21.8266C71.2122 21.8266 71.2977 21.8566 71.3833 21.8651C71.3068 21.8603 71.231 21.8489 71.1566 21.8309C71.1566 21.8309 71.1352 21.8309 71.1266 21.8309L71.0282 21.8052C70.9603 21.7941 70.8931 21.7784 70.8272 21.7582L70.5749 21.6812H70.5364C70.7301 21.7411 70.9272 21.7897 71.1266 21.8266Z" fill="black"/>
<path d="M71.6551 21.8694H71.5576H71.4517C71.5194 21.8728 71.5874 21.8728 71.6551 21.8694Z" fill="black"/>
<path d="M115.143 21.2231H115.053L72.0976 21.8863H72.0164L115.143 21.2231Z" fill="black"/>
<path d="M115.494 21.1935L115.743 21.1677H115.623H115.515L115.494 21.1935Z" fill="black"/>
<path d="M116.092 21.1077C116.328 21.0589 116.561 20.9961 116.79 20.9194L116.738 20.9408L116.439 21.0264C116.363 21.051 116.286 21.0696 116.208 21.082L116.092 21.112H116.058C115.973 21.112 115.887 21.1462 115.802 21.1547C115.9 21.1462 115.998 21.1248 116.092 21.1077Z" fill="black"/>
<path d="M117.444 20.6628C117.392 20.6914 117.337 20.7157 117.281 20.7356L117.132 20.7997L117.016 20.8425L116.79 20.9195C116.901 20.8853 117.016 20.8425 117.132 20.7955C117.247 20.7484 117.337 20.7099 117.444 20.6628Z" fill="black"/>
<path d="M117.444 20.6628C117.56 20.6158 117.666 20.5601 117.782 20.5002L117.709 20.543C117.623 20.5875 117.535 20.6275 117.444 20.6628Z" fill="black"/>
<path d="M118.851 19.8365L119.067 19.6746L118.987 19.7427L118.851 19.8365Z" fill="black"/>
<path d="M119.393 19.405L119.3 19.4902L119.262 19.5158C119.307 19.4812 119.351 19.4442 119.393 19.405Z" fill="black"/>
<path d="M119.891 18.9517L119.809 19.0329L119.698 19.1399C119.634 19.1955 119.574 19.2554 119.51 19.3068L119.698 19.1356L119.891 18.9517Z" fill="black"/>
<path d="M120.539 18.25C120.513 18.2842 120.485 18.3166 120.455 18.347C120.484 18.3164 120.51 18.284 120.535 18.25H120.539Z" fill="black"/>
<path d="M120.803 17.9248L120.732 18.0133L120.673 18.0807L120.799 17.9248H120.803Z" fill="black"/>
<path d="M121.044 17.6082L120.938 17.7481L121.023 17.6294C121.023 17.6294 121.036 17.6166 121.044 17.6082Z" fill="black"/>
<path d="M122.199 15.636C122.185 15.6638 122.172 15.6923 122.161 15.7215C122.123 15.7943 122.089 15.8713 122.046 15.9483L122.199 15.636Z" fill="black"/>
<path d="M122.414 15.1782L122.363 15.298C122.363 15.2681 122.38 15.221 122.414 15.1782Z" fill="black"/>
<path d="M107.016 294.857L106.589 298.002C106.175 300.995 105.119 303.863 103.492 306.408C101.033 308.432 98.0813 309.403 95.0573 309.009C94.9337 308.995 94.8109 308.973 94.6895 308.945C94.4671 308.911 94.2618 308.864 94.018 308.808L14.3987 289.398C14.2063 289.351 14.0095 289.295 13.8213 289.236L13.5219 289.137C13.3851 289.086 13.2425 289.03 13.0942 288.97C10.7717 287.999 8.85128 286.006 7.53392 283.409C6.8948 280.638 6.78019 277.772 7.19602 274.959L7.68362 271.609C7.12759 275.434 7.83759 279.207 9.42441 282.014C10.5707 284.05 12.1832 285.582 14.1079 286.271C14.1683 286.299 14.2313 286.32 14.2961 286.335H14.3218H14.3517C14.5057 286.386 14.6639 286.429 14.8222 286.468L94.4585 305.685C94.6339 305.728 94.8178 305.762 94.9975 305.792H95.0359H95.0659C95.1476 305.811 95.2305 305.824 95.314 305.831C100.707 306.579 105.793 301.792 107.016 294.857Z" fill="url(#paint7_linear_13_4096)"/>
<path d="M149.407 21.5612V21.5312C150.737 12.4101 146.152 5.06017 139.039 4.79492C138.817 4.79492 138.586 4.79492 138.351 4.79492L55.5663 7.22494C55.3653 7.22494 55.1643 7.22494 54.9675 7.25916H54.9376C54.6852 7.28483 54.4329 7.31906 54.1848 7.36612C51.6442 7.83672 49.2148 9.35976 47.1831 11.5759C45.7806 14.1036 44.8487 16.865 44.4329 19.7258L43.9453 23.08C44.4518 19.4223 46.0842 16.0131 48.616 13.3257C50.361 11.5502 52.4312 10.3823 54.574 10.1555H54.6254H54.6981C54.8606 10.1555 55.006 10.1341 55.1258 10.1341L137.88 7.92656H138.458C144.095 8.15331 147.778 13.8476 146.965 21.0008L147.414 17.9247C147.884 14.9678 147.685 11.943 146.832 9.07312C149.095 12.1278 150.134 16.5899 149.407 21.5612Z" fill="url(#paint8_linear_13_4096)"/>
<path d="M7.53827 283.344C5.78036 279.96 5.02329 275.554 5.67342 271.083L41.8453 23.11C42.44 18.8186 44.2914 14.7994 47.1661 11.5588C45.7668 14.0876 44.8365 16.8487 44.4202 19.7088L7.20892 274.882C6.78815 277.699 6.89987 280.569 7.53827 283.344Z" fill="url(#paint9_linear_13_4096)"/>
<path d="M149.411 21.5697L109.583 294.806C109.342 296.438 108.911 298.036 108.299 299.567C107.846 300.707 107.281 301.798 106.614 302.827C106.482 303.033 106.34 303.229 106.186 303.426C105.977 303.721 105.759 304.004 105.532 304.282C104.916 305.047 104.222 305.747 103.462 306.37V306.344C105.099 303.798 106.166 300.927 106.589 297.929L147.427 17.929C147.897 14.9721 147.699 11.9472 146.845 9.07739C149.099 12.1406 150.139 16.5985 149.411 21.5697Z" fill="url(#paint10_linear_13_4096)"/>
<path d="M100.241 14.3568L88.167 14.6178C87.8633 14.6178 87.6666 14.3098 87.7393 13.9119L87.7906 13.544C87.8027 13.3672 87.8731 13.1995 87.9907 13.0671C88.1084 12.9347 88.2667 12.8451 88.4407 12.8124L100.519 12.53C100.827 12.53 101.033 12.8423 100.973 13.2445L100.917 13.6167C100.904 13.7981 100.83 13.9698 100.708 14.1041C100.585 14.2384 100.421 14.3275 100.241 14.3568Z" fill="url(#paint11_linear_13_4096)"/>
<path d="M144.852 21.5997L105.151 293.766C104.837 296.147 103.862 298.392 102.337 300.248C102.26 300.337 102.183 300.419 102.106 300.504C101.867 300.761 101.627 301.005 101.375 301.227C101.122 301.45 100.921 301.612 100.686 301.783C100.394 301.996 100.088 302.189 99.7708 302.361C99.4614 302.525 99.1413 302.668 98.8127 302.789C98.6502 302.849 98.4876 302.9 98.3208 302.956C98.1583 303.007 97.9872 303.045 97.8204 303.084C97.4804 303.155 97.136 303.202 96.7896 303.225C96.3699 303.246 95.9492 303.23 95.5321 303.178H95.4166H95.361H95.3054L95.1899 303.152H95.0788L94.8563 303.105L15.1729 284.08L14.9805 284.029L14.788 283.973H14.7367H14.711L14.6126 283.935C10.8701 282.604 8.57328 277.351 9.36028 271.956L45.6562 23.0885C46.4561 17.6124 50.2285 13.0048 54.2961 12.5427H54.3645H54.4714C54.584 12.5369 54.6968 12.5369 54.8093 12.5427L66.0069 12.2689C66.6442 12.2989 67.0719 12.9577 67.0121 13.8177C67.0121 13.8775 67.0121 13.9374 66.9907 13.9973V14.023C66.9907 14.023 66.9907 14.023 66.9907 14.053C66.9526 14.3653 66.9311 14.6795 66.9265 14.9942C66.9265 15.1054 66.9265 15.2123 66.9265 15.315C66.9265 15.4434 66.9265 15.5717 66.9265 15.6958C66.9265 15.8198 66.9265 15.9225 66.9479 16.038C66.9479 16.038 66.9479 16.0894 66.9479 16.115V16.2006C66.9455 16.2219 66.9455 16.2435 66.9479 16.2648V16.3803C66.95 16.4173 66.95 16.4545 66.9479 16.4915C66.9479 16.5985 66.9736 16.6969 66.9907 16.7996C67.0078 16.9022 67.0206 16.9964 67.042 17.0905C67.0396 17.1046 67.0396 17.1191 67.042 17.1333V17.1204C67.042 17.2017 67.0805 17.283 67.0976 17.36C67.1147 17.437 67.1318 17.5055 67.1489 17.5696C67.1509 17.5924 67.1509 17.6153 67.1489 17.6381C67.1489 17.6766 67.1489 17.7065 67.1789 17.7408C67.1899 17.7887 67.2042 17.8359 67.2216 17.8819C67.2216 17.8819 67.2216 17.9076 67.2216 17.9204C67.2229 17.939 67.2229 17.9575 67.2216 17.9761C67.2216 18.0103 67.243 18.0402 67.2516 18.0659C67.2601 18.0916 67.2729 18.1386 67.2858 18.1729C67.2953 18.2021 67.3068 18.2307 67.32 18.2584C67.3176 18.274 67.3176 18.2899 67.32 18.3055C67.32 18.3426 67.3328 18.3768 67.3585 18.4082C67.3659 18.4334 67.3759 18.4578 67.3884 18.4809C67.3968 18.5166 67.4098 18.5511 67.4269 18.5836C67.4288 18.592 67.4288 18.6008 67.4269 18.6092V18.6306C67.4269 18.6691 67.4569 18.7076 67.474 18.7419C67.4785 18.7573 67.4857 18.7718 67.4954 18.7846C67.5091 18.8259 67.5263 18.866 67.5467 18.9044C67.5569 18.9341 67.5698 18.9627 67.5852 18.99C67.606 19.0387 67.6303 19.0859 67.6579 19.1312C67.6673 19.1584 67.6802 19.1843 67.6964 19.2082C67.7095 19.2408 67.7252 19.2723 67.7434 19.3023C67.7434 19.3365 67.7819 19.3665 67.8033 19.4007C67.8183 19.4327 67.837 19.4628 67.8589 19.4905C67.8881 19.5491 67.9224 19.605 67.9616 19.6574C67.9861 19.7017 68.0132 19.7446 68.0428 19.7857L68.0942 19.8585C68.1103 19.8845 68.1289 19.9088 68.1498 19.9312C68.1716 19.9657 68.1959 19.9986 68.2225 20.0296C68.261 20.0809 68.3037 20.1366 68.3465 20.1836L68.4235 20.2735L68.4877 20.3505L68.5176 20.3761C68.5457 20.4106 68.5772 20.4422 68.6117 20.4703C68.6224 20.4876 68.6353 20.5034 68.6502 20.5173L68.7101 20.5815L68.8042 20.6628C68.8412 20.7057 68.8828 20.7444 68.9282 20.7783C68.9783 20.8273 69.0327 20.8717 69.0907 20.9109C69.1085 20.9304 69.1286 20.9477 69.1506 20.9622L69.2704 21.0564L69.3816 21.1334C69.4136 21.1582 69.4479 21.1797 69.4842 21.1975C69.4989 21.2123 69.5163 21.2239 69.5356 21.2318L69.5826 21.2617C69.5968 21.2728 69.6127 21.2814 69.6297 21.2874C69.7024 21.3345 69.7794 21.3687 69.8521 21.4072C69.8931 21.432 69.936 21.4534 69.9804 21.4714L70.1044 21.527L70.1985 21.5612C70.261 21.5885 70.3253 21.6113 70.391 21.6296H70.4295L70.6818 21.7067C70.7477 21.7269 70.8149 21.7426 70.8829 21.7537H70.9813C70.9813 21.7537 70.9813 21.7537 71.0112 21.7537C71.0856 21.7717 71.1615 21.7831 71.2379 21.7879H71.2892H71.3961H71.456H71.6057C71.6811 21.7944 71.757 21.7944 71.8324 21.7879H71.9137L114.869 21.1248H115.143C115.225 21.1312 115.308 21.1312 115.391 21.1248C115.446 21.1311 115.502 21.1311 115.558 21.1248H115.622H115.742H115.802C115.887 21.1248 115.973 21.0991 116.058 21.082H116.092L116.208 21.0564C116.286 21.0439 116.363 21.0253 116.439 21.0008L116.738 20.9152L116.79 20.8938L117.016 20.8168L117.132 20.774C117.183 20.7578 117.233 20.7377 117.281 20.7141C117.337 20.6943 117.392 20.6699 117.444 20.6414C117.534 20.6131 117.622 20.5802 117.709 20.543C117.73 20.5356 117.75 20.5255 117.769 20.513L117.829 20.4831L117.897 20.4446C117.943 20.4229 117.987 20.3986 118.03 20.3719C118.08 20.3459 118.128 20.3173 118.175 20.2863L118.338 20.1879L118.423 20.128C118.499 20.084 118.572 20.0354 118.642 19.9825C118.703 19.9455 118.762 19.9041 118.817 19.8585L118.945 19.7686L119.027 19.7002L119.086 19.6488L119.215 19.5462L119.253 19.5205L119.347 19.4349L119.463 19.3365C119.527 19.2852 119.587 19.2253 119.651 19.1697L119.762 19.067L119.843 18.9857L119.925 18.9044C119.971 18.862 120.014 18.8162 120.053 18.7675C120.112 18.7123 120.168 18.6537 120.22 18.5921C120.253 18.561 120.283 18.5266 120.31 18.4894C120.345 18.4559 120.378 18.4202 120.408 18.3825C120.437 18.3515 120.464 18.3186 120.489 18.2841C120.537 18.2352 120.58 18.1823 120.618 18.1258L120.678 18.0574C120.703 18.0293 120.726 17.9992 120.746 17.9675L120.844 17.8392L120.879 17.7921L120.964 17.6723C120.964 17.6723 120.964 17.6723 120.964 17.6509V17.6252C120.994 17.5895 121.019 17.5508 121.041 17.5097C121.062 17.4874 121.081 17.463 121.097 17.437L121.169 17.3258L121.208 17.2744L121.268 17.1803C121.293 17.1461 121.315 17.1076 121.34 17.0691C121.366 17.0306 121.379 17.0049 121.4 16.9707C121.415 16.9535 121.428 16.9349 121.439 16.9151V16.8723C121.471 16.8239 121.501 16.7739 121.529 16.7226L121.597 16.6113C121.612 16.5879 121.624 16.5636 121.636 16.5386C121.678 16.4659 121.721 16.3931 121.76 16.3161C121.798 16.2391 121.854 16.145 121.896 16.0551C121.899 16.041 121.899 16.0265 121.896 16.0124L122.05 15.7001C122.098 15.5931 122.149 15.4861 122.192 15.3749L122.243 15.2551C122.256 15.2142 122.272 15.1742 122.29 15.1353C122.29 15.1097 122.29 15.0883 122.32 15.0626L122.354 14.9728L122.388 14.8872C122.431 14.7674 122.478 14.6476 122.517 14.5278C122.555 14.408 122.607 14.2626 122.649 14.1257C122.683 14.0144 122.713 13.9032 122.748 13.7877C122.837 13.4583 122.914 13.1246 122.974 12.7909C122.976 12.7796 122.976 12.768 122.974 12.7567V12.731C122.974 12.6711 122.974 12.6069 123.004 12.547C123.21 11.6358 123.894 10.9128 124.621 10.8357L137.337 10.5234H137.927C138.005 10.5263 138.082 10.5335 138.158 10.5448H138.274L138.5 10.5748L138.774 10.6176L139.159 10.6988L139.232 10.7202L139.54 10.8101L139.967 10.9726L140.314 11.1224C140.438 11.1823 140.562 11.2465 140.678 11.3106C140.916 11.4402 141.148 11.583 141.37 11.7384C141.567 11.8882 141.764 12.0422 141.952 12.2133C141.991 12.2554 142.033 12.2954 142.076 12.3331L142.303 12.5556L142.585 12.8679C142.765 13.0861 142.94 13.2957 143.103 13.5481C143.184 13.6679 143.265 13.792 143.338 13.916C143.411 14.0401 143.488 14.1685 143.556 14.3011C143.846 14.8398 144.085 15.404 144.27 15.9867C144.369 16.2905 144.446 16.6028 144.518 16.9193C144.591 17.2359 144.647 17.5611 144.694 17.8991C144.715 18.0659 144.732 18.2328 144.749 18.3996C144.779 18.7718 144.801 19.144 144.801 19.5248C144.801 19.6745 144.801 19.8285 144.801 19.9825C144.849 20.5201 144.866 21.0601 144.852 21.5997Z" fill="url(#paint12_linear_13_4096)"/>
</g>
<defs>
<linearGradient id="paint0_linear_13_4096" x1="99.45" y1="157.035" x2="162.316" y2="157.035" gradientUnits="userSpaceOnUse">
<stop stop-color="#333333"/>
<stop offset="0.37" stop-color="#848484"/>
<stop offset="0.66" stop-color="#BFBFBF"/>
<stop offset="0.88" stop-color="#E3E3E3"/>
<stop offset="1" stop-color="#F1F1F1"/>
</linearGradient>
<linearGradient id="paint1_linear_13_4096" x1="77.4739" y1="312.963" x2="81.7376" y2="-0.137892" gradientUnits="userSpaceOnUse">
<stop stop-color="#F1F1F1"/>
<stop offset="0.43" stop-color="#EFEFEF"/>
<stop offset="0.62" stop-color="#E8E8E8"/>
<stop offset="0.76" stop-color="#DBDBDB"/>
<stop offset="0.88" stop-color="#C9C9C9"/>
<stop offset="0.98" stop-color="#B2B2B2"/>
<stop offset="1" stop-color="#ACACAC"/>
</linearGradient>
<linearGradient id="paint2_linear_13_4096" x1="21.8558" y1="145.685" x2="23.4352" y2="145.908" gradientUnits="userSpaceOnUse">
<stop stop-color="#666666"/>
<stop offset="0.06" stop-color="#727272"/>
<stop offset="0.33" stop-color="#A8A8A8"/>
<stop offset="0.57" stop-color="#D0D0D0"/>
<stop offset="0.76" stop-color="#E8E8E8"/>
<stop offset="0.87" stop-color="#F1F1F1"/>
<stop offset="0.95" stop-color="#F7F7F7"/>
<stop offset="1" stop-color="white"/>
</linearGradient>
<linearGradient id="paint3_linear_13_4096" x1="131.762" y1="158.099" x2="133.578" y2="158.356" gradientUnits="userSpaceOnUse">
<stop stop-color="white"/>
<stop offset="0.05" stop-color="#F7F7F7"/>
<stop offset="0.13" stop-color="#F1F1F1"/>
<stop offset="0.24" stop-color="#E8E8E8"/>
<stop offset="0.43" stop-color="#D0D0D0"/>
<stop offset="0.67" stop-color="#A8A8A8"/>
<stop offset="0.94" stop-color="#727272"/>
<stop offset="1" stop-color="#666666"/>
</linearGradient>
<linearGradient id="paint4_linear_13_4096" x1="55.3808" y1="306.098" x2="58.7884" y2="282.007" gradientUnits="userSpaceOnUse">
<stop stop-color="#F1F1F1"/>
<stop offset="0.12" stop-color="#E3E3E3"/>
<stop offset="0.34" stop-color="#BFBFBF"/>
<stop offset="0.63" stop-color="#848484"/>
<stop offset="1" stop-color="#333333"/>
</linearGradient>
<linearGradient id="paint5_linear_13_4096" x1="96.1387" y1="23.3698" x2="101.418" y2="-13.9566" gradientUnits="userSpaceOnUse">
<stop stop-color="#333333"/>
<stop offset="0.07" stop-color="#4C4C4C"/>
<stop offset="0.25" stop-color="#828282"/>
<stop offset="0.42" stop-color="#AFAFAF"/>
<stop offset="0.59" stop-color="#D2D2D2"/>
<stop offset="0.74" stop-color="#EBEBEB"/>
<stop offset="0.89" stop-color="#FAFAFA"/>
<stop offset="1" stop-color="white"/>
</linearGradient>
<linearGradient id="paint6_linear_13_4096" x1="125.395" y1="157" x2="130.544" y2="157.728" gradientUnits="userSpaceOnUse">
<stop stop-color="#F0F0F0"/>
<stop offset="0.14" stop-color="#B7B7B7"/>
<stop offset="0.27" stop-color="#888888"/>
<stop offset="0.4" stop-color="#636363"/>
<stop offset="0.51" stop-color="#494949"/>
<stop offset="0.62" stop-color="#393939"/>
<stop offset="0.7" stop-color="#333333"/>
</linearGradient>
<linearGradient id="paint7_linear_13_4096" x1="6.8018" y1="283.264" x2="107.433" y2="297.491" gradientUnits="userSpaceOnUse">
<stop/>
<stop offset="0.1" stop-color="#141414"/>
<stop offset="0.26" stop-color="#2C2C2C"/>
<stop offset="0.4" stop-color="#3B3B3B"/>
<stop offset="0.52" stop-color="#404040"/>
<stop offset="0.63" stop-color="#393939"/>
<stop offset="0.79" stop-color="#242424"/>
<stop offset="0.99" stop-color="#020202"/>
<stop offset="1"/>
</linearGradient>
<linearGradient id="paint8_linear_13_4096" x1="46.6507" y1="6.84397" x2="149.822" y2="21.4303" gradientUnits="userSpaceOnUse">
<stop/>
<stop offset="0.1" stop-color="#141414"/>
<stop offset="0.26" stop-color="#2C2C2C"/>
<stop offset="0.4" stop-color="#3B3B3B"/>
<stop offset="0.52" stop-color="#404040"/>
<stop offset="0.63" stop-color="#393939"/>
<stop offset="0.79" stop-color="#242424"/>
<stop offset="0.99" stop-color="#020202"/>
<stop offset="1"/>
</linearGradient>
<linearGradient id="paint9_linear_13_4096" x1="24.0891" y1="146.325" x2="26.6594" y2="146.688" gradientUnits="userSpaceOnUse">
<stop stop-color="#404040"/>
<stop offset="0.64" stop-color="#1A1A1A"/>
<stop offset="1" stop-color="#0A0A0A"/>
</linearGradient>
<linearGradient id="paint10_linear_13_4096" x1="125.394" y1="156.943" x2="130.56" y2="157.674" gradientUnits="userSpaceOnUse">
<stop stop-color="#0A0A0A"/>
<stop offset="0.36" stop-color="#1A1A1A"/>
<stop offset="1" stop-color="#404040"/>
</linearGradient>
<linearGradient id="paint11_linear_13_4096" x1="88.3905" y1="12.0051" x2="101.267" y2="13.8256" gradientUnits="userSpaceOnUse">
<stop stop-color="#333333"/>
<stop offset="0.09" stop-color="#2B2B2B"/>
<stop offset="0.29" stop-color="#1E1E1E"/>
<stop offset="0.48" stop-color="#1A1A1A"/>
<stop offset="0.79" stop-color="#1C1C1C"/>
<stop offset="0.9" stop-color="#232323"/>
<stop offset="0.98" stop-color="#2E2E2E"/>
<stop offset="1" stop-color="#333333"/>
</linearGradient>
<linearGradient id="paint12_linear_13_4096" x1="4.25661" y1="48.7143" x2="160.683" y2="256.618" gradientUnits="userSpaceOnUse">
<stop stop-color="#F2F3F4"/>
<stop offset="0.36" stop-color="#EDEEEF"/>
<stop offset="0.78" stop-color="#DFE0E0"/>
<stop offset="1" stop-color="#D5D6D6"/>
</linearGradient>
<clipPath id="clip0_13_4096">
<rect width="161.925" height="312.698" fill="white" transform="translate(0.391113 0.666504)"/>
</clipPath>
</defs>
</svg>
