<svg width="214" height="43" viewBox="0 0 214 43" fill="none" xmlns="http://www.w3.org/2000/svg">
<rect width="42.6875" height="42.482" rx="21.241" fill="white"/>
<path d="M39.8415 21.5757C39.8415 11.6675 31.5601 3.63574 21.3459 3.63574C11.1271 3.63797 2.8457 11.6675 2.8457 21.5779C2.8457 30.5301 9.61047 37.9512 18.4514 39.2972V26.7616H13.7581V21.5779H18.456V17.6222C18.456 13.1272 21.2188 10.6446 25.4427 10.6446C27.468 10.6446 29.5834 10.9945 29.5834 10.9945V15.407H27.2507C24.9549 15.407 24.2382 16.791 24.2382 18.2106V21.5757H29.3661L28.5477 26.7593H24.2359V39.295C33.0768 37.949 39.8415 30.5278 39.8415 21.5757Z" fill="#3FA0BB"/>
<rect x="56.9165" width="42.6875" height="42.482" rx="21.241" fill="white"/>
<path d="M78.2606 3.63574C68.0455 3.63574 59.7627 11.6198 59.7627 21.4665C59.7627 31.3132 68.0455 39.2972 78.2606 39.2972C88.4758 39.2972 96.7585 31.3132 96.7585 21.4665C96.7585 11.6198 88.4758 3.63574 78.2606 3.63574ZM87.1503 17.0765C87.1627 17.2635 87.1627 17.4586 87.1627 17.6496C87.1627 23.4924 82.5465 30.2227 74.111 30.2227C71.5097 30.2227 69.0984 29.4943 67.0669 28.2406C67.4385 28.2804 67.7936 28.2963 68.1735 28.2963C70.3205 28.2963 72.2942 27.5958 73.8674 26.4097C71.8524 26.3699 70.1595 25.0963 69.5815 23.3451C70.2875 23.4446 70.9234 23.4446 71.6501 23.2655C70.6126 23.0623 69.68 22.5192 69.0109 21.7283C68.3418 20.9375 67.9773 19.9477 67.9794 18.9272V18.8715C68.5864 19.2018 69.3007 19.4048 70.048 19.4327C69.4198 19.0291 68.9045 18.4823 68.548 17.8408C68.1915 17.1992 68.0047 16.4828 68.0042 15.7551C68.0042 14.9312 68.2271 14.179 68.6277 13.5262C69.7792 14.8927 71.2163 16.0104 72.8453 16.8065C74.4743 17.6026 76.2589 18.0594 78.0831 18.1471C77.4348 15.1421 79.7636 12.7103 82.563 12.7103C83.8843 12.7103 85.0735 13.2437 85.9116 14.1033C86.948 13.9163 87.939 13.5422 88.8226 13.0407C88.4799 14.0635 87.7614 14.9272 86.8076 15.4725C87.7325 15.377 88.6244 15.1302 89.4502 14.7839C88.8267 15.6675 88.0463 16.4516 87.1503 17.0765Z" fill="#3FA0BB"/>
<rect x="113.833" width="42.6875" height="42.482" rx="21.241" fill="white"/>
<rect x="170.75" width="42.6875" height="42.482" rx="21.241" fill="white"/>
<path d="M135.177 3.63574C124.961 3.63574 116.679 11.6187 116.679 21.4665C116.679 31.3143 124.961 39.2972 135.177 39.2972C145.393 39.2972 153.675 31.3143 153.675 21.4665C153.675 11.6187 145.393 3.63574 135.177 3.63574ZM130.649 28.857H126.903V17.2373H130.649V28.857ZM128.753 15.8108C127.57 15.8108 126.805 15.0028 126.805 14.0036C126.805 12.9839 127.593 12.2001 128.801 12.2001C130.009 12.2001 130.749 12.9839 130.772 14.0036C130.772 15.0028 130.009 15.8108 128.753 15.8108ZM144.33 28.857H140.584V22.4175C140.584 20.9186 140.041 19.9007 138.686 19.9007C137.651 19.9007 137.037 20.5898 136.765 21.2529C136.665 21.4888 136.64 21.8231 136.64 22.1556V28.8551H132.892V20.9427C132.892 19.4921 132.844 18.2792 132.794 17.2354H136.048L136.22 18.8495H136.295C136.788 18.0917 137.996 16.9735 140.017 16.9735C142.482 16.9735 144.33 18.5653 144.33 21.9866V28.857Z" fill="#3FA0BB"/>
<path d="M208.588 15.825C208.569 14.4812 208.308 13.1508 207.815 11.8933C207.388 10.8325 206.736 9.86921 205.9 9.06482C205.064 8.26043 204.063 7.63268 202.961 7.22168C201.671 6.75568 200.308 6.50371 198.93 6.47649C197.157 6.4002 196.594 6.37891 192.092 6.37891C187.59 6.37891 187.013 6.37891 185.252 6.47649C183.875 6.50391 182.513 6.75588 181.223 7.22168C180.121 7.63239 179.12 8.26004 178.284 9.06447C177.448 9.86889 176.796 10.8324 176.369 11.8933C175.884 13.1337 175.622 14.4448 175.596 15.77C175.517 17.4786 175.493 18.0198 175.493 22.3525C175.493 26.6852 175.493 27.2388 175.596 28.9349C175.624 30.2621 175.884 31.5715 176.369 32.8152C176.796 33.8758 177.449 34.8389 178.285 35.643C179.122 36.4471 180.123 37.0744 181.225 37.4851C182.511 37.9698 183.873 38.2398 185.254 38.2835C187.029 38.3598 187.592 38.3828 192.094 38.3828C196.596 38.3828 197.173 38.3828 198.934 38.2835C200.312 38.2574 201.674 38.006 202.964 37.5401C204.066 37.1286 205.067 36.5007 205.903 35.6963C206.739 34.892 207.391 33.9289 207.819 32.8685C208.304 31.6265 208.564 30.3171 208.591 28.9882C208.671 27.2813 208.695 26.7402 208.695 22.4057C208.691 18.073 208.691 17.523 208.588 15.825ZM192.081 30.546C187.372 30.546 183.558 26.875 183.558 22.3436C183.558 17.8122 187.372 14.1412 192.081 14.1412C194.342 14.1412 196.509 15.0054 198.108 16.5437C199.706 18.0819 200.604 20.1682 200.604 22.3436C200.604 24.519 199.706 26.6053 198.108 28.1435C196.509 29.6818 194.342 30.546 192.081 30.546ZM200.944 15.7505C200.683 15.7507 200.424 15.7014 200.183 15.6054C199.942 15.5093 199.722 15.3685 199.538 15.1908C199.353 15.0132 199.207 14.8022 199.107 14.5701C199.007 14.3379 198.956 14.0891 198.956 13.8379C198.956 13.5868 199.008 13.3382 199.107 13.1063C199.207 12.8743 199.354 12.6636 199.538 12.486C199.722 12.3085 199.941 12.1677 200.182 12.0716C200.423 11.9755 200.682 11.9261 200.943 11.9261C201.204 11.9261 201.462 11.9755 201.703 12.0716C201.944 12.1677 202.163 12.3085 202.347 12.486C202.532 12.6636 202.678 12.8743 202.778 13.1063C202.878 13.3382 202.929 13.5868 202.929 13.8379C202.929 14.8953 202.041 15.7505 200.944 15.7505Z" fill="#3FA0BB"/>
<path d="M192.094 29.2389C196.023 29.2389 199.208 26.1685 199.208 22.3809C199.208 18.5934 196.023 15.5229 192.094 15.5229C188.164 15.5229 184.979 18.5934 184.979 22.3809C184.979 26.1685 188.164 29.2389 192.094 29.2389Z" fill="#3FA0BB"/>
</svg>
